G04 #@! TF.GenerationSoftware,KiCad,Pcbnew,(6.0.4)*
G04 #@! TF.CreationDate,2022-06-01T02:41:54-07:00*
G04 #@! TF.ProjectId,ditto,64697474-6f2e-46b6-9963-61645f706362,rev?*
G04 #@! TF.SameCoordinates,Original*
G04 #@! TF.FileFunction,Profile,NP*
%FSLAX46Y46*%
G04 Gerber Fmt 4.6, Leading zero omitted, Abs format (unit mm)*
G04 Created by KiCad (PCBNEW (6.0.4)) date 2022-06-01 02:41:54*
%MOMM*%
%LPD*%
G01*
G04 APERTURE LIST*
G04 #@! TA.AperFunction,Profile*
%ADD10C,0.100000*%
G04 #@! TD*
%ADD11C,0.150000*%
G04 APERTURE END LIST*
D10*
X103000000Y-208000000D02*
X103000000Y-119000000D01*
X359000000Y-209000000D02*
X104000000Y-209000000D01*
X104000000Y-118000000D02*
G75*
G03*
X103000000Y-119000000I0J-1000000D01*
G01*
X103000000Y-208000000D02*
G75*
G03*
X104000000Y-209000000I1000000J0D01*
G01*
X359000000Y-118000000D02*
X104000000Y-118000000D01*
X360000000Y-119000000D02*
G75*
G03*
X359000000Y-118000000I-1000000J0D01*
G01*
X360000000Y-208000000D02*
X360000000Y-119000000D01*
X359000000Y-209000000D02*
G75*
G03*
X360000000Y-208000000I0J1000000D01*
G01*
D11*
X226404761Y-209397619D02*
X226452380Y-209350000D01*
X226547619Y-209302380D01*
X226785714Y-209302380D01*
X226880952Y-209350000D01*
X226928571Y-209397619D01*
X226976190Y-209492857D01*
X226976190Y-209588095D01*
X226928571Y-209730952D01*
X226357142Y-210302380D01*
X226976190Y-210302380D01*
X227880952Y-209302380D02*
X227404761Y-209302380D01*
X227357142Y-209778571D01*
X227404761Y-209730952D01*
X227500000Y-209683333D01*
X227738095Y-209683333D01*
X227833333Y-209730952D01*
X227880952Y-209778571D01*
X227928571Y-209873809D01*
X227928571Y-210111904D01*
X227880952Y-210207142D01*
X227833333Y-210254761D01*
X227738095Y-210302380D01*
X227500000Y-210302380D01*
X227404761Y-210254761D01*
X227357142Y-210207142D01*
X228261904Y-209302380D02*
X228928571Y-209302380D01*
X228500000Y-210302380D01*
X229309523Y-210207142D02*
X229357142Y-210254761D01*
X229309523Y-210302380D01*
X229261904Y-210254761D01*
X229309523Y-210207142D01*
X229309523Y-210302380D01*
X229976190Y-209302380D02*
X230071428Y-209302380D01*
X230166666Y-209350000D01*
X230214285Y-209397619D01*
X230261904Y-209492857D01*
X230309523Y-209683333D01*
X230309523Y-209921428D01*
X230261904Y-210111904D01*
X230214285Y-210207142D01*
X230166666Y-210254761D01*
X230071428Y-210302380D01*
X229976190Y-210302380D01*
X229880952Y-210254761D01*
X229833333Y-210207142D01*
X229785714Y-210111904D01*
X229738095Y-209921428D01*
X229738095Y-209683333D01*
X229785714Y-209492857D01*
X229833333Y-209397619D01*
X229880952Y-209350000D01*
X229976190Y-209302380D01*
X230928571Y-209302380D02*
X231023809Y-209302380D01*
X231119047Y-209350000D01*
X231166666Y-209397619D01*
X231214285Y-209492857D01*
X231261904Y-209683333D01*
X231261904Y-209921428D01*
X231214285Y-210111904D01*
X231166666Y-210207142D01*
X231119047Y-210254761D01*
X231023809Y-210302380D01*
X230928571Y-210302380D01*
X230833333Y-210254761D01*
X230785714Y-210207142D01*
X230738095Y-210111904D01*
X230690476Y-209921428D01*
X230690476Y-209683333D01*
X230738095Y-209492857D01*
X230785714Y-209397619D01*
X230833333Y-209350000D01*
X230928571Y-209302380D01*
X231880952Y-209302380D02*
X231976190Y-209302380D01*
X232071428Y-209350000D01*
X232119047Y-209397619D01*
X232166666Y-209492857D01*
X232214285Y-209683333D01*
X232214285Y-209921428D01*
X232166666Y-210111904D01*
X232119047Y-210207142D01*
X232071428Y-210254761D01*
X231976190Y-210302380D01*
X231880952Y-210302380D01*
X231785714Y-210254761D01*
X231738095Y-210207142D01*
X231690476Y-210111904D01*
X231642857Y-209921428D01*
X231642857Y-209683333D01*
X231690476Y-209492857D01*
X231738095Y-209397619D01*
X231785714Y-209350000D01*
X231880952Y-209302380D01*
X232833333Y-209302380D02*
X232928571Y-209302380D01*
X233023809Y-209350000D01*
X233071428Y-209397619D01*
X233119047Y-209492857D01*
X233166666Y-209683333D01*
X233166666Y-209921428D01*
X233119047Y-210111904D01*
X233071428Y-210207142D01*
X233023809Y-210254761D01*
X232928571Y-210302380D01*
X232833333Y-210302380D01*
X232738095Y-210254761D01*
X232690476Y-210207142D01*
X232642857Y-210111904D01*
X232595238Y-209921428D01*
X232595238Y-209683333D01*
X232642857Y-209492857D01*
X232690476Y-209397619D01*
X232738095Y-209350000D01*
X232833333Y-209302380D01*
X234357142Y-210302380D02*
X234357142Y-209635714D01*
X234357142Y-209730952D02*
X234404761Y-209683333D01*
X234500000Y-209635714D01*
X234642857Y-209635714D01*
X234738095Y-209683333D01*
X234785714Y-209778571D01*
X234785714Y-210302380D01*
X234785714Y-209778571D02*
X234833333Y-209683333D01*
X234928571Y-209635714D01*
X235071428Y-209635714D01*
X235166666Y-209683333D01*
X235214285Y-209778571D01*
X235214285Y-210302380D01*
X235690476Y-210302380D02*
X235690476Y-209635714D01*
X235690476Y-209730952D02*
X235738095Y-209683333D01*
X235833333Y-209635714D01*
X235976190Y-209635714D01*
X236071428Y-209683333D01*
X236119047Y-209778571D01*
X236119047Y-210302380D01*
X236119047Y-209778571D02*
X236166666Y-209683333D01*
X236261904Y-209635714D01*
X236404761Y-209635714D01*
X236500000Y-209683333D01*
X236547619Y-209778571D01*
X236547619Y-210302380D01*
D10*
X103000000Y-209500000D02*
X103000000Y-211586420D01*
X360000000Y-209500000D02*
X360000000Y-211586420D01*
X103000000Y-211000000D02*
X360000000Y-211000000D01*
X103000000Y-211000000D02*
X360000000Y-211000000D01*
X103000000Y-211000000D02*
X104126504Y-211586421D01*
X103000000Y-211000000D02*
X104126504Y-210413579D01*
X360000000Y-211000000D02*
X358873496Y-210413579D01*
X360000000Y-211000000D02*
X358873496Y-211586421D01*
D11*
X100302380Y-168023809D02*
X100302380Y-167833333D01*
X100254761Y-167738095D01*
X100207142Y-167690476D01*
X100064285Y-167595238D01*
X99873809Y-167547619D01*
X99492857Y-167547619D01*
X99397619Y-167595238D01*
X99350000Y-167642857D01*
X99302380Y-167738095D01*
X99302380Y-167928571D01*
X99350000Y-168023809D01*
X99397619Y-168071428D01*
X99492857Y-168119047D01*
X99730952Y-168119047D01*
X99826190Y-168071428D01*
X99873809Y-168023809D01*
X99921428Y-167928571D01*
X99921428Y-167738095D01*
X99873809Y-167642857D01*
X99826190Y-167595238D01*
X99730952Y-167547619D01*
X100302380Y-166595238D02*
X100302380Y-167166666D01*
X100302380Y-166880952D02*
X99302380Y-166880952D01*
X99445238Y-166976190D01*
X99540476Y-167071428D01*
X99588095Y-167166666D01*
X100207142Y-166166666D02*
X100254761Y-166119047D01*
X100302380Y-166166666D01*
X100254761Y-166214285D01*
X100207142Y-166166666D01*
X100302380Y-166166666D01*
X99302380Y-165500000D02*
X99302380Y-165404761D01*
X99350000Y-165309523D01*
X99397619Y-165261904D01*
X99492857Y-165214285D01*
X99683333Y-165166666D01*
X99921428Y-165166666D01*
X100111904Y-165214285D01*
X100207142Y-165261904D01*
X100254761Y-165309523D01*
X100302380Y-165404761D01*
X100302380Y-165500000D01*
X100254761Y-165595238D01*
X100207142Y-165642857D01*
X100111904Y-165690476D01*
X99921428Y-165738095D01*
X99683333Y-165738095D01*
X99492857Y-165690476D01*
X99397619Y-165642857D01*
X99350000Y-165595238D01*
X99302380Y-165500000D01*
X99302380Y-164547619D02*
X99302380Y-164452380D01*
X99350000Y-164357142D01*
X99397619Y-164309523D01*
X99492857Y-164261904D01*
X99683333Y-164214285D01*
X99921428Y-164214285D01*
X100111904Y-164261904D01*
X100207142Y-164309523D01*
X100254761Y-164357142D01*
X100302380Y-164452380D01*
X100302380Y-164547619D01*
X100254761Y-164642857D01*
X100207142Y-164690476D01*
X100111904Y-164738095D01*
X99921428Y-164785714D01*
X99683333Y-164785714D01*
X99492857Y-164738095D01*
X99397619Y-164690476D01*
X99350000Y-164642857D01*
X99302380Y-164547619D01*
X99302380Y-163595238D02*
X99302380Y-163500000D01*
X99350000Y-163404761D01*
X99397619Y-163357142D01*
X99492857Y-163309523D01*
X99683333Y-163261904D01*
X99921428Y-163261904D01*
X100111904Y-163309523D01*
X100207142Y-163357142D01*
X100254761Y-163404761D01*
X100302380Y-163500000D01*
X100302380Y-163595238D01*
X100254761Y-163690476D01*
X100207142Y-163738095D01*
X100111904Y-163785714D01*
X99921428Y-163833333D01*
X99683333Y-163833333D01*
X99492857Y-163785714D01*
X99397619Y-163738095D01*
X99350000Y-163690476D01*
X99302380Y-163595238D01*
X99302380Y-162642857D02*
X99302380Y-162547619D01*
X99350000Y-162452380D01*
X99397619Y-162404761D01*
X99492857Y-162357142D01*
X99683333Y-162309523D01*
X99921428Y-162309523D01*
X100111904Y-162357142D01*
X100207142Y-162404761D01*
X100254761Y-162452380D01*
X100302380Y-162547619D01*
X100302380Y-162642857D01*
X100254761Y-162738095D01*
X100207142Y-162785714D01*
X100111904Y-162833333D01*
X99921428Y-162880952D01*
X99683333Y-162880952D01*
X99492857Y-162833333D01*
X99397619Y-162785714D01*
X99350000Y-162738095D01*
X99302380Y-162642857D01*
X100302380Y-161119047D02*
X99635714Y-161119047D01*
X99730952Y-161119047D02*
X99683333Y-161071428D01*
X99635714Y-160976190D01*
X99635714Y-160833333D01*
X99683333Y-160738095D01*
X99778571Y-160690476D01*
X100302380Y-160690476D01*
X99778571Y-160690476D02*
X99683333Y-160642857D01*
X99635714Y-160547619D01*
X99635714Y-160404761D01*
X99683333Y-160309523D01*
X99778571Y-160261904D01*
X100302380Y-160261904D01*
X100302380Y-159785714D02*
X99635714Y-159785714D01*
X99730952Y-159785714D02*
X99683333Y-159738095D01*
X99635714Y-159642857D01*
X99635714Y-159500000D01*
X99683333Y-159404761D01*
X99778571Y-159357142D01*
X100302380Y-159357142D01*
X99778571Y-159357142D02*
X99683333Y-159309523D01*
X99635714Y-159214285D01*
X99635714Y-159071428D01*
X99683333Y-158976190D01*
X99778571Y-158928571D01*
X100302380Y-158928571D01*
D10*
X102500000Y-209000000D02*
X100413580Y-209000000D01*
X102500000Y-118000000D02*
X100413580Y-118000000D01*
X101000000Y-209000000D02*
X101000000Y-118000000D01*
X101000000Y-209000000D02*
X101000000Y-118000000D01*
X101000000Y-209000000D02*
X101586421Y-207873496D01*
X101000000Y-209000000D02*
X100413579Y-207873496D01*
X101000000Y-118000000D02*
X100413579Y-119126504D01*
X101000000Y-118000000D02*
X101586421Y-119126504D01*
M02*
