G04 #@! TF.GenerationSoftware,KiCad,Pcbnew,(6.0.6)*
G04 #@! TF.CreationDate,2022-06-27T20:25:50-07:00*
G04 #@! TF.ProjectId,adapter,61646170-7465-4722-9e6b-696361645f70,rev?*
G04 #@! TF.SameCoordinates,Original*
G04 #@! TF.FileFunction,Legend,Top*
G04 #@! TF.FilePolarity,Positive*
%FSLAX46Y46*%
G04 Gerber Fmt 4.6, Leading zero omitted, Abs format (unit mm)*
G04 Created by KiCad (PCBNEW (6.0.6)) date 2022-06-27 20:25:50*
%MOMM*%
%LPD*%
G01*
G04 APERTURE LIST*
%ADD10C,0.150000*%
%ADD11C,0.120000*%
%ADD12O,0.850000X0.850000*%
%ADD13R,0.850000X0.850000*%
%ADD14R,1.700000X1.700000*%
%ADD15O,1.700000X1.700000*%
G04 APERTURE END LIST*
D10*
X156609404Y-108000000D02*
X156514166Y-107952380D01*
X156371309Y-107952380D01*
X156228452Y-108000000D01*
X156133214Y-108095238D01*
X156085595Y-108190476D01*
X156037976Y-108380952D01*
X156037976Y-108523809D01*
X156085595Y-108714285D01*
X156133214Y-108809523D01*
X156228452Y-108904761D01*
X156371309Y-108952380D01*
X156466547Y-108952380D01*
X156609404Y-108904761D01*
X156657023Y-108857142D01*
X156657023Y-108523809D01*
X156466547Y-108523809D01*
X157609404Y-108952380D02*
X157037976Y-108952380D01*
X157323690Y-108952380D02*
X157323690Y-107952380D01*
X157228452Y-108095238D01*
X157133214Y-108190476D01*
X157037976Y-108238095D01*
X157942738Y-107952380D02*
X158609404Y-107952380D01*
X158180833Y-108952380D01*
X156561785Y-118202380D02*
X156085595Y-118202380D01*
X156037976Y-118678571D01*
X156085595Y-118630952D01*
X156180833Y-118583333D01*
X156418928Y-118583333D01*
X156514166Y-118630952D01*
X156561785Y-118678571D01*
X156609404Y-118773809D01*
X156609404Y-119011904D01*
X156561785Y-119107142D01*
X156514166Y-119154761D01*
X156418928Y-119202380D01*
X156180833Y-119202380D01*
X156085595Y-119154761D01*
X156037976Y-119107142D01*
X156895119Y-118202380D02*
X157228452Y-119202380D01*
X157561785Y-118202380D01*
X155990357Y-115702380D02*
X156609404Y-115702380D01*
X156276071Y-116083333D01*
X156418928Y-116083333D01*
X156514166Y-116130952D01*
X156561785Y-116178571D01*
X156609404Y-116273809D01*
X156609404Y-116511904D01*
X156561785Y-116607142D01*
X156514166Y-116654761D01*
X156418928Y-116702380D01*
X156133214Y-116702380D01*
X156037976Y-116654761D01*
X155990357Y-116607142D01*
X157037976Y-116178571D02*
X157371309Y-116178571D01*
X157514166Y-116702380D02*
X157037976Y-116702380D01*
X157037976Y-115702380D01*
X157514166Y-115702380D01*
X157942738Y-116702380D02*
X157942738Y-115702380D01*
X158514166Y-116702380D01*
X158514166Y-115702380D01*
X156657023Y-111702380D02*
X156323690Y-111226190D01*
X156085595Y-111702380D02*
X156085595Y-110702380D01*
X156466547Y-110702380D01*
X156561785Y-110750000D01*
X156609404Y-110797619D01*
X156657023Y-110892857D01*
X156657023Y-111035714D01*
X156609404Y-111130952D01*
X156561785Y-111178571D01*
X156466547Y-111226190D01*
X156085595Y-111226190D01*
X157085595Y-110702380D02*
X157085595Y-111511904D01*
X157133214Y-111607142D01*
X157180833Y-111654761D01*
X157276071Y-111702380D01*
X157466547Y-111702380D01*
X157561785Y-111654761D01*
X157609404Y-111607142D01*
X157657023Y-111511904D01*
X157657023Y-110702380D01*
X158133214Y-111702380D02*
X158133214Y-110702380D01*
X158704642Y-111702380D01*
X158704642Y-110702380D01*
X155990357Y-120702380D02*
X156609404Y-120702380D01*
X156276071Y-121083333D01*
X156418928Y-121083333D01*
X156514166Y-121130952D01*
X156561785Y-121178571D01*
X156609404Y-121273809D01*
X156609404Y-121511904D01*
X156561785Y-121607142D01*
X156514166Y-121654761D01*
X156418928Y-121702380D01*
X156133214Y-121702380D01*
X156037976Y-121654761D01*
X155990357Y-121607142D01*
X156895119Y-120702380D02*
X157228452Y-121702380D01*
X157561785Y-120702380D01*
X157799880Y-120702380D02*
X158418928Y-120702380D01*
X158085595Y-121083333D01*
X158228452Y-121083333D01*
X158323690Y-121130952D01*
X158371309Y-121178571D01*
X158418928Y-121273809D01*
X158418928Y-121511904D01*
X158371309Y-121607142D01*
X158323690Y-121654761D01*
X158228452Y-121702380D01*
X157942738Y-121702380D01*
X157847500Y-121654761D01*
X157799880Y-121607142D01*
X155942738Y-113202380D02*
X156276071Y-114202380D01*
X156609404Y-113202380D01*
X156895119Y-114154761D02*
X157037976Y-114202380D01*
X157276071Y-114202380D01*
X157371309Y-114154761D01*
X157418928Y-114107142D01*
X157466547Y-114011904D01*
X157466547Y-113916666D01*
X157418928Y-113821428D01*
X157371309Y-113773809D01*
X157276071Y-113726190D01*
X157085595Y-113678571D01*
X156990357Y-113630952D01*
X156942738Y-113583333D01*
X156895119Y-113488095D01*
X156895119Y-113392857D01*
X156942738Y-113297619D01*
X156990357Y-113250000D01*
X157085595Y-113202380D01*
X157323690Y-113202380D01*
X157466547Y-113250000D01*
X156609404Y-103000000D02*
X156514166Y-102952380D01*
X156371309Y-102952380D01*
X156228452Y-103000000D01*
X156133214Y-103095238D01*
X156085595Y-103190476D01*
X156037976Y-103380952D01*
X156037976Y-103523809D01*
X156085595Y-103714285D01*
X156133214Y-103809523D01*
X156228452Y-103904761D01*
X156371309Y-103952380D01*
X156466547Y-103952380D01*
X156609404Y-103904761D01*
X156657023Y-103857142D01*
X156657023Y-103523809D01*
X156466547Y-103523809D01*
X157609404Y-103952380D02*
X157037976Y-103952380D01*
X157323690Y-103952380D02*
X157323690Y-102952380D01*
X157228452Y-103095238D01*
X157133214Y-103190476D01*
X157037976Y-103238095D01*
X158085595Y-103952380D02*
X158276071Y-103952380D01*
X158371309Y-103904761D01*
X158418928Y-103857142D01*
X158514166Y-103714285D01*
X158561785Y-103523809D01*
X158561785Y-103142857D01*
X158514166Y-103047619D01*
X158466547Y-103000000D01*
X158371309Y-102952380D01*
X158180833Y-102952380D01*
X158085595Y-103000000D01*
X158037976Y-103047619D01*
X157990357Y-103142857D01*
X157990357Y-103380952D01*
X158037976Y-103476190D01*
X158085595Y-103523809D01*
X158180833Y-103571428D01*
X158371309Y-103571428D01*
X158466547Y-103523809D01*
X158514166Y-103476190D01*
X158561785Y-103380952D01*
X156609404Y-105500000D02*
X156514166Y-105452380D01*
X156371309Y-105452380D01*
X156228452Y-105500000D01*
X156133214Y-105595238D01*
X156085595Y-105690476D01*
X156037976Y-105880952D01*
X156037976Y-106023809D01*
X156085595Y-106214285D01*
X156133214Y-106309523D01*
X156228452Y-106404761D01*
X156371309Y-106452380D01*
X156466547Y-106452380D01*
X156609404Y-106404761D01*
X156657023Y-106357142D01*
X156657023Y-106023809D01*
X156466547Y-106023809D01*
X157609404Y-106452380D02*
X157037976Y-106452380D01*
X157323690Y-106452380D02*
X157323690Y-105452380D01*
X157228452Y-105595238D01*
X157133214Y-105690476D01*
X157037976Y-105738095D01*
X158180833Y-105880952D02*
X158085595Y-105833333D01*
X158037976Y-105785714D01*
X157990357Y-105690476D01*
X157990357Y-105642857D01*
X158037976Y-105547619D01*
X158085595Y-105500000D01*
X158180833Y-105452380D01*
X158371309Y-105452380D01*
X158466547Y-105500000D01*
X158514166Y-105547619D01*
X158561785Y-105642857D01*
X158561785Y-105690476D01*
X158514166Y-105785714D01*
X158466547Y-105833333D01*
X158371309Y-105880952D01*
X158180833Y-105880952D01*
X158085595Y-105928571D01*
X158037976Y-105976190D01*
X157990357Y-106071428D01*
X157990357Y-106261904D01*
X158037976Y-106357142D01*
X158085595Y-106404761D01*
X158180833Y-106452380D01*
X158371309Y-106452380D01*
X158466547Y-106404761D01*
X158514166Y-106357142D01*
X158561785Y-106261904D01*
X158561785Y-106071428D01*
X158514166Y-105976190D01*
X158466547Y-105928571D01*
X158371309Y-105880952D01*
X156609404Y-95500000D02*
X156514166Y-95452380D01*
X156371309Y-95452380D01*
X156228452Y-95500000D01*
X156133214Y-95595238D01*
X156085595Y-95690476D01*
X156037976Y-95880952D01*
X156037976Y-96023809D01*
X156085595Y-96214285D01*
X156133214Y-96309523D01*
X156228452Y-96404761D01*
X156371309Y-96452380D01*
X156466547Y-96452380D01*
X156609404Y-96404761D01*
X156657023Y-96357142D01*
X156657023Y-96023809D01*
X156466547Y-96023809D01*
X157037976Y-95547619D02*
X157085595Y-95500000D01*
X157180833Y-95452380D01*
X157418928Y-95452380D01*
X157514166Y-95500000D01*
X157561785Y-95547619D01*
X157609404Y-95642857D01*
X157609404Y-95738095D01*
X157561785Y-95880952D01*
X156990357Y-96452380D01*
X157609404Y-96452380D01*
X157990357Y-95547619D02*
X158037976Y-95500000D01*
X158133214Y-95452380D01*
X158371309Y-95452380D01*
X158466547Y-95500000D01*
X158514166Y-95547619D01*
X158561785Y-95642857D01*
X158561785Y-95738095D01*
X158514166Y-95880952D01*
X157942738Y-96452380D01*
X158561785Y-96452380D01*
X156609404Y-98000000D02*
X156514166Y-97952380D01*
X156371309Y-97952380D01*
X156228452Y-98000000D01*
X156133214Y-98095238D01*
X156085595Y-98190476D01*
X156037976Y-98380952D01*
X156037976Y-98523809D01*
X156085595Y-98714285D01*
X156133214Y-98809523D01*
X156228452Y-98904761D01*
X156371309Y-98952380D01*
X156466547Y-98952380D01*
X156609404Y-98904761D01*
X156657023Y-98857142D01*
X156657023Y-98523809D01*
X156466547Y-98523809D01*
X157037976Y-98047619D02*
X157085595Y-98000000D01*
X157180833Y-97952380D01*
X157418928Y-97952380D01*
X157514166Y-98000000D01*
X157561785Y-98047619D01*
X157609404Y-98142857D01*
X157609404Y-98238095D01*
X157561785Y-98380952D01*
X156990357Y-98952380D01*
X157609404Y-98952380D01*
X158561785Y-98952380D02*
X157990357Y-98952380D01*
X158276071Y-98952380D02*
X158276071Y-97952380D01*
X158180833Y-98095238D01*
X158085595Y-98190476D01*
X157990357Y-98238095D01*
X156609404Y-90250000D02*
X156514166Y-90202380D01*
X156371309Y-90202380D01*
X156228452Y-90250000D01*
X156133214Y-90345238D01*
X156085595Y-90440476D01*
X156037976Y-90630952D01*
X156037976Y-90773809D01*
X156085595Y-90964285D01*
X156133214Y-91059523D01*
X156228452Y-91154761D01*
X156371309Y-91202380D01*
X156466547Y-91202380D01*
X156609404Y-91154761D01*
X156657023Y-91107142D01*
X156657023Y-90773809D01*
X156466547Y-90773809D01*
X157037976Y-90297619D02*
X157085595Y-90250000D01*
X157180833Y-90202380D01*
X157418928Y-90202380D01*
X157514166Y-90250000D01*
X157561785Y-90297619D01*
X157609404Y-90392857D01*
X157609404Y-90488095D01*
X157561785Y-90630952D01*
X156990357Y-91202380D01*
X157609404Y-91202380D01*
X158466547Y-90535714D02*
X158466547Y-91202380D01*
X158228452Y-90154761D02*
X157990357Y-90869047D01*
X158609404Y-90869047D01*
X156609404Y-87750000D02*
X156514166Y-87702380D01*
X156371309Y-87702380D01*
X156228452Y-87750000D01*
X156133214Y-87845238D01*
X156085595Y-87940476D01*
X156037976Y-88130952D01*
X156037976Y-88273809D01*
X156085595Y-88464285D01*
X156133214Y-88559523D01*
X156228452Y-88654761D01*
X156371309Y-88702380D01*
X156466547Y-88702380D01*
X156609404Y-88654761D01*
X156657023Y-88607142D01*
X156657023Y-88273809D01*
X156466547Y-88273809D01*
X157037976Y-87797619D02*
X157085595Y-87750000D01*
X157180833Y-87702380D01*
X157418928Y-87702380D01*
X157514166Y-87750000D01*
X157561785Y-87797619D01*
X157609404Y-87892857D01*
X157609404Y-87988095D01*
X157561785Y-88130952D01*
X156990357Y-88702380D01*
X157609404Y-88702380D01*
X158514166Y-87702380D02*
X158037976Y-87702380D01*
X157990357Y-88178571D01*
X158037976Y-88130952D01*
X158133214Y-88083333D01*
X158371309Y-88083333D01*
X158466547Y-88130952D01*
X158514166Y-88178571D01*
X158561785Y-88273809D01*
X158561785Y-88511904D01*
X158514166Y-88607142D01*
X158466547Y-88654761D01*
X158371309Y-88702380D01*
X158133214Y-88702380D01*
X158037976Y-88654761D01*
X157990357Y-88607142D01*
X156609404Y-100500000D02*
X156514166Y-100452380D01*
X156371309Y-100452380D01*
X156228452Y-100500000D01*
X156133214Y-100595238D01*
X156085595Y-100690476D01*
X156037976Y-100880952D01*
X156037976Y-101023809D01*
X156085595Y-101214285D01*
X156133214Y-101309523D01*
X156228452Y-101404761D01*
X156371309Y-101452380D01*
X156466547Y-101452380D01*
X156609404Y-101404761D01*
X156657023Y-101357142D01*
X156657023Y-101023809D01*
X156466547Y-101023809D01*
X157037976Y-100547619D02*
X157085595Y-100500000D01*
X157180833Y-100452380D01*
X157418928Y-100452380D01*
X157514166Y-100500000D01*
X157561785Y-100547619D01*
X157609404Y-100642857D01*
X157609404Y-100738095D01*
X157561785Y-100880952D01*
X156990357Y-101452380D01*
X157609404Y-101452380D01*
X158228452Y-100452380D02*
X158323690Y-100452380D01*
X158418928Y-100500000D01*
X158466547Y-100547619D01*
X158514166Y-100642857D01*
X158561785Y-100833333D01*
X158561785Y-101071428D01*
X158514166Y-101261904D01*
X158466547Y-101357142D01*
X158418928Y-101404761D01*
X158323690Y-101452380D01*
X158228452Y-101452380D01*
X158133214Y-101404761D01*
X158085595Y-101357142D01*
X158037976Y-101261904D01*
X157990357Y-101071428D01*
X157990357Y-100833333D01*
X158037976Y-100642857D01*
X158085595Y-100547619D01*
X158133214Y-100500000D01*
X158228452Y-100452380D01*
X156609404Y-92750000D02*
X156514166Y-92702380D01*
X156371309Y-92702380D01*
X156228452Y-92750000D01*
X156133214Y-92845238D01*
X156085595Y-92940476D01*
X156037976Y-93130952D01*
X156037976Y-93273809D01*
X156085595Y-93464285D01*
X156133214Y-93559523D01*
X156228452Y-93654761D01*
X156371309Y-93702380D01*
X156466547Y-93702380D01*
X156609404Y-93654761D01*
X156657023Y-93607142D01*
X156657023Y-93273809D01*
X156466547Y-93273809D01*
X157037976Y-92797619D02*
X157085595Y-92750000D01*
X157180833Y-92702380D01*
X157418928Y-92702380D01*
X157514166Y-92750000D01*
X157561785Y-92797619D01*
X157609404Y-92892857D01*
X157609404Y-92988095D01*
X157561785Y-93130952D01*
X156990357Y-93702380D01*
X157609404Y-93702380D01*
X157942738Y-92702380D02*
X158561785Y-92702380D01*
X158228452Y-93083333D01*
X158371309Y-93083333D01*
X158466547Y-93130952D01*
X158514166Y-93178571D01*
X158561785Y-93273809D01*
X158561785Y-93511904D01*
X158514166Y-93607142D01*
X158466547Y-93654761D01*
X158371309Y-93702380D01*
X158085595Y-93702380D01*
X157990357Y-93654761D01*
X157942738Y-93607142D01*
X156037976Y-85916666D02*
X156514166Y-85916666D01*
X155942738Y-86202380D02*
X156276071Y-85202380D01*
X156609404Y-86202380D01*
X156895119Y-85297619D02*
X156942738Y-85250000D01*
X157037976Y-85202380D01*
X157276071Y-85202380D01*
X157371309Y-85250000D01*
X157418928Y-85297619D01*
X157466547Y-85392857D01*
X157466547Y-85488095D01*
X157418928Y-85630952D01*
X156847500Y-86202380D01*
X157466547Y-86202380D01*
X158323690Y-85202380D02*
X158133214Y-85202380D01*
X158037976Y-85250000D01*
X157990357Y-85297619D01*
X157895119Y-85440476D01*
X157847500Y-85630952D01*
X157847500Y-86011904D01*
X157895119Y-86107142D01*
X157942738Y-86154761D01*
X158037976Y-86202380D01*
X158228452Y-86202380D01*
X158323690Y-86154761D01*
X158371309Y-86107142D01*
X158418928Y-86011904D01*
X158418928Y-85773809D01*
X158371309Y-85678571D01*
X158323690Y-85630952D01*
X158228452Y-85583333D01*
X158037976Y-85583333D01*
X157942738Y-85630952D01*
X157895119Y-85678571D01*
X157847500Y-85773809D01*
X156037976Y-80916666D02*
X156514166Y-80916666D01*
X155942738Y-81202380D02*
X156276071Y-80202380D01*
X156609404Y-81202380D01*
X156895119Y-80297619D02*
X156942738Y-80250000D01*
X157037976Y-80202380D01*
X157276071Y-80202380D01*
X157371309Y-80250000D01*
X157418928Y-80297619D01*
X157466547Y-80392857D01*
X157466547Y-80488095D01*
X157418928Y-80630952D01*
X156847500Y-81202380D01*
X157466547Y-81202380D01*
X158037976Y-80630952D02*
X157942738Y-80583333D01*
X157895119Y-80535714D01*
X157847500Y-80440476D01*
X157847500Y-80392857D01*
X157895119Y-80297619D01*
X157942738Y-80250000D01*
X158037976Y-80202380D01*
X158228452Y-80202380D01*
X158323690Y-80250000D01*
X158371309Y-80297619D01*
X158418928Y-80392857D01*
X158418928Y-80440476D01*
X158371309Y-80535714D01*
X158323690Y-80583333D01*
X158228452Y-80630952D01*
X158037976Y-80630952D01*
X157942738Y-80678571D01*
X157895119Y-80726190D01*
X157847500Y-80821428D01*
X157847500Y-81011904D01*
X157895119Y-81107142D01*
X157942738Y-81154761D01*
X158037976Y-81202380D01*
X158228452Y-81202380D01*
X158323690Y-81154761D01*
X158371309Y-81107142D01*
X158418928Y-81011904D01*
X158418928Y-80821428D01*
X158371309Y-80726190D01*
X158323690Y-80678571D01*
X158228452Y-80630952D01*
X156037976Y-78166666D02*
X156514166Y-78166666D01*
X155942738Y-78452380D02*
X156276071Y-77452380D01*
X156609404Y-78452380D01*
X156895119Y-77547619D02*
X156942738Y-77500000D01*
X157037976Y-77452380D01*
X157276071Y-77452380D01*
X157371309Y-77500000D01*
X157418928Y-77547619D01*
X157466547Y-77642857D01*
X157466547Y-77738095D01*
X157418928Y-77880952D01*
X156847500Y-78452380D01*
X157466547Y-78452380D01*
X157942738Y-78452380D02*
X158133214Y-78452380D01*
X158228452Y-78404761D01*
X158276071Y-78357142D01*
X158371309Y-78214285D01*
X158418928Y-78023809D01*
X158418928Y-77642857D01*
X158371309Y-77547619D01*
X158323690Y-77500000D01*
X158228452Y-77452380D01*
X158037976Y-77452380D01*
X157942738Y-77500000D01*
X157895119Y-77547619D01*
X157847500Y-77642857D01*
X157847500Y-77880952D01*
X157895119Y-77976190D01*
X157942738Y-78023809D01*
X158037976Y-78071428D01*
X158228452Y-78071428D01*
X158323690Y-78023809D01*
X158371309Y-77976190D01*
X158418928Y-77880952D01*
X156037976Y-83416666D02*
X156514166Y-83416666D01*
X155942738Y-83702380D02*
X156276071Y-82702380D01*
X156609404Y-83702380D01*
X156895119Y-82797619D02*
X156942738Y-82750000D01*
X157037976Y-82702380D01*
X157276071Y-82702380D01*
X157371309Y-82750000D01*
X157418928Y-82797619D01*
X157466547Y-82892857D01*
X157466547Y-82988095D01*
X157418928Y-83130952D01*
X156847500Y-83702380D01*
X157466547Y-83702380D01*
X157799880Y-82702380D02*
X158466547Y-82702380D01*
X158037976Y-83702380D01*
X155942738Y-74952380D02*
X156276071Y-75952380D01*
X156609404Y-74952380D01*
X157514166Y-75952380D02*
X157180833Y-75476190D01*
X156942738Y-75952380D02*
X156942738Y-74952380D01*
X157323690Y-74952380D01*
X157418928Y-75000000D01*
X157466547Y-75047619D01*
X157514166Y-75142857D01*
X157514166Y-75285714D01*
X157466547Y-75380952D01*
X157418928Y-75428571D01*
X157323690Y-75476190D01*
X156942738Y-75476190D01*
X158276071Y-75428571D02*
X157942738Y-75428571D01*
X157942738Y-75952380D02*
X157942738Y-74952380D01*
X158418928Y-74952380D01*
X156085595Y-72452380D02*
X156085595Y-73261904D01*
X156133214Y-73357142D01*
X156180833Y-73404761D01*
X156276071Y-73452380D01*
X156466547Y-73452380D01*
X156561785Y-73404761D01*
X156609404Y-73357142D01*
X156657023Y-73261904D01*
X156657023Y-72452380D01*
X157466547Y-72928571D02*
X157609404Y-72976190D01*
X157657023Y-73023809D01*
X157704642Y-73119047D01*
X157704642Y-73261904D01*
X157657023Y-73357142D01*
X157609404Y-73404761D01*
X157514166Y-73452380D01*
X157133214Y-73452380D01*
X157133214Y-72452380D01*
X157466547Y-72452380D01*
X157561785Y-72500000D01*
X157609404Y-72547619D01*
X157657023Y-72642857D01*
X157657023Y-72738095D01*
X157609404Y-72833333D01*
X157561785Y-72880952D01*
X157466547Y-72928571D01*
X157133214Y-72928571D01*
X157990357Y-72452380D02*
X158561785Y-72452380D01*
X158276071Y-73452380D02*
X158276071Y-72452380D01*
X156085595Y-70952380D02*
X156085595Y-69952380D01*
X156657023Y-70952380D01*
X156657023Y-69952380D01*
X157133214Y-70952380D02*
X157133214Y-69952380D01*
X157514166Y-69952380D01*
X157609404Y-70000000D01*
X157657023Y-70047619D01*
X157704642Y-70142857D01*
X157704642Y-70285714D01*
X157657023Y-70380952D01*
X157609404Y-70428571D01*
X157514166Y-70476190D01*
X157133214Y-70476190D01*
X158037976Y-69952380D02*
X158704642Y-70952380D01*
X158704642Y-69952380D02*
X158037976Y-70952380D01*
X156609404Y-67250000D02*
X156514166Y-67202380D01*
X156371309Y-67202380D01*
X156228452Y-67250000D01*
X156133214Y-67345238D01*
X156085595Y-67440476D01*
X156037976Y-67630952D01*
X156037976Y-67773809D01*
X156085595Y-67964285D01*
X156133214Y-68059523D01*
X156228452Y-68154761D01*
X156371309Y-68202380D01*
X156466547Y-68202380D01*
X156609404Y-68154761D01*
X156657023Y-68107142D01*
X156657023Y-67773809D01*
X156466547Y-67773809D01*
X157085595Y-68202380D02*
X157085595Y-67202380D01*
X157657023Y-68202380D01*
X157657023Y-67202380D01*
X158133214Y-68202380D02*
X158133214Y-67202380D01*
X158371309Y-67202380D01*
X158514166Y-67250000D01*
X158609404Y-67345238D01*
X158657023Y-67440476D01*
X158704642Y-67630952D01*
X158704642Y-67773809D01*
X158657023Y-67964285D01*
X158609404Y-68059523D01*
X158514166Y-68154761D01*
X158371309Y-68202380D01*
X158133214Y-68202380D01*
X148509166Y-65482380D02*
X148175833Y-65006190D01*
X147937738Y-65482380D02*
X147937738Y-64482380D01*
X148318690Y-64482380D01*
X148413928Y-64530000D01*
X148461547Y-64577619D01*
X148509166Y-64672857D01*
X148509166Y-64815714D01*
X148461547Y-64910952D01*
X148413928Y-64958571D01*
X148318690Y-65006190D01*
X147937738Y-65006190D01*
X148937738Y-64958571D02*
X149271071Y-64958571D01*
X149413928Y-65482380D02*
X148937738Y-65482380D01*
X148937738Y-64482380D01*
X149413928Y-64482380D01*
X150175833Y-64958571D02*
X149842500Y-64958571D01*
X149842500Y-65482380D02*
X149842500Y-64482380D01*
X150318690Y-64482380D01*
X150842500Y-64482380D02*
X150842500Y-64720476D01*
X150604404Y-64625238D02*
X150842500Y-64720476D01*
X151080595Y-64625238D01*
X150699642Y-64910952D02*
X150842500Y-64720476D01*
X150985357Y-64910952D01*
X151604404Y-64482380D02*
X151604404Y-64720476D01*
X151366309Y-64625238D02*
X151604404Y-64720476D01*
X151842500Y-64625238D01*
X151461547Y-64910952D02*
X151604404Y-64720476D01*
X151747261Y-64910952D01*
D11*
X104440000Y-103790000D02*
X102440000Y-103790000D01*
X102440000Y-101790000D02*
X102440000Y-102210000D01*
X102440000Y-105210000D02*
X104440000Y-105210000D01*
X104440000Y-85790000D02*
X102440000Y-85790000D01*
X102440000Y-87210000D02*
X104440000Y-87210000D01*
X105281785Y-90500000D02*
X104440000Y-90500000D01*
X102440000Y-102790000D02*
X102440000Y-103210000D01*
X104440000Y-100790000D02*
X102440000Y-100790000D01*
X102440000Y-88790000D02*
X102440000Y-89210000D01*
X102440000Y-103790000D02*
X102440000Y-104210000D01*
X102440000Y-84790000D02*
X102440000Y-85210000D01*
X104440000Y-83970000D02*
X102440000Y-83970000D01*
X102440000Y-85210000D02*
X104440000Y-85210000D01*
X104440000Y-104790000D02*
X102440000Y-104790000D01*
X102440000Y-100790000D02*
X102440000Y-101210000D01*
X102440000Y-97790000D02*
X102440000Y-98210000D01*
X104440000Y-101790000D02*
X102440000Y-101790000D01*
X104440000Y-84090000D02*
X102440000Y-84090000D01*
X102440000Y-96210000D02*
X104440000Y-96210000D01*
X105281785Y-86500000D02*
X104440000Y-86500000D01*
X102440000Y-83790000D02*
X102440000Y-84210000D01*
X102440000Y-95790000D02*
X102440000Y-96210000D01*
X104440000Y-91790000D02*
X102440000Y-91790000D01*
X102440000Y-91210000D02*
X104440000Y-91210000D01*
X102440000Y-96790000D02*
X102440000Y-97210000D01*
X102440000Y-101210000D02*
X104440000Y-101210000D01*
X104440000Y-89790000D02*
X102440000Y-89790000D01*
X104440000Y-86790000D02*
X102440000Y-86790000D01*
X105281785Y-91500000D02*
X104440000Y-91500000D01*
X102440000Y-100210000D02*
X104440000Y-100210000D01*
X105281785Y-99500000D02*
X104440000Y-99500000D01*
X102440000Y-98790000D02*
X102440000Y-99210000D01*
X105281785Y-88500000D02*
X104440000Y-88500000D01*
X105281785Y-94500000D02*
X104440000Y-94500000D01*
X102440000Y-99790000D02*
X102440000Y-100210000D01*
X104440000Y-99790000D02*
X102440000Y-99790000D01*
X104440000Y-93790000D02*
X102440000Y-93790000D01*
X104440000Y-90790000D02*
X102440000Y-90790000D01*
X104440000Y-102790000D02*
X102440000Y-102790000D01*
X102440000Y-93790000D02*
X102440000Y-94210000D01*
X102440000Y-94790000D02*
X102440000Y-95210000D01*
X104440000Y-94790000D02*
X102440000Y-94790000D01*
X102440000Y-104790000D02*
X102440000Y-105210000D01*
X105281785Y-104500000D02*
X104440000Y-104500000D01*
X104440000Y-83790000D02*
X102440000Y-83790000D01*
X102440000Y-99210000D02*
X104440000Y-99210000D01*
X102440000Y-89790000D02*
X102440000Y-90210000D01*
X105281785Y-98500000D02*
X104440000Y-98500000D01*
X102440000Y-90790000D02*
X102440000Y-91210000D01*
X104440000Y-88790000D02*
X102440000Y-88790000D01*
X102440000Y-91790000D02*
X102440000Y-92210000D01*
X105281785Y-96500000D02*
X104440000Y-96500000D01*
X102440000Y-94210000D02*
X104440000Y-94210000D01*
X102440000Y-92790000D02*
X102440000Y-93210000D01*
X102440000Y-87790000D02*
X102440000Y-88210000D01*
X102440000Y-86210000D02*
X104440000Y-86210000D01*
X104440000Y-83850000D02*
X102440000Y-83850000D01*
X102440000Y-92210000D02*
X104440000Y-92210000D01*
X104440000Y-98790000D02*
X102440000Y-98790000D01*
X105281785Y-103500000D02*
X104440000Y-103500000D01*
X102440000Y-103210000D02*
X104440000Y-103210000D01*
X102440000Y-84210000D02*
X104440000Y-84210000D01*
X105281785Y-100500000D02*
X104440000Y-100500000D01*
X105281785Y-89500000D02*
X104440000Y-89500000D01*
X104440000Y-84790000D02*
X102440000Y-84790000D01*
X105281785Y-85500000D02*
X104440000Y-85500000D01*
X105281785Y-97500000D02*
X104440000Y-97500000D01*
X102440000Y-86790000D02*
X102440000Y-87210000D01*
X105281785Y-102500000D02*
X104440000Y-102500000D01*
X102440000Y-97210000D02*
X104440000Y-97210000D01*
X104440000Y-83440000D02*
X104440000Y-105560000D01*
X104440000Y-87790000D02*
X102440000Y-87790000D01*
X104440000Y-97790000D02*
X102440000Y-97790000D01*
X102440000Y-90210000D02*
X104440000Y-90210000D01*
X105065000Y-83440000D02*
X104440000Y-83440000D01*
X105281785Y-93500000D02*
X104440000Y-93500000D01*
X104440000Y-105560000D02*
X105355507Y-105560000D01*
X102440000Y-85790000D02*
X102440000Y-86210000D01*
X102440000Y-95210000D02*
X104440000Y-95210000D01*
X102440000Y-98210000D02*
X104440000Y-98210000D01*
X102440000Y-88210000D02*
X104440000Y-88210000D01*
X105281785Y-101500000D02*
X104440000Y-101500000D01*
X105281785Y-95500000D02*
X104440000Y-95500000D01*
X104440000Y-96790000D02*
X102440000Y-96790000D01*
X105281785Y-92500000D02*
X104440000Y-92500000D01*
X102440000Y-102210000D02*
X104440000Y-102210000D01*
X105065000Y-84500000D02*
X104440000Y-84500000D01*
X106435000Y-84000000D02*
X106435000Y-83315000D01*
X106435000Y-83315000D02*
X105750000Y-83315000D01*
X102440000Y-89210000D02*
X104440000Y-89210000D01*
X105281785Y-87500000D02*
X104440000Y-87500000D01*
X104440000Y-92790000D02*
X102440000Y-92790000D01*
X102440000Y-93210000D02*
X104440000Y-93210000D01*
X102440000Y-104210000D02*
X104440000Y-104210000D01*
X104440000Y-95790000D02*
X102440000Y-95790000D01*
X155552500Y-81770000D02*
X146922500Y-81770000D01*
X155552500Y-68361425D02*
X146922500Y-68361425D01*
X146922500Y-103720000D02*
X146512500Y-103720000D01*
X155552500Y-67298570D02*
X146922500Y-67298570D01*
X146922500Y-78320000D02*
X146512500Y-78320000D01*
X155552500Y-69070000D02*
X146922500Y-69070000D01*
X146922500Y-80860000D02*
X146512500Y-80860000D01*
X155552500Y-122470000D02*
X146922500Y-122470000D01*
X155552500Y-67534760D02*
X146922500Y-67534760D01*
X155552500Y-68597615D02*
X146922500Y-68597615D01*
X146922500Y-108080000D02*
X146512500Y-108080000D01*
X146922500Y-87760000D02*
X146512500Y-87760000D01*
X155552500Y-71610000D02*
X146922500Y-71610000D01*
X144352500Y-66470000D02*
X144352500Y-67800000D01*
X146922500Y-121500000D02*
X146512500Y-121500000D01*
X146922500Y-118960000D02*
X146512500Y-118960000D01*
X146922500Y-113160000D02*
X146512500Y-113160000D01*
X155552500Y-66470000D02*
X155552500Y-122470000D01*
X146922500Y-108800000D02*
X146512500Y-108800000D01*
X155552500Y-67062380D02*
X146922500Y-67062380D01*
X146922500Y-103000000D02*
X146512500Y-103000000D01*
X146922500Y-92840000D02*
X146512500Y-92840000D01*
X146922500Y-101180000D02*
X146512500Y-101180000D01*
X146922500Y-69980000D02*
X146512500Y-69980000D01*
X146922500Y-70700000D02*
X146512500Y-70700000D01*
X146922500Y-77600000D02*
X146512500Y-77600000D01*
X155552500Y-119870000D02*
X146922500Y-119870000D01*
X155552500Y-112250000D02*
X146922500Y-112250000D01*
X155552500Y-117330000D02*
X146922500Y-117330000D01*
X145462500Y-66470000D02*
X144352500Y-66470000D01*
X155552500Y-94470000D02*
X146922500Y-94470000D01*
X155552500Y-104630000D02*
X146922500Y-104630000D01*
X146922500Y-106260000D02*
X146512500Y-106260000D01*
X155552500Y-66470000D02*
X146922500Y-66470000D01*
X146922500Y-105540000D02*
X146512500Y-105540000D01*
X155552500Y-68479520D02*
X146922500Y-68479520D01*
X155552500Y-109710000D02*
X146922500Y-109710000D01*
X155552500Y-67889045D02*
X146922500Y-67889045D01*
X155552500Y-67180475D02*
X146922500Y-67180475D01*
X155552500Y-67416665D02*
X146922500Y-67416665D01*
X146922500Y-82680000D02*
X146512500Y-82680000D01*
X146922500Y-110620000D02*
X146512500Y-110620000D01*
X155552500Y-68007140D02*
X146922500Y-68007140D01*
X146922500Y-97920000D02*
X146512500Y-97920000D01*
X155552500Y-68125235D02*
X146922500Y-68125235D01*
X146922500Y-90300000D02*
X146512500Y-90300000D01*
X146922500Y-66470000D02*
X146922500Y-122470000D01*
X146922500Y-73240000D02*
X146512500Y-73240000D01*
X146922500Y-95380000D02*
X146512500Y-95380000D01*
X155552500Y-67652855D02*
X146922500Y-67652855D01*
X155552500Y-66944285D02*
X146922500Y-66944285D01*
X146922500Y-68160000D02*
X146572500Y-68160000D01*
X155552500Y-66826190D02*
X146922500Y-66826190D01*
X146922500Y-111340000D02*
X146512500Y-111340000D01*
X146922500Y-96100000D02*
X146512500Y-96100000D01*
X146922500Y-98640000D02*
X146512500Y-98640000D01*
X155552500Y-68715710D02*
X146922500Y-68715710D01*
X146922500Y-91020000D02*
X146512500Y-91020000D01*
X155552500Y-84310000D02*
X146922500Y-84310000D01*
X155552500Y-68243330D02*
X146922500Y-68243330D01*
X146922500Y-93560000D02*
X146512500Y-93560000D01*
X155552500Y-89390000D02*
X146922500Y-89390000D01*
X146922500Y-100460000D02*
X146512500Y-100460000D01*
X146922500Y-85220000D02*
X146512500Y-85220000D01*
X155552500Y-74150000D02*
X146922500Y-74150000D01*
X146922500Y-118240000D02*
X146512500Y-118240000D01*
X146922500Y-83400000D02*
X146512500Y-83400000D01*
X146922500Y-88480000D02*
X146512500Y-88480000D01*
X146922500Y-113880000D02*
X146512500Y-113880000D01*
X146922500Y-115700000D02*
X146512500Y-115700000D01*
X155552500Y-68833805D02*
X146922500Y-68833805D01*
X146922500Y-80140000D02*
X146512500Y-80140000D01*
X155552500Y-114790000D02*
X146922500Y-114790000D01*
X155552500Y-97010000D02*
X146922500Y-97010000D01*
X146922500Y-120780000D02*
X146512500Y-120780000D01*
X155552500Y-66590000D02*
X146922500Y-66590000D01*
X155552500Y-68951900D02*
X146922500Y-68951900D01*
X155552500Y-107170000D02*
X146922500Y-107170000D01*
X155552500Y-66708095D02*
X146922500Y-66708095D01*
X146922500Y-75780000D02*
X146512500Y-75780000D01*
X155552500Y-99550000D02*
X146922500Y-99550000D01*
X146922500Y-75060000D02*
X146512500Y-75060000D01*
X146922500Y-67440000D02*
X146572500Y-67440000D01*
X155552500Y-67770950D02*
X146922500Y-67770950D01*
X155552500Y-79230000D02*
X146922500Y-79230000D01*
X146922500Y-85940000D02*
X146512500Y-85940000D01*
X155552500Y-86850000D02*
X146922500Y-86850000D01*
X155552500Y-76690000D02*
X146922500Y-76690000D01*
X155552500Y-91930000D02*
X146922500Y-91930000D01*
X146922500Y-72520000D02*
X146512500Y-72520000D01*
X146922500Y-116420000D02*
X146512500Y-116420000D01*
X155552500Y-102090000D02*
X146922500Y-102090000D01*
G36*
X132182272Y-91260119D02*
G01*
X132191030Y-91267533D01*
X132207982Y-91308957D01*
X132230178Y-91401283D01*
X132256826Y-91538783D01*
X132287131Y-91715728D01*
X132320299Y-91926390D01*
X132355536Y-92165043D01*
X132392048Y-92425956D01*
X132429041Y-92703403D01*
X132465721Y-92991656D01*
X132501293Y-93284986D01*
X132534965Y-93577665D01*
X132565942Y-93863966D01*
X132593429Y-94138161D01*
X132602786Y-94237892D01*
X132616591Y-94420113D01*
X132628807Y-94643453D01*
X132639289Y-94898159D01*
X132647889Y-95174477D01*
X132654462Y-95462653D01*
X132658863Y-95752932D01*
X132660943Y-96035562D01*
X132660558Y-96300789D01*
X132657562Y-96538857D01*
X132651807Y-96740014D01*
X132643149Y-96894506D01*
X132642678Y-96900336D01*
X132625635Y-97084140D01*
X132605349Y-97265476D01*
X132583231Y-97434886D01*
X132560690Y-97582907D01*
X132539137Y-97700080D01*
X132519983Y-97776945D01*
X132508221Y-97802272D01*
X132461821Y-97816743D01*
X132414118Y-97792868D01*
X132388411Y-97743662D01*
X132387892Y-97735036D01*
X132391807Y-97685904D01*
X132402467Y-97593640D01*
X132418245Y-97471445D01*
X132437513Y-97332518D01*
X132437543Y-97332309D01*
X132453627Y-97182889D01*
X132466809Y-96985101D01*
X132477095Y-96747454D01*
X132484491Y-96478455D01*
X132489002Y-96186613D01*
X132490634Y-95880437D01*
X132489393Y-95568435D01*
X132485284Y-95259116D01*
X132478313Y-94960987D01*
X132468487Y-94682557D01*
X132455809Y-94432335D01*
X132440287Y-94218829D01*
X132435424Y-94166704D01*
X132383764Y-93677010D01*
X132324356Y-93170151D01*
X132259858Y-92667298D01*
X132192925Y-92189625D01*
X132159402Y-91967008D01*
X132132963Y-91792373D01*
X132109892Y-91633079D01*
X132091569Y-91499216D01*
X132079371Y-91400871D01*
X132074676Y-91348133D01*
X132074663Y-91346776D01*
X132092503Y-91285347D01*
X132134256Y-91252455D01*
X132182272Y-91260119D01*
G37*
G36*
X140122808Y-103415943D02*
G01*
X139910144Y-103406019D01*
X139779439Y-103392604D01*
X139658335Y-103374432D01*
X139542462Y-103348922D01*
X139427449Y-103313493D01*
X139308926Y-103265565D01*
X139182522Y-103202555D01*
X139043866Y-103121884D01*
X138888589Y-103020970D01*
X138712319Y-102897232D01*
X138510687Y-102748089D01*
X138279321Y-102570961D01*
X138013851Y-102363266D01*
X137709907Y-102122423D01*
X137633367Y-102061487D01*
X137436767Y-101905577D01*
X137245325Y-101755088D01*
X137065748Y-101615194D01*
X136904740Y-101491069D01*
X136769008Y-101387886D01*
X136665256Y-101310821D01*
X136607245Y-101269731D01*
X136465215Y-101182021D01*
X136327443Y-101115945D01*
X136188928Y-101072492D01*
X136044673Y-101052648D01*
X135889679Y-101057402D01*
X135718946Y-101087741D01*
X135527477Y-101144652D01*
X135310271Y-101229123D01*
X135062332Y-101342143D01*
X134778659Y-101484697D01*
X134454254Y-101657775D01*
X134347569Y-101716169D01*
X134006175Y-101901005D01*
X133704384Y-102057686D01*
X133434399Y-102189626D01*
X133188423Y-102300241D01*
X132958662Y-102392945D01*
X132737317Y-102471155D01*
X132516593Y-102538285D01*
X132397359Y-102570497D01*
X132045676Y-102640849D01*
X131716862Y-102664659D01*
X131413423Y-102643146D01*
X131137865Y-102577528D01*
X130892695Y-102469025D01*
X130680418Y-102318855D01*
X130503541Y-102128236D01*
X130364571Y-101898387D01*
X130266013Y-101630527D01*
X130240215Y-101521660D01*
X130214008Y-101367807D01*
X130200302Y-101215442D01*
X130200274Y-101058361D01*
X130215097Y-100890363D01*
X130245948Y-100705243D01*
X130294003Y-100496799D01*
X130360436Y-100258828D01*
X130446422Y-99985127D01*
X130553139Y-99669493D01*
X130635693Y-99434641D01*
X130709973Y-99220340D01*
X130764488Y-99040777D01*
X130796167Y-98889494D01*
X130801938Y-98760035D01*
X130778727Y-98645943D01*
X130723463Y-98540761D01*
X130633073Y-98438031D01*
X130504484Y-98331298D01*
X130334624Y-98214103D01*
X130120421Y-98079990D01*
X129939013Y-97970528D01*
X129704253Y-97827520D01*
X129510926Y-97703885D01*
X129349886Y-97592823D01*
X129211990Y-97487531D01*
X129088090Y-97381207D01*
X128969041Y-97267051D01*
X128905743Y-97202048D01*
X128768855Y-97047760D01*
X128664556Y-96901860D01*
X128577219Y-96742430D01*
X128575543Y-96738962D01*
X128490519Y-96546454D01*
X128435387Y-96375945D01*
X128404624Y-96204833D01*
X128392707Y-96010516D01*
X128392342Y-95989126D01*
X128399053Y-95805932D01*
X128426756Y-95627309D01*
X128478884Y-95441457D01*
X128558870Y-95236574D01*
X128670146Y-95000859D01*
X128692858Y-94956017D01*
X128781959Y-94780332D01*
X128846932Y-94647352D01*
X128890125Y-94549361D01*
X128913884Y-94478641D01*
X128920556Y-94427474D01*
X128912488Y-94388143D01*
X128892029Y-94352931D01*
X128880784Y-94338123D01*
X128837847Y-94297382D01*
X128756993Y-94232774D01*
X128647946Y-94151631D01*
X128520433Y-94061287D01*
X128447232Y-94011197D01*
X128209584Y-93842204D01*
X128020058Y-93687903D01*
X127873354Y-93543245D01*
X127764174Y-93403186D01*
X127708447Y-93307576D01*
X127594929Y-93038384D01*
X127517681Y-92756527D01*
X127479536Y-92476764D01*
X127481899Y-92312980D01*
X127705526Y-92312980D01*
X127705873Y-92401233D01*
X127708595Y-92559651D01*
X127716073Y-92678722D01*
X127730789Y-92776006D01*
X127755224Y-92869061D01*
X127783919Y-92953602D01*
X127851336Y-93123087D01*
X127925348Y-93266704D01*
X128013917Y-93393407D01*
X128125004Y-93512154D01*
X128266572Y-93631899D01*
X128446583Y-93761597D01*
X128582670Y-93852032D01*
X128766435Y-93975920D01*
X128905467Y-94080447D01*
X129006160Y-94171344D01*
X129074906Y-94254343D01*
X129116063Y-94330163D01*
X129133979Y-94408203D01*
X129126375Y-94502443D01*
X129091057Y-94619934D01*
X129025832Y-94767728D01*
X128928503Y-94952877D01*
X128914388Y-94978251D01*
X128808301Y-95174308D01*
X128730254Y-95337100D01*
X128676197Y-95480406D01*
X128642078Y-95618011D01*
X128623845Y-95763695D01*
X128617448Y-95931240D01*
X128617234Y-95989126D01*
X128618835Y-96141994D01*
X128624499Y-96253717D01*
X128636531Y-96340070D01*
X128657235Y-96416832D01*
X128688916Y-96499778D01*
X128693374Y-96510443D01*
X128836916Y-96780706D01*
X129033569Y-97037229D01*
X129280471Y-97276779D01*
X129552618Y-97481451D01*
X129648196Y-97543613D01*
X129778738Y-97626123D01*
X129930245Y-97720253D01*
X130088714Y-97817270D01*
X130169760Y-97866285D01*
X130388967Y-98001552D01*
X130563493Y-98117392D01*
X130699994Y-98219029D01*
X130805129Y-98311688D01*
X130885555Y-98400593D01*
X130930793Y-98463510D01*
X130968847Y-98528230D01*
X130991408Y-98589820D01*
X131002177Y-98666280D01*
X131004856Y-98775609D01*
X131004590Y-98822422D01*
X131002470Y-98911446D01*
X130996118Y-98989956D01*
X130982817Y-99068824D01*
X130959852Y-99158924D01*
X130924508Y-99271127D01*
X130874068Y-99416307D01*
X130816113Y-99577018D01*
X130711053Y-99869872D01*
X130625656Y-100117578D01*
X130558030Y-100327701D01*
X130506284Y-100507806D01*
X130468526Y-100665458D01*
X130442865Y-100808224D01*
X130427408Y-100943668D01*
X130420264Y-101079356D01*
X130419180Y-101164472D01*
X130437474Y-101409970D01*
X130489815Y-101645240D01*
X130571943Y-101856774D01*
X130679591Y-102031064D01*
X130700865Y-102056878D01*
X130831548Y-102177806D01*
X130997851Y-102286781D01*
X131178461Y-102370458D01*
X131229361Y-102387745D01*
X131496653Y-102442160D01*
X131796243Y-102449919D01*
X132127868Y-102411090D01*
X132491265Y-102325742D01*
X132886173Y-102193942D01*
X133312329Y-102015759D01*
X133769469Y-101791262D01*
X134000028Y-101666960D01*
X134324715Y-101488918D01*
X134605547Y-101338857D01*
X134846961Y-101214574D01*
X135053395Y-101113865D01*
X135229287Y-101034526D01*
X135379074Y-100974353D01*
X135435170Y-100954299D01*
X135579289Y-100907965D01*
X135697107Y-100879800D01*
X135814603Y-100865390D01*
X135957760Y-100860323D01*
X135990022Y-100860052D01*
X136084847Y-100860471D01*
X136170688Y-100864610D01*
X136251864Y-100875046D01*
X136332691Y-100894358D01*
X136417486Y-100925123D01*
X136510565Y-100969920D01*
X136616246Y-101031325D01*
X136738846Y-101111916D01*
X136882680Y-101214272D01*
X137052067Y-101340970D01*
X137251323Y-101494588D01*
X137484765Y-101677704D01*
X137756710Y-101892895D01*
X137869394Y-101982305D01*
X138169687Y-102220115D01*
X138430496Y-102424618D01*
X138656623Y-102598319D01*
X138852869Y-102743719D01*
X139024035Y-102863320D01*
X139174924Y-102959626D01*
X139310335Y-103035139D01*
X139435072Y-103092360D01*
X139553934Y-103133794D01*
X139671724Y-103161941D01*
X139793243Y-103179305D01*
X139923292Y-103188389D01*
X140066672Y-103191694D01*
X140190134Y-103191872D01*
X140385087Y-103189863D01*
X140536732Y-103184453D01*
X140658673Y-103174432D01*
X140764511Y-103158588D01*
X140867847Y-103135710D01*
X140892696Y-103129324D01*
X141157996Y-103043164D01*
X141374395Y-102934662D01*
X141547025Y-102799469D01*
X141681022Y-102633233D01*
X141781516Y-102431604D01*
X141809613Y-102352214D01*
X141832811Y-102279534D01*
X141853002Y-102211990D01*
X141870433Y-102145170D01*
X141885350Y-102074664D01*
X141897998Y-101996060D01*
X141908625Y-101904946D01*
X141917476Y-101796912D01*
X141924798Y-101667547D01*
X141930837Y-101512438D01*
X141935840Y-101327176D01*
X141940051Y-101107348D01*
X141943718Y-100848543D01*
X141947088Y-100546351D01*
X141950405Y-100196360D01*
X141953917Y-99794158D01*
X141954192Y-99762108D01*
X141958243Y-99245470D01*
X141961850Y-98694699D01*
X141965013Y-98114935D01*
X141967730Y-97511319D01*
X141970002Y-96888994D01*
X141971827Y-96253101D01*
X141973205Y-95608781D01*
X141974135Y-94961176D01*
X141974615Y-94315427D01*
X141974646Y-93676676D01*
X141974227Y-93050064D01*
X141973356Y-92440733D01*
X141972033Y-91853825D01*
X141970258Y-91294480D01*
X141968029Y-90767841D01*
X141965345Y-90279049D01*
X141962207Y-89833245D01*
X141958613Y-89435572D01*
X141955762Y-89183520D01*
X141950958Y-88803545D01*
X141946488Y-88475671D01*
X141942005Y-88195055D01*
X141937164Y-87956851D01*
X141931616Y-87756215D01*
X141925017Y-87588301D01*
X141917019Y-87448265D01*
X141907275Y-87331263D01*
X141895439Y-87232449D01*
X141881165Y-87146979D01*
X141864105Y-87070008D01*
X141843914Y-86996691D01*
X141820244Y-86922184D01*
X141792749Y-86841642D01*
X141787037Y-86825182D01*
X141662622Y-86549324D01*
X141494275Y-86307842D01*
X141284655Y-86102362D01*
X141036423Y-85934510D01*
X140752239Y-85805913D01*
X140434762Y-85718196D01*
X140086653Y-85672987D01*
X139892368Y-85666816D01*
X139494242Y-85692189D01*
X139076707Y-85767181D01*
X138645063Y-85890098D01*
X138204612Y-86059247D01*
X137760654Y-86272937D01*
X137456502Y-86444598D01*
X137343249Y-86513922D01*
X137228462Y-86587621D01*
X137105591Y-86670333D01*
X136968084Y-86766697D01*
X136809393Y-86881353D01*
X136622965Y-87018939D01*
X136402251Y-87184094D01*
X136246300Y-87301627D01*
X135968733Y-87504719D01*
X135726405Y-87667791D01*
X135516029Y-87792765D01*
X135334320Y-87881563D01*
X135177991Y-87936109D01*
X135150000Y-87942961D01*
X135016282Y-87962121D01*
X134843013Y-87970714D01*
X134646559Y-87968973D01*
X134443287Y-87957136D01*
X134249561Y-87935436D01*
X134210314Y-87929437D01*
X134087054Y-87907818D01*
X133944365Y-87879369D01*
X133778053Y-87843060D01*
X133583924Y-87797860D01*
X133357786Y-87742740D01*
X133095446Y-87676668D01*
X132792710Y-87598615D01*
X132445386Y-87507550D01*
X132049279Y-87402443D01*
X131861098Y-87352188D01*
X131392624Y-87227939D01*
X130975013Y-87119641D01*
X130604652Y-87026654D01*
X130277925Y-86948332D01*
X129991218Y-86884034D01*
X129740915Y-86833117D01*
X129523402Y-86794937D01*
X129335063Y-86768852D01*
X129172284Y-86754218D01*
X129031450Y-86750394D01*
X128908945Y-86756736D01*
X128801156Y-86772600D01*
X128718045Y-86793199D01*
X128545494Y-86871933D01*
X128405664Y-86992082D01*
X128300083Y-87147412D01*
X128230275Y-87331692D01*
X128197766Y-87538690D01*
X128204081Y-87762174D01*
X128250746Y-87995911D01*
X128339287Y-88233671D01*
X128356568Y-88269894D01*
X128435431Y-88416821D01*
X128524342Y-88552797D01*
X128630384Y-88685727D01*
X128760640Y-88823511D01*
X128922192Y-88974052D01*
X129122122Y-89145253D01*
X129195121Y-89205494D01*
X129384523Y-89363239D01*
X129532614Y-89493601D01*
X129644194Y-89602615D01*
X129724068Y-89696318D01*
X129777037Y-89780746D01*
X129807903Y-89861934D01*
X129821468Y-89945919D01*
X129823293Y-89995067D01*
X129812603Y-90108527D01*
X129777209Y-90219295D01*
X129713660Y-90330636D01*
X129618510Y-90445816D01*
X129488310Y-90568099D01*
X129319612Y-90700752D01*
X129108969Y-90847040D01*
X128852931Y-91010228D01*
X128573657Y-91178486D01*
X128330495Y-91330837D01*
X128136010Y-91473287D01*
X127984064Y-91611377D01*
X127868518Y-91750650D01*
X127787081Y-91888677D01*
X127751426Y-91965333D01*
X127727797Y-92031230D01*
X127713841Y-92101230D01*
X127707202Y-92190193D01*
X127705526Y-92312980D01*
X127481899Y-92312980D01*
X127483329Y-92213851D01*
X127489190Y-92165853D01*
X127529881Y-91971603D01*
X127596949Y-91794405D01*
X127694870Y-91629246D01*
X127828120Y-91471115D01*
X128001177Y-91314998D01*
X128218516Y-91155885D01*
X128484615Y-90988764D01*
X128600672Y-90921417D01*
X128853970Y-90770354D01*
X129078915Y-90622605D01*
X129270455Y-90482067D01*
X129423541Y-90352639D01*
X129533123Y-90238220D01*
X129585558Y-90161111D01*
X129618991Y-90073010D01*
X129623468Y-89986317D01*
X129595701Y-89895858D01*
X129532403Y-89796463D01*
X129430284Y-89682958D01*
X129286057Y-89550171D01*
X129098001Y-89394188D01*
X128812443Y-89152898D01*
X128576206Y-88925698D01*
X128385036Y-88707361D01*
X128234681Y-88492657D01*
X128120888Y-88276359D01*
X128059461Y-88117462D01*
X127995638Y-87851981D01*
X127980003Y-87591710D01*
X128011159Y-87343812D01*
X128087709Y-87115449D01*
X128208255Y-86913785D01*
X128318073Y-86792333D01*
X128425108Y-86701260D01*
X128528315Y-86637612D01*
X128642699Y-86595983D01*
X128783265Y-86570966D01*
X128965018Y-86557156D01*
X128971696Y-86556838D01*
X129130803Y-86554627D01*
X129304829Y-86562979D01*
X129498457Y-86582780D01*
X129716370Y-86614917D01*
X129963250Y-86660276D01*
X130243781Y-86719743D01*
X130562644Y-86794206D01*
X130924524Y-86884549D01*
X131334102Y-86991660D01*
X131491645Y-87033828D01*
X131938774Y-87153993D01*
X132334892Y-87260055D01*
X132683931Y-87352893D01*
X132989825Y-87433388D01*
X133256506Y-87502420D01*
X133487907Y-87560868D01*
X133687961Y-87609612D01*
X133860601Y-87649533D01*
X134009761Y-87681510D01*
X134139371Y-87706424D01*
X134253367Y-87725155D01*
X134355680Y-87738582D01*
X134450244Y-87747586D01*
X134540991Y-87753047D01*
X134631854Y-87755844D01*
X134722870Y-87756841D01*
X134877701Y-87756440D01*
X134990619Y-87752203D01*
X135076631Y-87742078D01*
X135150746Y-87724016D01*
X135227972Y-87695966D01*
X135257602Y-87683790D01*
X135368547Y-87634535D01*
X135476274Y-87579572D01*
X135588730Y-87513717D01*
X135713866Y-87431787D01*
X135859628Y-87328597D01*
X136033966Y-87198966D01*
X136225833Y-87052352D01*
X136687708Y-86709326D01*
X137124188Y-86412503D01*
X137539901Y-86159690D01*
X137939474Y-85948695D01*
X138327534Y-85777327D01*
X138708709Y-85643393D01*
X139087626Y-85544701D01*
X139468914Y-85479059D01*
X139573222Y-85466680D01*
X139897364Y-85451740D01*
X140228665Y-85473258D01*
X140552170Y-85528808D01*
X140852922Y-85615965D01*
X141073289Y-85709934D01*
X141332029Y-85871475D01*
X141564096Y-86078127D01*
X141760960Y-86321017D01*
X141907967Y-86578027D01*
X141953414Y-86671208D01*
X141991708Y-86742419D01*
X142015042Y-86777204D01*
X142015959Y-86777934D01*
X142052275Y-86831223D01*
X142082707Y-86931556D01*
X142104883Y-87069137D01*
X142114355Y-87184769D01*
X142123417Y-87297888D01*
X142136513Y-87393269D01*
X142151052Y-87452798D01*
X142153392Y-87457884D01*
X142156231Y-87491220D01*
X142158924Y-87578396D01*
X142161472Y-87716489D01*
X142163872Y-87902576D01*
X142166127Y-88133736D01*
X142168234Y-88407043D01*
X142170195Y-88719576D01*
X142172008Y-89068411D01*
X142173674Y-89450626D01*
X142175193Y-89863298D01*
X142176564Y-90303503D01*
X142177787Y-90768320D01*
X142178861Y-91254823D01*
X142179788Y-91760092D01*
X142180566Y-92281202D01*
X142181195Y-92815231D01*
X142181675Y-93359257D01*
X142182005Y-93910355D01*
X142182187Y-94465603D01*
X142182219Y-95022078D01*
X142182101Y-95576857D01*
X142181833Y-96127017D01*
X142181415Y-96669636D01*
X142180846Y-97201789D01*
X142180127Y-97720555D01*
X142179257Y-98223010D01*
X142178236Y-98706231D01*
X142177063Y-99167296D01*
X142175740Y-99603281D01*
X142174264Y-100011264D01*
X142172637Y-100388321D01*
X142170858Y-100731529D01*
X142168926Y-101037967D01*
X142166842Y-101304709D01*
X142164605Y-101528835D01*
X142162215Y-101707420D01*
X142159673Y-101837541D01*
X142156977Y-101916277D01*
X142154409Y-101940795D01*
X142133100Y-101979613D01*
X142126457Y-102030393D01*
X142114879Y-102108379D01*
X142087495Y-102192445D01*
X142057107Y-102269835D01*
X142019964Y-102374457D01*
X141994950Y-102450042D01*
X141895007Y-102677291D01*
X141750896Y-102883700D01*
X141572289Y-103057721D01*
X141383018Y-103180719D01*
X141185475Y-103261825D01*
X140946549Y-103328063D01*
X140680375Y-103377269D01*
X140401083Y-103407283D01*
X140190134Y-103413848D01*
X140122808Y-103415943D01*
G37*
G36*
X130587623Y-92839297D02*
G01*
X130549008Y-92781347D01*
X130516261Y-92665224D01*
X130517460Y-92657511D01*
X130679372Y-92657511D01*
X130702780Y-92728412D01*
X130760600Y-92767666D01*
X130834225Y-92764418D01*
X130850224Y-92757175D01*
X130896865Y-92704263D01*
X130907175Y-92657511D01*
X130884166Y-92588537D01*
X130850224Y-92557848D01*
X130775635Y-92544112D01*
X130712875Y-92575196D01*
X130680552Y-92640247D01*
X130679372Y-92657511D01*
X130517460Y-92657511D01*
X130533179Y-92556348D01*
X130592627Y-92466131D01*
X130687472Y-92405987D01*
X130795525Y-92386996D01*
X130917407Y-92411755D01*
X131008236Y-92481966D01*
X131061159Y-92591526D01*
X131068475Y-92630056D01*
X131072574Y-92711184D01*
X131051254Y-92771677D01*
X130998339Y-92836458D01*
X130897179Y-92909702D01*
X130786351Y-92933528D01*
X130760600Y-92927780D01*
X130678837Y-92909529D01*
X130587623Y-92839297D01*
G37*
G36*
X130993481Y-96294343D02*
G01*
X130936040Y-96189603D01*
X130935068Y-96186690D01*
X130921793Y-96080126D01*
X131086357Y-96080126D01*
X131092703Y-96147121D01*
X131132585Y-96201863D01*
X131192116Y-96218205D01*
X131252741Y-96199985D01*
X131295910Y-96151040D01*
X131305829Y-96103027D01*
X131284249Y-96035884D01*
X131250941Y-96004467D01*
X131175608Y-95988658D01*
X131116352Y-96017839D01*
X131086357Y-96080126D01*
X130921793Y-96080126D01*
X130920417Y-96069083D01*
X130951093Y-95968152D01*
X131016423Y-95890205D01*
X131105735Y-95841552D01*
X131208357Y-95828500D01*
X131313617Y-95857357D01*
X131393446Y-95915747D01*
X131462322Y-96018571D01*
X131476160Y-96129745D01*
X131434780Y-96242333D01*
X131402962Y-96285932D01*
X131340444Y-96345804D01*
X131271212Y-96370254D01*
X131209970Y-96373543D01*
X131192116Y-96370850D01*
X131082914Y-96354380D01*
X130993481Y-96294343D01*
G37*
%LPC*%
D12*
X105750000Y-105000000D03*
X105750000Y-104000000D03*
X105750000Y-103000000D03*
X105750000Y-102000000D03*
X105750000Y-101000000D03*
X105750000Y-100000000D03*
X105750000Y-99000000D03*
X105750000Y-98000000D03*
X105750000Y-97000000D03*
X105750000Y-96000000D03*
X105750000Y-95000000D03*
X105750000Y-94000000D03*
X105750000Y-93000000D03*
X105750000Y-92000000D03*
X105750000Y-91000000D03*
X105750000Y-90000000D03*
X105750000Y-89000000D03*
X105750000Y-88000000D03*
X105750000Y-87000000D03*
X105750000Y-86000000D03*
X105750000Y-85000000D03*
D13*
X105750000Y-84000000D03*
D14*
X145462500Y-67800000D03*
D15*
X145462500Y-70340000D03*
X145462500Y-72880000D03*
X145462500Y-75420000D03*
X145462500Y-77960000D03*
X145462500Y-80500000D03*
X145462500Y-83040000D03*
X145462500Y-85580000D03*
X145462500Y-88120000D03*
X145462500Y-90660000D03*
X145462500Y-93200000D03*
X145462500Y-95740000D03*
X145462500Y-98280000D03*
X145462500Y-100820000D03*
X145462500Y-103360000D03*
X145462500Y-105900000D03*
X145462500Y-108440000D03*
X145462500Y-110980000D03*
X145462500Y-113520000D03*
X145462500Y-116060000D03*
X145462500Y-118600000D03*
X145462500Y-121140000D03*
M02*
