G04 #@! TF.GenerationSoftware,KiCad,Pcbnew,(6.0.6)*
G04 #@! TF.CreationDate,2022-06-27T20:12:47-07:00*
G04 #@! TF.ProjectId,adapter,61646170-7465-4722-9e6b-696361645f70,rev?*
G04 #@! TF.SameCoordinates,Original*
G04 #@! TF.FileFunction,Copper,L2,Bot*
G04 #@! TF.FilePolarity,Positive*
%FSLAX46Y46*%
G04 Gerber Fmt 4.6, Leading zero omitted, Abs format (unit mm)*
G04 Created by KiCad (PCBNEW (6.0.6)) date 2022-06-27 20:12:47*
%MOMM*%
%LPD*%
G01*
G04 APERTURE LIST*
G04 #@! TA.AperFunction,ComponentPad*
%ADD10O,0.850000X0.850000*%
G04 #@! TD*
G04 #@! TA.AperFunction,ComponentPad*
%ADD11R,0.850000X0.850000*%
G04 #@! TD*
G04 #@! TA.AperFunction,ComponentPad*
%ADD12R,1.700000X1.700000*%
G04 #@! TD*
G04 #@! TA.AperFunction,ComponentPad*
%ADD13O,1.700000X1.700000*%
G04 #@! TD*
G04 APERTURE END LIST*
D10*
X105750000Y-105000000D03*
X105750000Y-104000000D03*
X105750000Y-103000000D03*
X105750000Y-102000000D03*
X105750000Y-101000000D03*
X105750000Y-100000000D03*
X105750000Y-99000000D03*
X105750000Y-98000000D03*
X105750000Y-97000000D03*
X105750000Y-96000000D03*
X105750000Y-95000000D03*
X105750000Y-94000000D03*
X105750000Y-93000000D03*
X105750000Y-92000000D03*
X105750000Y-91000000D03*
X105750000Y-90000000D03*
X105750000Y-89000000D03*
X105750000Y-88000000D03*
X105750000Y-87000000D03*
X105750000Y-86000000D03*
X105750000Y-85000000D03*
D11*
X105750000Y-84000000D03*
D12*
X145462500Y-67800000D03*
D13*
X145462500Y-70340000D03*
X145462500Y-72880000D03*
X145462500Y-75420000D03*
X145462500Y-77960000D03*
X145462500Y-80500000D03*
X145462500Y-83040000D03*
X145462500Y-85580000D03*
X145462500Y-88120000D03*
X145462500Y-90660000D03*
X145462500Y-93200000D03*
X145462500Y-95740000D03*
X145462500Y-98280000D03*
X145462500Y-100820000D03*
X145462500Y-103360000D03*
X145462500Y-105900000D03*
X145462500Y-108440000D03*
X145462500Y-110980000D03*
X145462500Y-113520000D03*
X145462500Y-116060000D03*
X145462500Y-118600000D03*
X145462500Y-121140000D03*
M02*
