M48
; DRILL file {KiCad (6.0.6)} date Mon Jun 27 20:18:17 2022
; FORMAT={-:-/ absolute / metric / decimal}
; #@! TF.CreationDate,2022-06-27T20:18:17-07:00
; #@! TF.GenerationSoftware,Kicad,Pcbnew,(6.0.6)
; #@! TF.FileFunction,Plated,1,2,PTH
FMAT,2
METRIC
; #@! TA.AperFunction,Plated,PTH,ComponentDrill
T1C0.500
; #@! TA.AperFunction,Plated,PTH,ComponentDrill
T2C1.000
%
G90
G05
T1
X105.75Y-84.0
X105.75Y-85.0
X105.75Y-86.0
X105.75Y-87.0
X105.75Y-88.0
X105.75Y-89.0
X105.75Y-90.0
X105.75Y-91.0
X105.75Y-92.0
X105.75Y-93.0
X105.75Y-94.0
X105.75Y-95.0
X105.75Y-96.0
X105.75Y-97.0
X105.75Y-98.0
X105.75Y-99.0
X105.75Y-100.0
X105.75Y-101.0
X105.75Y-102.0
X105.75Y-103.0
X105.75Y-104.0
X105.75Y-105.0
T2
X145.463Y-67.8
X145.463Y-70.34
X145.463Y-72.88
X145.463Y-75.42
X145.463Y-77.96
X145.463Y-80.5
X145.463Y-83.04
X145.463Y-85.58
X145.463Y-88.12
X145.463Y-90.66
X145.463Y-93.2
X145.463Y-95.74
X145.463Y-98.28
X145.463Y-100.82
X145.463Y-103.36
X145.463Y-105.9
X145.463Y-108.44
X145.463Y-110.98
X145.463Y-113.52
X145.463Y-116.06
X145.463Y-118.6
X145.463Y-121.14
T0
M30
