G04 #@! TF.GenerationSoftware,KiCad,Pcbnew,(6.0.6)*
G04 #@! TF.CreationDate,2022-06-27T20:25:50-07:00*
G04 #@! TF.ProjectId,adapter,61646170-7465-4722-9e6b-696361645f70,rev?*
G04 #@! TF.SameCoordinates,Original*
G04 #@! TF.FileFunction,Legend,Bot*
G04 #@! TF.FilePolarity,Positive*
%FSLAX46Y46*%
G04 Gerber Fmt 4.6, Leading zero omitted, Abs format (unit mm)*
G04 Created by KiCad (PCBNEW (6.0.6)) date 2022-06-27 20:25:50*
%MOMM*%
%LPD*%
G01*
G04 APERTURE LIST*
%ADD10C,0.300000*%
%ADD11O,0.850000X0.850000*%
%ADD12R,0.850000X0.850000*%
%ADD13R,1.700000X1.700000*%
%ADD14O,1.700000X1.700000*%
G04 APERTURE END LIST*
D10*
X108321428Y-87571428D02*
X107250000Y-87571428D01*
X107035714Y-87500000D01*
X106892857Y-87357142D01*
X106821428Y-87142857D01*
X106821428Y-87000000D01*
X106821428Y-89000000D02*
X106821428Y-88285714D01*
X108321428Y-88285714D01*
X106964285Y-90357142D02*
X106892857Y-90285714D01*
X106821428Y-90071428D01*
X106821428Y-89928571D01*
X106892857Y-89714285D01*
X107035714Y-89571428D01*
X107178571Y-89500000D01*
X107464285Y-89428571D01*
X107678571Y-89428571D01*
X107964285Y-89500000D01*
X108107142Y-89571428D01*
X108250000Y-89714285D01*
X108321428Y-89928571D01*
X108321428Y-90071428D01*
X108250000Y-90285714D01*
X108178571Y-90357142D01*
X108321428Y-91428571D02*
X107250000Y-91428571D01*
X107035714Y-91357142D01*
X106892857Y-91214285D01*
X106821428Y-91000000D01*
X106821428Y-90857142D01*
X106821428Y-92857142D02*
X106821428Y-92142857D01*
X108321428Y-92142857D01*
X106964285Y-94214285D02*
X106892857Y-94142857D01*
X106821428Y-93928571D01*
X106821428Y-93785714D01*
X106892857Y-93571428D01*
X107035714Y-93428571D01*
X107178571Y-93357142D01*
X107464285Y-93285714D01*
X107678571Y-93285714D01*
X107964285Y-93357142D01*
X108107142Y-93428571D01*
X108250000Y-93571428D01*
X108321428Y-93785714D01*
X108321428Y-93928571D01*
X108250000Y-94142857D01*
X108178571Y-94214285D01*
X108321428Y-95285714D02*
X107250000Y-95285714D01*
X107035714Y-95214285D01*
X106892857Y-95071428D01*
X106821428Y-94857142D01*
X106821428Y-94714285D01*
X106821428Y-96714285D02*
X106821428Y-96000000D01*
X108321428Y-96000000D01*
X106964285Y-98071428D02*
X106892857Y-98000000D01*
X106821428Y-97785714D01*
X106821428Y-97642857D01*
X106892857Y-97428571D01*
X107035714Y-97285714D01*
X107178571Y-97214285D01*
X107464285Y-97142857D01*
X107678571Y-97142857D01*
X107964285Y-97214285D01*
X108107142Y-97285714D01*
X108250000Y-97428571D01*
X108321428Y-97642857D01*
X108321428Y-97785714D01*
X108250000Y-98000000D01*
X108178571Y-98071428D01*
X108321428Y-99142857D02*
X107250000Y-99142857D01*
X107035714Y-99071428D01*
X106892857Y-98928571D01*
X106821428Y-98714285D01*
X106821428Y-98571428D01*
X106821428Y-100571428D02*
X106821428Y-99857142D01*
X108321428Y-99857142D01*
X106964285Y-101928571D02*
X106892857Y-101857142D01*
X106821428Y-101642857D01*
X106821428Y-101500000D01*
X106892857Y-101285714D01*
X107035714Y-101142857D01*
X107178571Y-101071428D01*
X107464285Y-101000000D01*
X107678571Y-101000000D01*
X107964285Y-101071428D01*
X108107142Y-101142857D01*
X108250000Y-101285714D01*
X108321428Y-101500000D01*
X108321428Y-101642857D01*
X108250000Y-101857142D01*
X108178571Y-101928571D01*
G36*
X140649498Y-85555703D02*
G01*
X140915672Y-85604909D01*
X141154598Y-85671147D01*
X141352141Y-85752253D01*
X141541412Y-85875251D01*
X141720019Y-86049272D01*
X141864130Y-86255681D01*
X141964073Y-86482930D01*
X141989087Y-86558515D01*
X142026230Y-86663137D01*
X142056618Y-86740527D01*
X142084002Y-86824593D01*
X142095580Y-86902579D01*
X142102223Y-86953359D01*
X142123532Y-86992177D01*
X142126100Y-87016695D01*
X142128796Y-87095431D01*
X142131338Y-87225552D01*
X142133728Y-87404137D01*
X142135965Y-87628263D01*
X142138049Y-87895005D01*
X142139981Y-88201443D01*
X142141760Y-88544651D01*
X142143387Y-88921708D01*
X142144863Y-89329691D01*
X142146186Y-89765676D01*
X142147359Y-90226741D01*
X142148380Y-90709962D01*
X142149250Y-91212417D01*
X142149969Y-91731183D01*
X142150538Y-92263336D01*
X142150956Y-92805955D01*
X142151224Y-93356115D01*
X142151342Y-93910894D01*
X142151310Y-94467369D01*
X142151128Y-95022617D01*
X142150798Y-95573715D01*
X142150318Y-96117741D01*
X142149689Y-96651770D01*
X142148911Y-97172880D01*
X142147984Y-97678149D01*
X142146910Y-98164652D01*
X142145687Y-98629469D01*
X142144316Y-99069674D01*
X142142797Y-99482346D01*
X142141131Y-99864561D01*
X142139318Y-100213396D01*
X142137357Y-100525929D01*
X142135250Y-100799236D01*
X142132995Y-101030396D01*
X142130595Y-101216483D01*
X142128047Y-101354576D01*
X142125354Y-101441752D01*
X142122515Y-101475088D01*
X142120175Y-101480174D01*
X142105636Y-101539703D01*
X142092540Y-101635084D01*
X142083478Y-101748203D01*
X142074006Y-101863835D01*
X142051830Y-102001416D01*
X142021398Y-102101749D01*
X141985082Y-102155038D01*
X141984165Y-102155768D01*
X141960831Y-102190553D01*
X141922537Y-102261764D01*
X141877090Y-102354945D01*
X141730083Y-102611955D01*
X141533219Y-102854845D01*
X141301152Y-103061497D01*
X141042412Y-103223038D01*
X140822045Y-103317007D01*
X140521293Y-103404164D01*
X140197788Y-103459714D01*
X139866487Y-103481232D01*
X139542345Y-103466292D01*
X139438037Y-103453913D01*
X139056749Y-103388271D01*
X138677832Y-103289579D01*
X138296657Y-103155645D01*
X137908597Y-102984277D01*
X137509024Y-102773282D01*
X137093311Y-102520469D01*
X136656831Y-102223646D01*
X136194956Y-101880620D01*
X136003089Y-101734006D01*
X135828751Y-101604375D01*
X135682989Y-101501185D01*
X135557853Y-101419255D01*
X135445397Y-101353400D01*
X135337670Y-101298437D01*
X135226725Y-101249182D01*
X135197095Y-101237006D01*
X135119869Y-101208956D01*
X135045754Y-101190894D01*
X134959742Y-101180769D01*
X134846824Y-101176532D01*
X134691993Y-101176131D01*
X134600977Y-101177128D01*
X134510114Y-101179925D01*
X134419367Y-101185386D01*
X134324803Y-101194390D01*
X134222490Y-101207817D01*
X134108494Y-101226548D01*
X133978884Y-101251462D01*
X133829724Y-101283439D01*
X133657084Y-101323360D01*
X133457030Y-101372104D01*
X133225629Y-101430552D01*
X132958948Y-101499584D01*
X132653054Y-101580079D01*
X132304015Y-101672917D01*
X131907897Y-101778979D01*
X131460768Y-101899144D01*
X131303225Y-101941312D01*
X130893647Y-102048423D01*
X130531767Y-102138766D01*
X130212904Y-102213229D01*
X129932373Y-102272696D01*
X129685493Y-102318055D01*
X129467580Y-102350192D01*
X129273952Y-102369993D01*
X129099926Y-102378345D01*
X128940819Y-102376134D01*
X128934141Y-102375816D01*
X128752388Y-102362006D01*
X128611822Y-102336989D01*
X128497438Y-102295360D01*
X128394231Y-102231712D01*
X128287196Y-102140639D01*
X128177378Y-102019187D01*
X128056832Y-101817523D01*
X127980282Y-101589160D01*
X127949126Y-101341262D01*
X127964761Y-101080991D01*
X128028584Y-100815510D01*
X128090011Y-100656613D01*
X128203804Y-100440315D01*
X128354159Y-100225611D01*
X128545329Y-100007274D01*
X128781566Y-99780074D01*
X129067124Y-99538784D01*
X129255180Y-99382801D01*
X129399407Y-99250014D01*
X129501526Y-99136509D01*
X129564824Y-99037114D01*
X129592591Y-98946655D01*
X129588114Y-98859962D01*
X129554681Y-98771861D01*
X129502246Y-98694752D01*
X129392664Y-98580333D01*
X129239578Y-98450905D01*
X129048038Y-98310367D01*
X128823093Y-98162618D01*
X128569795Y-98011555D01*
X128453738Y-97944208D01*
X128187639Y-97777087D01*
X127970300Y-97617974D01*
X127797243Y-97461857D01*
X127663993Y-97303726D01*
X127566072Y-97138567D01*
X127499004Y-96961369D01*
X127458313Y-96767119D01*
X127452452Y-96719121D01*
X127451022Y-96619992D01*
X127674649Y-96619992D01*
X127676325Y-96742779D01*
X127682964Y-96831742D01*
X127696920Y-96901742D01*
X127720549Y-96967639D01*
X127756204Y-97044295D01*
X127837641Y-97182322D01*
X127953187Y-97321595D01*
X128105133Y-97459685D01*
X128299618Y-97602135D01*
X128542780Y-97754486D01*
X128822054Y-97922744D01*
X129078092Y-98085932D01*
X129288735Y-98232220D01*
X129457433Y-98364873D01*
X129587633Y-98487156D01*
X129682783Y-98602336D01*
X129746332Y-98713677D01*
X129781726Y-98824445D01*
X129792416Y-98937905D01*
X129790591Y-98987053D01*
X129777026Y-99071038D01*
X129746160Y-99152226D01*
X129693191Y-99236654D01*
X129613317Y-99330357D01*
X129501737Y-99439371D01*
X129353646Y-99569733D01*
X129164244Y-99727478D01*
X129091245Y-99787719D01*
X128891315Y-99958920D01*
X128729763Y-100109461D01*
X128599507Y-100247245D01*
X128493465Y-100380175D01*
X128404554Y-100516151D01*
X128325691Y-100663078D01*
X128308410Y-100699301D01*
X128219869Y-100937061D01*
X128173204Y-101170798D01*
X128166889Y-101394282D01*
X128199398Y-101601280D01*
X128269206Y-101785560D01*
X128374787Y-101940890D01*
X128514617Y-102061039D01*
X128687168Y-102139773D01*
X128770279Y-102160372D01*
X128878068Y-102176236D01*
X129000573Y-102182578D01*
X129141407Y-102178754D01*
X129304186Y-102164120D01*
X129492525Y-102138035D01*
X129710038Y-102099855D01*
X129960341Y-102048938D01*
X130247048Y-101984640D01*
X130573775Y-101906318D01*
X130944136Y-101813331D01*
X131361747Y-101705033D01*
X131830221Y-101580784D01*
X132018402Y-101530529D01*
X132414509Y-101425422D01*
X132761833Y-101334357D01*
X133064569Y-101256304D01*
X133326909Y-101190232D01*
X133553047Y-101135112D01*
X133747176Y-101089912D01*
X133913488Y-101053603D01*
X134056177Y-101025154D01*
X134179437Y-101003535D01*
X134218684Y-100997536D01*
X134412410Y-100975836D01*
X134615682Y-100963999D01*
X134812136Y-100962258D01*
X134985405Y-100970851D01*
X135119123Y-100990011D01*
X135147114Y-100996863D01*
X135303443Y-101051409D01*
X135485152Y-101140207D01*
X135695528Y-101265181D01*
X135937856Y-101428253D01*
X136215423Y-101631345D01*
X136371374Y-101748878D01*
X136592088Y-101914033D01*
X136778516Y-102051619D01*
X136937207Y-102166275D01*
X137074714Y-102262639D01*
X137197585Y-102345351D01*
X137312372Y-102419050D01*
X137425625Y-102488374D01*
X137729777Y-102660035D01*
X138173735Y-102873725D01*
X138614186Y-103042874D01*
X139045830Y-103165791D01*
X139463365Y-103240783D01*
X139861491Y-103266156D01*
X140055776Y-103259985D01*
X140403885Y-103214776D01*
X140721362Y-103127059D01*
X141005546Y-102998462D01*
X141253778Y-102830610D01*
X141463398Y-102625130D01*
X141631745Y-102383648D01*
X141756160Y-102107790D01*
X141761872Y-102091330D01*
X141789367Y-102010788D01*
X141813037Y-101936281D01*
X141833228Y-101862964D01*
X141850288Y-101785993D01*
X141864562Y-101700523D01*
X141876398Y-101601709D01*
X141886142Y-101484707D01*
X141894140Y-101344671D01*
X141900739Y-101176757D01*
X141906287Y-100976121D01*
X141911128Y-100737917D01*
X141915611Y-100457301D01*
X141920081Y-100129427D01*
X141924885Y-99749452D01*
X141927736Y-99497400D01*
X141931330Y-99099727D01*
X141934468Y-98653923D01*
X141937152Y-98165131D01*
X141939381Y-97638492D01*
X141941156Y-97079147D01*
X141942479Y-96492239D01*
X141943350Y-95882908D01*
X141943769Y-95256296D01*
X141943738Y-94617545D01*
X141943258Y-93971796D01*
X141942328Y-93324191D01*
X141940950Y-92679871D01*
X141939125Y-92043978D01*
X141936853Y-91421653D01*
X141934136Y-90818037D01*
X141930973Y-90238273D01*
X141927366Y-89687502D01*
X141923315Y-89170864D01*
X141923040Y-89138814D01*
X141919528Y-88736612D01*
X141916211Y-88386621D01*
X141912841Y-88084429D01*
X141909174Y-87825624D01*
X141904963Y-87605796D01*
X141899960Y-87420534D01*
X141893921Y-87265425D01*
X141886599Y-87136060D01*
X141877748Y-87028026D01*
X141867121Y-86936912D01*
X141854473Y-86858308D01*
X141839556Y-86787802D01*
X141822125Y-86720982D01*
X141801934Y-86653438D01*
X141778736Y-86580758D01*
X141750639Y-86501368D01*
X141650145Y-86299739D01*
X141516148Y-86133503D01*
X141343518Y-85998310D01*
X141127119Y-85889808D01*
X140861819Y-85803648D01*
X140836970Y-85797262D01*
X140733634Y-85774384D01*
X140627796Y-85758540D01*
X140505855Y-85748519D01*
X140354210Y-85743109D01*
X140159257Y-85741100D01*
X140035795Y-85741278D01*
X139892415Y-85744583D01*
X139762366Y-85753667D01*
X139640847Y-85771031D01*
X139523057Y-85799178D01*
X139404195Y-85840612D01*
X139279458Y-85897833D01*
X139144047Y-85973346D01*
X138993158Y-86069652D01*
X138821992Y-86189253D01*
X138625746Y-86334653D01*
X138399619Y-86508354D01*
X138138810Y-86712857D01*
X137838517Y-86950667D01*
X137725833Y-87040077D01*
X137453888Y-87255268D01*
X137220446Y-87438384D01*
X137021190Y-87592002D01*
X136851803Y-87718700D01*
X136707969Y-87821056D01*
X136585369Y-87901647D01*
X136479688Y-87963052D01*
X136386609Y-88007849D01*
X136301814Y-88038614D01*
X136220987Y-88057926D01*
X136139811Y-88068362D01*
X136053970Y-88072501D01*
X135959145Y-88072920D01*
X135926883Y-88072649D01*
X135783726Y-88067582D01*
X135666230Y-88053172D01*
X135548412Y-88025007D01*
X135404293Y-87978673D01*
X135348197Y-87958619D01*
X135198410Y-87898446D01*
X135022518Y-87819107D01*
X134816084Y-87718398D01*
X134574670Y-87594115D01*
X134293838Y-87444054D01*
X133969151Y-87266012D01*
X133738592Y-87141710D01*
X133281452Y-86917213D01*
X132855296Y-86739030D01*
X132460388Y-86607230D01*
X132096991Y-86521882D01*
X131765366Y-86483053D01*
X131465776Y-86490812D01*
X131198484Y-86545227D01*
X131147584Y-86562514D01*
X130966974Y-86646191D01*
X130800671Y-86755166D01*
X130669988Y-86876094D01*
X130648714Y-86901908D01*
X130541066Y-87076198D01*
X130458938Y-87287732D01*
X130406597Y-87523002D01*
X130388303Y-87768500D01*
X130389387Y-87853616D01*
X130396531Y-87989304D01*
X130411988Y-88124748D01*
X130437649Y-88267514D01*
X130475407Y-88425166D01*
X130527153Y-88605271D01*
X130594779Y-88815394D01*
X130680176Y-89063100D01*
X130785236Y-89355954D01*
X130843191Y-89516665D01*
X130893631Y-89661845D01*
X130928975Y-89774048D01*
X130951940Y-89864148D01*
X130965241Y-89943016D01*
X130971593Y-90021526D01*
X130973713Y-90110550D01*
X130973979Y-90157363D01*
X130971300Y-90266692D01*
X130960531Y-90343152D01*
X130937970Y-90404742D01*
X130899916Y-90469462D01*
X130854678Y-90532379D01*
X130774252Y-90621284D01*
X130669117Y-90713943D01*
X130532616Y-90815580D01*
X130358090Y-90931420D01*
X130138883Y-91066687D01*
X130057837Y-91115702D01*
X129899368Y-91212719D01*
X129747861Y-91306849D01*
X129617319Y-91389359D01*
X129521741Y-91451521D01*
X129249594Y-91656193D01*
X129002692Y-91895743D01*
X128806039Y-92152266D01*
X128662497Y-92422529D01*
X128658039Y-92433194D01*
X128626358Y-92516140D01*
X128605654Y-92592902D01*
X128593622Y-92679255D01*
X128587958Y-92790978D01*
X128586357Y-92943846D01*
X128586571Y-93001732D01*
X128592968Y-93169277D01*
X128611201Y-93314961D01*
X128645320Y-93452566D01*
X128699377Y-93595872D01*
X128777424Y-93758664D01*
X128883511Y-93954721D01*
X128897626Y-93980095D01*
X128994955Y-94165244D01*
X129060180Y-94313038D01*
X129095498Y-94430529D01*
X129103102Y-94524769D01*
X129085186Y-94602809D01*
X129044029Y-94678629D01*
X128975283Y-94761628D01*
X128874590Y-94852525D01*
X128735558Y-94957052D01*
X128551793Y-95080940D01*
X128415706Y-95171375D01*
X128235695Y-95301073D01*
X128094127Y-95420818D01*
X127983040Y-95539565D01*
X127894471Y-95666268D01*
X127820459Y-95809885D01*
X127753042Y-95979370D01*
X127724347Y-96063911D01*
X127699912Y-96156966D01*
X127685196Y-96254250D01*
X127677718Y-96373321D01*
X127674996Y-96531739D01*
X127674649Y-96619992D01*
X127451022Y-96619992D01*
X127448659Y-96456208D01*
X127486804Y-96176445D01*
X127564052Y-95894588D01*
X127677570Y-95625396D01*
X127733297Y-95529786D01*
X127842477Y-95389727D01*
X127989181Y-95245069D01*
X128178707Y-95090768D01*
X128416355Y-94921775D01*
X128489556Y-94871685D01*
X128617069Y-94781341D01*
X128726116Y-94700198D01*
X128806970Y-94635590D01*
X128849907Y-94594849D01*
X128861152Y-94580041D01*
X128881611Y-94544829D01*
X128889679Y-94505498D01*
X128883007Y-94454331D01*
X128859248Y-94383611D01*
X128816055Y-94285620D01*
X128751082Y-94152640D01*
X128661981Y-93976955D01*
X128639269Y-93932113D01*
X128527993Y-93696398D01*
X128448007Y-93491515D01*
X128395879Y-93305663D01*
X128368176Y-93127040D01*
X128361465Y-92943846D01*
X128361830Y-92922456D01*
X128373747Y-92728139D01*
X128404510Y-92557027D01*
X128459642Y-92386518D01*
X128544666Y-92194010D01*
X128546342Y-92190542D01*
X128633679Y-92031112D01*
X128737978Y-91885212D01*
X128874866Y-91730924D01*
X128938164Y-91665921D01*
X129057213Y-91551765D01*
X129181113Y-91445441D01*
X129319009Y-91340149D01*
X129480049Y-91229087D01*
X129673376Y-91105452D01*
X129908136Y-90962444D01*
X130089544Y-90852982D01*
X130303747Y-90718869D01*
X130473607Y-90601674D01*
X130602196Y-90494941D01*
X130692586Y-90392211D01*
X130747850Y-90287029D01*
X130771061Y-90172937D01*
X130765290Y-90043478D01*
X130733611Y-89892195D01*
X130679096Y-89712632D01*
X130604816Y-89498331D01*
X130522262Y-89263479D01*
X130415545Y-88947845D01*
X130329559Y-88674144D01*
X130263126Y-88436173D01*
X130215071Y-88227729D01*
X130184220Y-88042609D01*
X130169397Y-87874611D01*
X130169425Y-87717530D01*
X130183131Y-87565165D01*
X130209338Y-87411312D01*
X130235136Y-87302445D01*
X130333694Y-87034585D01*
X130472664Y-86804736D01*
X130649541Y-86614117D01*
X130861818Y-86463947D01*
X131106988Y-86355444D01*
X131382546Y-86289826D01*
X131685985Y-86268313D01*
X132014799Y-86292123D01*
X132366482Y-86362475D01*
X132485716Y-86394687D01*
X132706440Y-86461817D01*
X132927785Y-86540027D01*
X133157546Y-86632731D01*
X133403522Y-86743346D01*
X133673507Y-86875286D01*
X133975298Y-87031967D01*
X134316692Y-87216803D01*
X134423377Y-87275197D01*
X134747782Y-87448275D01*
X135031455Y-87590829D01*
X135279394Y-87703849D01*
X135496600Y-87788320D01*
X135688069Y-87845231D01*
X135858802Y-87875570D01*
X136013796Y-87880324D01*
X136158051Y-87860480D01*
X136296566Y-87817027D01*
X136434338Y-87750951D01*
X136576368Y-87663241D01*
X136634379Y-87622151D01*
X136738131Y-87545086D01*
X136873863Y-87441903D01*
X137034871Y-87317778D01*
X137214448Y-87177884D01*
X137405890Y-87027395D01*
X137602490Y-86871485D01*
X137679030Y-86810549D01*
X137982974Y-86569706D01*
X138248444Y-86362011D01*
X138479810Y-86184883D01*
X138681442Y-86035740D01*
X138857712Y-85912002D01*
X139012989Y-85811088D01*
X139151645Y-85730417D01*
X139278049Y-85667407D01*
X139396572Y-85619479D01*
X139511585Y-85584050D01*
X139627458Y-85558540D01*
X139748562Y-85540368D01*
X139879267Y-85526953D01*
X140091931Y-85517029D01*
X140159257Y-85519124D01*
X140370206Y-85525689D01*
X140649498Y-85555703D01*
G37*
G36*
X132477344Y-91130700D02*
G01*
X132489106Y-91156027D01*
X132508260Y-91232892D01*
X132529813Y-91350065D01*
X132552354Y-91498086D01*
X132574472Y-91667496D01*
X132594758Y-91848832D01*
X132611801Y-92032636D01*
X132612272Y-92038466D01*
X132620930Y-92192958D01*
X132626685Y-92394115D01*
X132629681Y-92632183D01*
X132630066Y-92897410D01*
X132627986Y-93180040D01*
X132623585Y-93470319D01*
X132617012Y-93758495D01*
X132608412Y-94034813D01*
X132597930Y-94289519D01*
X132585714Y-94512859D01*
X132571909Y-94695080D01*
X132562552Y-94794811D01*
X132535065Y-95069006D01*
X132504088Y-95355307D01*
X132470416Y-95647986D01*
X132434844Y-95941316D01*
X132398164Y-96229569D01*
X132361171Y-96507016D01*
X132324659Y-96767929D01*
X132289422Y-97006582D01*
X132256254Y-97217244D01*
X132225949Y-97394189D01*
X132199301Y-97531689D01*
X132177105Y-97624015D01*
X132160153Y-97665439D01*
X132151395Y-97672853D01*
X132103379Y-97680517D01*
X132061626Y-97647625D01*
X132043786Y-97586196D01*
X132043799Y-97584839D01*
X132048494Y-97532101D01*
X132060692Y-97433756D01*
X132079015Y-97299893D01*
X132102086Y-97140599D01*
X132128525Y-96965964D01*
X132162048Y-96743347D01*
X132228981Y-96265674D01*
X132293479Y-95762821D01*
X132352887Y-95255962D01*
X132404547Y-94766268D01*
X132409410Y-94714143D01*
X132424932Y-94500637D01*
X132437610Y-94250415D01*
X132447436Y-93971985D01*
X132454407Y-93673856D01*
X132458516Y-93364537D01*
X132459757Y-93052535D01*
X132458125Y-92746359D01*
X132453614Y-92454517D01*
X132446218Y-92185518D01*
X132435932Y-91947871D01*
X132422750Y-91750083D01*
X132406666Y-91600663D01*
X132406636Y-91600454D01*
X132387368Y-91461527D01*
X132371590Y-91339332D01*
X132360930Y-91247068D01*
X132357015Y-91197936D01*
X132357534Y-91189310D01*
X132383241Y-91140104D01*
X132430944Y-91116229D01*
X132477344Y-91130700D01*
G37*
G36*
X131240335Y-92562718D02*
G01*
X131309567Y-92587168D01*
X131372085Y-92647040D01*
X131403903Y-92690639D01*
X131445283Y-92803227D01*
X131431445Y-92914401D01*
X131362569Y-93017225D01*
X131282740Y-93075615D01*
X131177480Y-93104472D01*
X131074858Y-93091420D01*
X130985546Y-93042767D01*
X130920216Y-92964820D01*
X130889540Y-92863889D01*
X130890916Y-92852846D01*
X131055480Y-92852846D01*
X131085475Y-92915133D01*
X131144731Y-92944314D01*
X131220064Y-92928505D01*
X131253372Y-92897088D01*
X131274952Y-92829945D01*
X131265033Y-92781932D01*
X131221864Y-92732987D01*
X131161239Y-92714767D01*
X131101708Y-92731109D01*
X131061826Y-92785851D01*
X131055480Y-92852846D01*
X130890916Y-92852846D01*
X130904191Y-92746282D01*
X130905163Y-92743369D01*
X130962604Y-92638629D01*
X131052037Y-92578592D01*
X131161239Y-92562122D01*
X131179093Y-92559429D01*
X131240335Y-92562718D01*
G37*
G36*
X130866302Y-96023270D02*
G01*
X130967462Y-96096514D01*
X131020377Y-96161295D01*
X131041697Y-96221788D01*
X131037598Y-96302916D01*
X131030282Y-96341446D01*
X130977359Y-96451006D01*
X130886530Y-96521217D01*
X130764648Y-96545976D01*
X130656595Y-96526985D01*
X130561750Y-96466841D01*
X130502302Y-96376624D01*
X130486583Y-96275461D01*
X130648495Y-96275461D01*
X130649675Y-96292725D01*
X130681998Y-96357776D01*
X130744758Y-96388860D01*
X130819347Y-96375124D01*
X130853289Y-96344435D01*
X130876298Y-96275461D01*
X130865988Y-96228709D01*
X130819347Y-96175797D01*
X130803348Y-96168554D01*
X130729723Y-96165306D01*
X130671903Y-96204560D01*
X130648495Y-96275461D01*
X130486583Y-96275461D01*
X130485384Y-96267748D01*
X130518131Y-96151625D01*
X130556746Y-96093675D01*
X130647960Y-96023443D01*
X130729723Y-96005192D01*
X130755474Y-95999444D01*
X130866302Y-96023270D01*
G37*
%LPC*%
D11*
X105750000Y-105000000D03*
X105750000Y-104000000D03*
X105750000Y-103000000D03*
X105750000Y-102000000D03*
X105750000Y-101000000D03*
X105750000Y-100000000D03*
X105750000Y-99000000D03*
X105750000Y-98000000D03*
X105750000Y-97000000D03*
X105750000Y-96000000D03*
X105750000Y-95000000D03*
X105750000Y-94000000D03*
X105750000Y-93000000D03*
X105750000Y-92000000D03*
X105750000Y-91000000D03*
X105750000Y-90000000D03*
X105750000Y-89000000D03*
X105750000Y-88000000D03*
X105750000Y-87000000D03*
X105750000Y-86000000D03*
X105750000Y-85000000D03*
D12*
X105750000Y-84000000D03*
D13*
X145462500Y-67800000D03*
D14*
X145462500Y-70340000D03*
X145462500Y-72880000D03*
X145462500Y-75420000D03*
X145462500Y-77960000D03*
X145462500Y-80500000D03*
X145462500Y-83040000D03*
X145462500Y-85580000D03*
X145462500Y-88120000D03*
X145462500Y-90660000D03*
X145462500Y-93200000D03*
X145462500Y-95740000D03*
X145462500Y-98280000D03*
X145462500Y-100820000D03*
X145462500Y-103360000D03*
X145462500Y-105900000D03*
X145462500Y-108440000D03*
X145462500Y-110980000D03*
X145462500Y-113520000D03*
X145462500Y-116060000D03*
X145462500Y-118600000D03*
X145462500Y-121140000D03*
M02*
