G04 #@! TF.GenerationSoftware,KiCad,Pcbnew,(6.0.4)*
G04 #@! TF.CreationDate,2022-06-01T02:41:53-07:00*
G04 #@! TF.ProjectId,ditto,64697474-6f2e-46b6-9963-61645f706362,rev?*
G04 #@! TF.SameCoordinates,Original*
G04 #@! TF.FileFunction,Copper,L1,Top*
G04 #@! TF.FilePolarity,Positive*
%FSLAX46Y46*%
G04 Gerber Fmt 4.6, Leading zero omitted, Abs format (unit mm)*
G04 Created by KiCad (PCBNEW (6.0.4)) date 2022-06-01 02:41:53*
%MOMM*%
%LPD*%
G01*
G04 APERTURE LIST*
G04 Aperture macros list*
%AMRoundRect*
0 Rectangle with rounded corners*
0 $1 Rounding radius*
0 $2 $3 $4 $5 $6 $7 $8 $9 X,Y pos of 4 corners*
0 Add a 4 corners polygon primitive as box body*
4,1,4,$2,$3,$4,$5,$6,$7,$8,$9,$2,$3,0*
0 Add four circle primitives for the rounded corners*
1,1,$1+$1,$2,$3*
1,1,$1+$1,$4,$5*
1,1,$1+$1,$6,$7*
1,1,$1+$1,$8,$9*
0 Add four rect primitives between the rounded corners*
20,1,$1+$1,$2,$3,$4,$5,0*
20,1,$1+$1,$4,$5,$6,$7,0*
20,1,$1+$1,$6,$7,$8,$9,0*
20,1,$1+$1,$8,$9,$2,$3,0*%
%AMHorizOval*
0 Thick line with rounded ends*
0 $1 width*
0 $2 $3 position (X,Y) of the first rounded end (center of the circle)*
0 $4 $5 position (X,Y) of the second rounded end (center of the circle)*
0 Add line between two ends*
20,1,$1,$2,$3,$4,$5,0*
0 Add two circle primitives to create the rounded ends*
1,1,$1,$2,$3*
1,1,$1,$4,$5*%
%AMRotRect*
0 Rectangle, with rotation*
0 The origin of the aperture is its center*
0 $1 length*
0 $2 width*
0 $3 Rotation angle, in degrees counterclockwise*
0 Add horizontal line*
21,1,$1,$2,0,0,$3*%
G04 Aperture macros list end*
G04 #@! TA.AperFunction,SMDPad,CuDef*
%ADD10R,1.981200X0.558800*%
G04 #@! TD*
G04 #@! TA.AperFunction,ComponentPad*
%ADD11C,2.200000*%
G04 #@! TD*
G04 #@! TA.AperFunction,SMDPad,CuDef*
%ADD12R,0.900000X1.200000*%
G04 #@! TD*
G04 #@! TA.AperFunction,ComponentPad*
%ADD13RotRect,1.600000X1.600000X315.000000*%
G04 #@! TD*
G04 #@! TA.AperFunction,ComponentPad*
%ADD14HorizOval,1.600000X0.000000X0.000000X0.000000X0.000000X0*%
G04 #@! TD*
G04 #@! TA.AperFunction,SMDPad,CuDef*
%ADD15RoundRect,0.140000X-0.170000X0.140000X-0.170000X-0.140000X0.170000X-0.140000X0.170000X0.140000X0*%
G04 #@! TD*
G04 #@! TA.AperFunction,SMDPad,CuDef*
%ADD16RoundRect,0.140000X0.140000X0.170000X-0.140000X0.170000X-0.140000X-0.170000X0.140000X-0.170000X0*%
G04 #@! TD*
G04 #@! TA.AperFunction,SMDPad,CuDef*
%ADD17RoundRect,0.250000X-0.475000X0.250000X-0.475000X-0.250000X0.475000X-0.250000X0.475000X0.250000X0*%
G04 #@! TD*
G04 #@! TA.AperFunction,SMDPad,CuDef*
%ADD18RoundRect,0.140000X-0.140000X-0.170000X0.140000X-0.170000X0.140000X0.170000X-0.140000X0.170000X0*%
G04 #@! TD*
G04 #@! TA.AperFunction,SMDPad,CuDef*
%ADD19R,0.550000X0.550000*%
G04 #@! TD*
G04 #@! TA.AperFunction,SMDPad,CuDef*
%ADD20RoundRect,0.250000X0.475000X-0.250000X0.475000X0.250000X-0.475000X0.250000X-0.475000X-0.250000X0*%
G04 #@! TD*
G04 #@! TA.AperFunction,ComponentPad*
%ADD21R,0.850000X0.850000*%
G04 #@! TD*
G04 #@! TA.AperFunction,ComponentPad*
%ADD22O,0.850000X0.850000*%
G04 #@! TD*
G04 #@! TA.AperFunction,SMDPad,CuDef*
%ADD23RoundRect,0.050000X0.050000X-0.387500X0.050000X0.387500X-0.050000X0.387500X-0.050000X-0.387500X0*%
G04 #@! TD*
G04 #@! TA.AperFunction,SMDPad,CuDef*
%ADD24RoundRect,0.050000X0.387500X-0.050000X0.387500X0.050000X-0.387500X0.050000X-0.387500X-0.050000X0*%
G04 #@! TD*
G04 #@! TA.AperFunction,ComponentPad*
%ADD25C,0.600000*%
G04 #@! TD*
G04 #@! TA.AperFunction,SMDPad,CuDef*
%ADD26RoundRect,0.144000X1.456000X-1.456000X1.456000X1.456000X-1.456000X1.456000X-1.456000X-1.456000X0*%
G04 #@! TD*
G04 #@! TA.AperFunction,SMDPad,CuDef*
%ADD27RoundRect,0.150000X0.650000X0.150000X-0.650000X0.150000X-0.650000X-0.150000X0.650000X-0.150000X0*%
G04 #@! TD*
G04 #@! TA.AperFunction,SMDPad,CuDef*
%ADD28RoundRect,0.140000X0.170000X-0.140000X0.170000X0.140000X-0.170000X0.140000X-0.170000X-0.140000X0*%
G04 #@! TD*
G04 #@! TA.AperFunction,SMDPad,CuDef*
%ADD29R,1.150000X1.000000*%
G04 #@! TD*
G04 #@! TA.AperFunction,ComponentPad*
%ADD30C,3.800000*%
G04 #@! TD*
G04 #@! TA.AperFunction,SMDPad,CuDef*
%ADD31RoundRect,0.200000X0.200000X0.275000X-0.200000X0.275000X-0.200000X-0.275000X0.200000X-0.275000X0*%
G04 #@! TD*
G04 #@! TA.AperFunction,SMDPad,CuDef*
%ADD32RoundRect,0.150000X-0.512500X-0.150000X0.512500X-0.150000X0.512500X0.150000X-0.512500X0.150000X0*%
G04 #@! TD*
G04 #@! TA.AperFunction,SMDPad,CuDef*
%ADD33R,1.450000X0.600000*%
G04 #@! TD*
G04 #@! TA.AperFunction,SMDPad,CuDef*
%ADD34R,1.450000X0.300000*%
G04 #@! TD*
G04 #@! TA.AperFunction,ComponentPad*
%ADD35O,1.600000X1.000000*%
G04 #@! TD*
G04 #@! TA.AperFunction,ComponentPad*
%ADD36O,2.100000X1.000000*%
G04 #@! TD*
G04 #@! TA.AperFunction,ViaPad*
%ADD37C,0.800000*%
G04 #@! TD*
G04 #@! TA.AperFunction,Conductor*
%ADD38C,0.200000*%
G04 #@! TD*
G04 #@! TA.AperFunction,Conductor*
%ADD39C,0.250000*%
G04 #@! TD*
G04 APERTURE END LIST*
D10*
X120963800Y-159310000D03*
X120963800Y-158040000D03*
X120963800Y-156770000D03*
X120963800Y-155500000D03*
X120963800Y-154230000D03*
X120963800Y-152960000D03*
X120963800Y-151690000D03*
X116036200Y-151690000D03*
X116036200Y-152960000D03*
X116036200Y-154230000D03*
X116036200Y-155500000D03*
X116036200Y-156770000D03*
X116036200Y-158040000D03*
X116036200Y-159310000D03*
D11*
X219950000Y-154000000D03*
X213600000Y-156540000D03*
D12*
X113900000Y-203500000D03*
X110600000Y-203500000D03*
D11*
X200900000Y-154000000D03*
X194550000Y-156540000D03*
X234237500Y-134950000D03*
X227887500Y-137490000D03*
D13*
X206750216Y-122305924D03*
D14*
X212138370Y-127694078D03*
D11*
X250906250Y-192100000D03*
X244556250Y-194640000D03*
D13*
X330279125Y-122305924D03*
D14*
X335667279Y-127694078D03*
D15*
X113550000Y-196157500D03*
X113550000Y-197117500D03*
D16*
X112030000Y-188400000D03*
X111070000Y-188400000D03*
D13*
X199263616Y-122305924D03*
D14*
X204651770Y-127694078D03*
D16*
X114480000Y-205500000D03*
X113520000Y-205500000D03*
D13*
X315305924Y-122305924D03*
D14*
X320694078Y-127694078D03*
D15*
X112250000Y-186270000D03*
X112250000Y-187230000D03*
D13*
X334022425Y-122305924D03*
D14*
X339410579Y-127694078D03*
D17*
X159833332Y-121050000D03*
X159833332Y-122950000D03*
D11*
X215187500Y-134950000D03*
X208837500Y-137490000D03*
X239000000Y-154000000D03*
X232650000Y-156540000D03*
X348537500Y-134950000D03*
X342187500Y-137490000D03*
D17*
X125000000Y-203050000D03*
X125000000Y-204950000D03*
D18*
X123520000Y-197750000D03*
X124480000Y-197750000D03*
D19*
X164274998Y-126475000D03*
X165224998Y-126475000D03*
X165224998Y-125525000D03*
X164274998Y-125525000D03*
D11*
X329487500Y-134950000D03*
X323137500Y-137490000D03*
D13*
X292846122Y-122305924D03*
D14*
X298234276Y-127694078D03*
D13*
X262899720Y-122305924D03*
D14*
X268287874Y-127694078D03*
D13*
X337765725Y-122305924D03*
D14*
X343153879Y-127694078D03*
D13*
X326535825Y-122305924D03*
D14*
X331923979Y-127694078D03*
D13*
X277872921Y-122305924D03*
D14*
X283261075Y-127694078D03*
D13*
X341509026Y-122305924D03*
D14*
X346897180Y-127694078D03*
D13*
X229210018Y-122305924D03*
D14*
X234598172Y-127694078D03*
D19*
X179025000Y-126475000D03*
X179975000Y-126475000D03*
X179975000Y-125525000D03*
X179025000Y-125525000D03*
D20*
X121000000Y-204950000D03*
X121000000Y-203050000D03*
D11*
X162800000Y-192100000D03*
X156450000Y-194640000D03*
D15*
X108750000Y-203020000D03*
X108750000Y-203980000D03*
D13*
X266643020Y-122305924D03*
D14*
X272031174Y-127694078D03*
D15*
X112250000Y-184270000D03*
X112250000Y-185230000D03*
D19*
X159358332Y-126475000D03*
X160308332Y-126475000D03*
X160308332Y-125525000D03*
X159358332Y-125525000D03*
D11*
X141368750Y-154000000D03*
X135018750Y-156540000D03*
D21*
X358625000Y-158500000D03*
D22*
X358625000Y-159500000D03*
X358625000Y-160500000D03*
X358625000Y-161500000D03*
X358625000Y-162500000D03*
X358625000Y-163500000D03*
X358625000Y-164500000D03*
X358625000Y-165500000D03*
X358625000Y-166500000D03*
X358625000Y-167500000D03*
X358625000Y-168500000D03*
X358625000Y-169500000D03*
X358625000Y-170500000D03*
X358625000Y-171500000D03*
X358625000Y-172500000D03*
X358625000Y-173500000D03*
X358625000Y-174500000D03*
X358625000Y-175500000D03*
X358625000Y-176500000D03*
X358625000Y-177500000D03*
X358625000Y-178500000D03*
X358625000Y-179500000D03*
D13*
X307819323Y-122305924D03*
D14*
X313207477Y-127694078D03*
D13*
X251669819Y-122305924D03*
D14*
X257057973Y-127694078D03*
D11*
X210425000Y-173050000D03*
X204075000Y-175590000D03*
D23*
X114650000Y-194937500D03*
X115050000Y-194937500D03*
X115450000Y-194937500D03*
X115850000Y-194937500D03*
X116250000Y-194937500D03*
X116650000Y-194937500D03*
X117050000Y-194937500D03*
X117450000Y-194937500D03*
X117850000Y-194937500D03*
X118250000Y-194937500D03*
X118650000Y-194937500D03*
X119050000Y-194937500D03*
X119450000Y-194937500D03*
X119850000Y-194937500D03*
D24*
X120687500Y-194100000D03*
X120687500Y-193700000D03*
X120687500Y-193300000D03*
X120687500Y-192900000D03*
X120687500Y-192500000D03*
X120687500Y-192100000D03*
X120687500Y-191700000D03*
X120687500Y-191300000D03*
X120687500Y-190900000D03*
X120687500Y-190500000D03*
X120687500Y-190100000D03*
X120687500Y-189700000D03*
X120687500Y-189300000D03*
X120687500Y-188900000D03*
D23*
X119850000Y-188062500D03*
X119450000Y-188062500D03*
X119050000Y-188062500D03*
X118650000Y-188062500D03*
X118250000Y-188062500D03*
X117850000Y-188062500D03*
X117450000Y-188062500D03*
X117050000Y-188062500D03*
X116650000Y-188062500D03*
X116250000Y-188062500D03*
X115850000Y-188062500D03*
X115450000Y-188062500D03*
X115050000Y-188062500D03*
X114650000Y-188062500D03*
D24*
X113812500Y-188900000D03*
X113812500Y-189300000D03*
X113812500Y-189700000D03*
X113812500Y-190100000D03*
X113812500Y-190500000D03*
X113812500Y-190900000D03*
X113812500Y-191300000D03*
X113812500Y-191700000D03*
X113812500Y-192100000D03*
X113812500Y-192500000D03*
X113812500Y-192900000D03*
X113812500Y-193300000D03*
X113812500Y-193700000D03*
X113812500Y-194100000D03*
D25*
X117250000Y-190225000D03*
X118525000Y-190225000D03*
X117250000Y-191500000D03*
X115975000Y-191500000D03*
X117250000Y-192775000D03*
X115975000Y-192775000D03*
X118525000Y-192775000D03*
D26*
X117250000Y-191500000D03*
D25*
X115975000Y-190225000D03*
X118525000Y-191500000D03*
D18*
X111260000Y-164550000D03*
X112220000Y-164550000D03*
D13*
X217980117Y-122305924D03*
D14*
X223368271Y-127694078D03*
D19*
X169191664Y-126475000D03*
X170141664Y-126475000D03*
X170141664Y-125525000D03*
X169191664Y-125525000D03*
D18*
X124520000Y-193250000D03*
X125480000Y-193250000D03*
D19*
X174108330Y-126475000D03*
X175058330Y-126475000D03*
X175058330Y-125525000D03*
X174108330Y-125525000D03*
D13*
X232953318Y-122305924D03*
D14*
X238341472Y-127694078D03*
D16*
X110730000Y-191237500D03*
X109770000Y-191237500D03*
D11*
X305675000Y-173050000D03*
X299325000Y-175590000D03*
D18*
X122310000Y-191200000D03*
X123270000Y-191200000D03*
D13*
X322792524Y-122305924D03*
D14*
X328180678Y-127694078D03*
D13*
X203006916Y-122305924D03*
D14*
X208395070Y-127694078D03*
D11*
X286625000Y-173050000D03*
X280275000Y-175590000D03*
X341393750Y-154000000D03*
X335043750Y-156540000D03*
D13*
X285359522Y-122305924D03*
D14*
X290747676Y-127694078D03*
D13*
X247926519Y-122305924D03*
D14*
X253314673Y-127694078D03*
D15*
X118480000Y-196940000D03*
X118480000Y-197900000D03*
D18*
X122940000Y-178850000D03*
X123900000Y-178850000D03*
D27*
X121350000Y-179905000D03*
X121350000Y-178635000D03*
X121350000Y-177365000D03*
X121350000Y-176095000D03*
X114150000Y-176095000D03*
X114150000Y-177365000D03*
X114150000Y-178635000D03*
X114150000Y-179905000D03*
D11*
X253287500Y-134950000D03*
X246937500Y-137490000D03*
X141368750Y-192100000D03*
X135018750Y-194640000D03*
X348537500Y-173050000D03*
X342187500Y-175590000D03*
X196137500Y-134950000D03*
X189787500Y-137490000D03*
D16*
X123900000Y-179910000D03*
X122940000Y-179910000D03*
D13*
X304076023Y-122305924D03*
D14*
X309464177Y-127694078D03*
D11*
X158037500Y-134950000D03*
X151687500Y-137490000D03*
D28*
X111000000Y-185230000D03*
X111000000Y-184270000D03*
D11*
X315200000Y-154000000D03*
X308850000Y-156540000D03*
D19*
X149525000Y-126475000D03*
X150475000Y-126475000D03*
X150475000Y-125525000D03*
X149525000Y-125525000D03*
D13*
X214236817Y-122305924D03*
D14*
X219624971Y-127694078D03*
D13*
X281616221Y-122305924D03*
D14*
X287004375Y-127694078D03*
D11*
X162800000Y-154000000D03*
X156450000Y-156540000D03*
D16*
X112220000Y-166550000D03*
X111260000Y-166550000D03*
D28*
X113850000Y-186880000D03*
X113850000Y-185920000D03*
D15*
X125200000Y-190720000D03*
X125200000Y-191680000D03*
D13*
X296589422Y-122305924D03*
D14*
X301977576Y-127694078D03*
D29*
X124875000Y-194800000D03*
X123125000Y-194800000D03*
X123125000Y-196200000D03*
X124875000Y-196200000D03*
D17*
X123000000Y-203050000D03*
X123000000Y-204950000D03*
D13*
X240439918Y-122305924D03*
D14*
X245828072Y-127694078D03*
D30*
X357750000Y-206750000D03*
D13*
X236696618Y-122305924D03*
D14*
X242084772Y-127694078D03*
D11*
X327106250Y-173050000D03*
X320756250Y-175590000D03*
D13*
X270386321Y-122305924D03*
D14*
X275774475Y-127694078D03*
D11*
X296150000Y-154000000D03*
X289800000Y-156540000D03*
X346156250Y-192100000D03*
X339806250Y-194640000D03*
X229475000Y-173050000D03*
X223125000Y-175590000D03*
X248525000Y-173050000D03*
X242175000Y-175590000D03*
D17*
X164750000Y-121050000D03*
X164750000Y-122950000D03*
D13*
X274129621Y-122305924D03*
D14*
X279517775Y-127694078D03*
D13*
X300332723Y-122305924D03*
D14*
X305720877Y-127694078D03*
D11*
X322343750Y-192100000D03*
X315993750Y-194640000D03*
X172325000Y-173050000D03*
X165975000Y-175590000D03*
D13*
X289102822Y-122305924D03*
D14*
X294490976Y-127694078D03*
D19*
X154441666Y-126475000D03*
X155391666Y-126475000D03*
X155391666Y-125525000D03*
X154441666Y-125525000D03*
D11*
X272337500Y-134950000D03*
X265987500Y-137490000D03*
D13*
X195520315Y-122305924D03*
D14*
X200908469Y-127694078D03*
D11*
X146131250Y-173050000D03*
X139781250Y-175590000D03*
D31*
X145325000Y-126100000D03*
X143675000Y-126100000D03*
D13*
X210493516Y-122305924D03*
D14*
X215881670Y-127694078D03*
D11*
X191375000Y-173050000D03*
X185025000Y-175590000D03*
D13*
X311562623Y-122305924D03*
D14*
X316950777Y-127694078D03*
D11*
X277100000Y-154000000D03*
X270750000Y-156540000D03*
X267575000Y-173050000D03*
X261225000Y-175590000D03*
D28*
X118270000Y-186417500D03*
X118270000Y-185457500D03*
D13*
X319049224Y-122305924D03*
D14*
X324437378Y-127694078D03*
D11*
X177087500Y-134950000D03*
X170737500Y-137490000D03*
D17*
X150000000Y-121050000D03*
X150000000Y-122950000D03*
D13*
X259156420Y-122305924D03*
D14*
X264544574Y-127694078D03*
D16*
X112220000Y-163450000D03*
X111260000Y-163450000D03*
D11*
X291387500Y-134950000D03*
X285037500Y-137490000D03*
X258050000Y-154000000D03*
X251700000Y-156540000D03*
D16*
X110730000Y-192237500D03*
X109770000Y-192237500D03*
X112030000Y-189437500D03*
X111070000Y-189437500D03*
D13*
X255413120Y-122305924D03*
D14*
X260801274Y-127694078D03*
D13*
X221723417Y-122305924D03*
D14*
X227111571Y-127694078D03*
D17*
X179500000Y-121100000D03*
X179500000Y-123000000D03*
D16*
X110120000Y-158750000D03*
X109160000Y-158750000D03*
D32*
X116312500Y-203050000D03*
X116312500Y-204000000D03*
X116312500Y-204950000D03*
X118587500Y-204950000D03*
X118587500Y-203050000D03*
D11*
X181850000Y-154000000D03*
X175500000Y-156540000D03*
D13*
X244183219Y-122305924D03*
D14*
X249571373Y-127694078D03*
D16*
X112530000Y-180100000D03*
X111570000Y-180100000D03*
D17*
X174583330Y-121100000D03*
X174583330Y-123000000D03*
D11*
X181850000Y-192100000D03*
X175500000Y-194640000D03*
D18*
X122310000Y-190200000D03*
X123270000Y-190200000D03*
D16*
X110730000Y-193237500D03*
X109770000Y-193237500D03*
D11*
X138987500Y-134950000D03*
X132637500Y-137490000D03*
X310437500Y-134950000D03*
X304087500Y-137490000D03*
D13*
X225466717Y-122305924D03*
D14*
X230854871Y-127694078D03*
D30*
X357750000Y-120250000D03*
X105250000Y-206750000D03*
X105250000Y-120250000D03*
D17*
X169666664Y-121050000D03*
X169666664Y-122950000D03*
D33*
X109485000Y-161500000D03*
X109485000Y-162300000D03*
D34*
X109485000Y-163500000D03*
X109485000Y-164500000D03*
X109485000Y-165000000D03*
X109485000Y-166000000D03*
D33*
X109485000Y-167200000D03*
X109485000Y-168000000D03*
X109485000Y-168000000D03*
X109485000Y-167200000D03*
D34*
X109485000Y-166500000D03*
X109485000Y-165500000D03*
X109485000Y-164000000D03*
X109485000Y-163000000D03*
D33*
X109485000Y-162300000D03*
X109485000Y-161500000D03*
D35*
X104390000Y-160430000D03*
X104390000Y-169070000D03*
D36*
X108570000Y-169070000D03*
X108570000Y-160430000D03*
D18*
X111260000Y-165550000D03*
X112220000Y-165550000D03*
D17*
X154916666Y-121050000D03*
X154916666Y-122950000D03*
D37*
X119200000Y-151700000D03*
X119200000Y-155500000D03*
X119200000Y-159300000D03*
X121780000Y-190399500D03*
X108910000Y-193860000D03*
X112399096Y-189273119D03*
X114783762Y-191765266D03*
X114069733Y-184884441D03*
X118600000Y-200000000D03*
X118260000Y-184540000D03*
X110600000Y-186910000D03*
X112500000Y-162500000D03*
X147500000Y-126520058D03*
X115000000Y-204000000D03*
X112250000Y-167750000D03*
X113550000Y-197840000D03*
X119780516Y-203514084D03*
X111000000Y-161000000D03*
X108750000Y-204880000D03*
X123110000Y-193400000D03*
X119350000Y-175940000D03*
X125471043Y-192552565D03*
X110750000Y-169250000D03*
X110820000Y-180910000D03*
X125460000Y-197700000D03*
X112781919Y-187814769D03*
X108849500Y-191750000D03*
X110410000Y-185230000D03*
X118260000Y-183540497D03*
X118292419Y-201029078D03*
X113078775Y-184754029D03*
X114950000Y-190030000D03*
X119873924Y-206902636D03*
X117796139Y-198800000D03*
X112400000Y-196400000D03*
X112540000Y-181050000D03*
X119760000Y-201540000D03*
X119449500Y-190879012D03*
X181315422Y-126884578D03*
X182990020Y-126509980D03*
X109870000Y-205350000D03*
X125350000Y-206049500D03*
X123910980Y-176840000D03*
X124121915Y-189131097D03*
X114851461Y-182610000D03*
X115712137Y-181843614D03*
X133660000Y-184559500D03*
X121940000Y-183420000D03*
X135749872Y-184030628D03*
X116254332Y-188999877D03*
X121353209Y-184241032D03*
X134360000Y-185312423D03*
X120587125Y-184882997D03*
X131780000Y-183680000D03*
X122913403Y-183175507D03*
X123910980Y-183237511D03*
X123910980Y-184237014D03*
X123910980Y-185236517D03*
X123337700Y-186055267D03*
X124020167Y-186837038D03*
X123440000Y-187660000D03*
X121789249Y-164264764D03*
X120858117Y-164950453D03*
X121503365Y-165713775D03*
X122312900Y-166300000D03*
X127400000Y-162400000D03*
X126693245Y-163106755D03*
X128849011Y-161700000D03*
X129023540Y-160600000D03*
X109116737Y-190535126D03*
X115250000Y-165250000D03*
X109867151Y-189800500D03*
X116250000Y-164500000D03*
X126271840Y-142700000D03*
X126200500Y-143708702D03*
X125800980Y-144632121D03*
X124964391Y-145179043D03*
X221124020Y-137200000D03*
X202074020Y-137500000D03*
X292475500Y-136800000D03*
X241598531Y-137500000D03*
X259224020Y-137500000D03*
X181125500Y-137500000D03*
X110817878Y-197657122D03*
X147013540Y-137500000D03*
X219225500Y-137100000D03*
X144665500Y-137500000D03*
X330187511Y-137500000D03*
X294449219Y-136824620D03*
X278274020Y-137500000D03*
X316374020Y-137500000D03*
X186339021Y-137500000D03*
X276375500Y-137500000D03*
X314475500Y-137500000D03*
X162075500Y-137500000D03*
X164002359Y-137500000D03*
X334875561Y-137500000D03*
X257325500Y-137500000D03*
X200175500Y-137500000D03*
X238275500Y-137500000D03*
X148280261Y-156500000D03*
X278250500Y-156500000D03*
X258900500Y-156500000D03*
X164682299Y-157482299D03*
X145406750Y-156500000D03*
X201650500Y-156500000D03*
X260349500Y-156500000D03*
X239700011Y-156500000D03*
X279699500Y-156500000D03*
X298424500Y-156500000D03*
X109818376Y-197656129D03*
X182905500Y-156500000D03*
X222100000Y-156600000D03*
X330074020Y-156500000D03*
X328175500Y-156500000D03*
X241611474Y-155686876D03*
X186339021Y-156600000D03*
X296975500Y-156500000D03*
X220650011Y-156600000D03*
X317349011Y-156500000D03*
X315900000Y-156500000D03*
X163557701Y-156557701D03*
X203099500Y-156500000D03*
X238700000Y-175600000D03*
X330074020Y-175600000D03*
X148280261Y-175600000D03*
X237200500Y-175600000D03*
X181125500Y-175600000D03*
X146831261Y-175600000D03*
X163524500Y-175600000D03*
X182574500Y-175600000D03*
X162075500Y-175600000D03*
X108820732Y-197717055D03*
X328625020Y-175600000D03*
X107827784Y-197831328D03*
X114112634Y-181936844D03*
X121070000Y-206049500D03*
D38*
X119210000Y-151690000D02*
X119200000Y-151700000D01*
X120963800Y-151690000D02*
X119210000Y-151690000D01*
X120963800Y-155500000D02*
X119200000Y-155500000D01*
X119210000Y-159310000D02*
X119200000Y-159300000D01*
X120963800Y-159310000D02*
X119210000Y-159310000D01*
D39*
X116036200Y-159310000D02*
X116747400Y-159310000D01*
X116747400Y-159310000D02*
X117500000Y-158557400D01*
X117500000Y-158557400D02*
X117500000Y-151053813D01*
X117500000Y-151053813D02*
X123840361Y-144713452D01*
D38*
X120963800Y-156770000D02*
X123730000Y-156770000D01*
X124882254Y-144271921D02*
X124882254Y-143100327D01*
X125982092Y-142000489D02*
X125982092Y-140442908D01*
X123730000Y-156770000D02*
X125301920Y-155198080D01*
X125301920Y-155198080D02*
X125301920Y-146505831D01*
X124264880Y-144889295D02*
X124882254Y-144271921D01*
X125301920Y-146505831D02*
X124264880Y-145468791D01*
X124264880Y-145468791D02*
X124264880Y-144889295D01*
X124882254Y-143100327D02*
X125982092Y-142000489D01*
X125982092Y-140442908D02*
X140325000Y-126100000D01*
X140325000Y-126100000D02*
X143675000Y-126100000D01*
X123596620Y-161824085D02*
X123596620Y-159961620D01*
X123596620Y-159961620D02*
X121675000Y-158040000D01*
X121675000Y-158040000D02*
X120963800Y-158040000D01*
D39*
X112199897Y-161775489D02*
X114665386Y-159310000D01*
X114665386Y-159310000D02*
X116036200Y-159310000D01*
D38*
X110730000Y-193237500D02*
X110730000Y-193170000D01*
X110730000Y-193237500D02*
X111309520Y-192657980D01*
X120687500Y-190900000D02*
X121610000Y-190900000D01*
X111309520Y-192225445D02*
X111309520Y-192080480D01*
X112292500Y-189700000D02*
X113812500Y-189700000D01*
X122310000Y-190200000D02*
X121979500Y-190200000D01*
X112030000Y-189437500D02*
X112234715Y-189437500D01*
X122310000Y-190200000D02*
X122338425Y-190200000D01*
X112030000Y-189437500D02*
X112292500Y-189700000D01*
X121610000Y-190900000D02*
X122310000Y-190200000D01*
X112234715Y-189437500D02*
X112399096Y-189273119D01*
X110107500Y-193860000D02*
X108910000Y-193860000D01*
X110730000Y-193237500D02*
X110107500Y-193860000D01*
X111309520Y-192080480D02*
X111690480Y-191699520D01*
X111690480Y-191699520D02*
X113810000Y-191699520D01*
X113812500Y-191700000D02*
X114718496Y-191700000D01*
X121979500Y-190200000D02*
X121780000Y-190399500D01*
X111309520Y-192657980D02*
X111309520Y-192225445D01*
X114718496Y-191700000D02*
X114783762Y-191765266D01*
X118270000Y-184550000D02*
X118260000Y-184540000D01*
X109770000Y-191237500D02*
X109362000Y-191237500D01*
X174583330Y-123000000D02*
X174108330Y-123475000D01*
X121350000Y-176095000D02*
X119505000Y-176095000D01*
X125650000Y-190137500D02*
X126050000Y-190537500D01*
X120244600Y-203050000D02*
X119780516Y-203514084D01*
X118480000Y-197900000D02*
X118600000Y-198020000D01*
X109485000Y-161500000D02*
X110270000Y-161500000D01*
X148479942Y-126520058D02*
X147500000Y-126520058D01*
X125480000Y-193250000D02*
X125480000Y-192561522D01*
X154916666Y-123000000D02*
X154441666Y-123475000D01*
X116312500Y-204000000D02*
X115000000Y-204000000D01*
X109362000Y-191237500D02*
X108849500Y-191750000D01*
X109485000Y-161500000D02*
X110120000Y-160865000D01*
X112220000Y-163450000D02*
X112220000Y-162780000D01*
X110500000Y-161500000D02*
X111000000Y-161000000D01*
X159833332Y-123000000D02*
X159358332Y-123475000D01*
X123125000Y-194800000D02*
X123125000Y-193415000D01*
X124480000Y-197750000D02*
X124480000Y-196595000D01*
X121000000Y-203050000D02*
X120244600Y-203050000D01*
X125480000Y-192561522D02*
X125471043Y-192552565D01*
X150000000Y-123050000D02*
X149525000Y-123525000D01*
X118600000Y-198020000D02*
X118600000Y-200000000D01*
X111570000Y-180100000D02*
X111570000Y-180160000D01*
X112250000Y-187230000D02*
X112250000Y-187282850D01*
X124480000Y-196595000D02*
X124875000Y-196200000D01*
X179025000Y-123475000D02*
X179025000Y-125575000D01*
X121100000Y-203050000D02*
X123000000Y-204950000D01*
X159833332Y-122950000D02*
X164750000Y-122950000D01*
X154441666Y-123475000D02*
X154441666Y-125575000D01*
X148600000Y-126400000D02*
X148479942Y-126520058D01*
X126050000Y-190537500D02*
X126050000Y-192680000D01*
X113550000Y-197117500D02*
X113550000Y-197840000D01*
X169191664Y-123475000D02*
X169191664Y-125575000D01*
X169666664Y-122950000D02*
X174533330Y-122950000D01*
X109770000Y-191237500D02*
X109770000Y-193237500D01*
X111570000Y-180160000D02*
X110820000Y-180910000D01*
X125410000Y-197750000D02*
X125460000Y-197700000D01*
X109485000Y-161500000D02*
X110500000Y-161500000D01*
X121000000Y-203050000D02*
X121100000Y-203050000D01*
X118270000Y-185457500D02*
X118270000Y-184550000D01*
X123270000Y-190200000D02*
X123270000Y-191200000D01*
X111070000Y-188400000D02*
X111020960Y-188350960D01*
X112220000Y-162780000D02*
X112500000Y-162500000D01*
X164750000Y-122950000D02*
X169666664Y-122950000D01*
X149525000Y-123525000D02*
X149525000Y-125625000D01*
X149525000Y-125525000D02*
X149475000Y-125525000D01*
X150000000Y-122950000D02*
X154916666Y-122950000D01*
X164749998Y-123000000D02*
X164274998Y-123475000D01*
X111020960Y-187030000D02*
X110900960Y-186910000D01*
X174583330Y-123000000D02*
X179500000Y-123000000D01*
X149475000Y-125525000D02*
X148600000Y-126400000D01*
X174108330Y-123475000D02*
X174108330Y-125575000D01*
X126050000Y-192680000D02*
X125480000Y-193250000D01*
X119505000Y-176095000D02*
X119350000Y-175940000D01*
X119110000Y-191500000D02*
X118525000Y-191500000D01*
X111070000Y-188400000D02*
X111070000Y-188270000D01*
X159358332Y-123475000D02*
X159358332Y-125575000D01*
X174533330Y-122950000D02*
X174583330Y-123000000D01*
X112220000Y-167720000D02*
X112250000Y-167750000D01*
X109485000Y-168000000D02*
X109500000Y-168000000D01*
X113850000Y-185104174D02*
X114069733Y-184884441D01*
X111070000Y-188400000D02*
X111070000Y-189437500D01*
X164274998Y-123475000D02*
X164274998Y-125575000D01*
X124850925Y-190137500D02*
X125650000Y-190137500D01*
X123000000Y-204950000D02*
X125000000Y-204950000D01*
X120110000Y-192500000D02*
X119110000Y-191500000D01*
X169666664Y-123000000D02*
X169191664Y-123475000D01*
X110120000Y-160865000D02*
X110120000Y-158750000D01*
X179500000Y-123000000D02*
X179025000Y-123475000D01*
X113850000Y-185920000D02*
X113850000Y-185104174D01*
X120687500Y-192500000D02*
X120110000Y-192500000D01*
X123125000Y-193415000D02*
X123110000Y-193400000D01*
X124480000Y-197750000D02*
X125410000Y-197750000D01*
X111020960Y-188350960D02*
X111020960Y-187030000D01*
X123270000Y-191200000D02*
X123788425Y-191200000D01*
X108750000Y-203980000D02*
X108750000Y-204880000D01*
X112220000Y-166550000D02*
X112220000Y-167720000D01*
X110900960Y-186910000D02*
X110600000Y-186910000D01*
X109500000Y-168000000D02*
X110750000Y-169250000D01*
X159833332Y-122950000D02*
X154916666Y-122950000D01*
X123788425Y-191200000D02*
X124850925Y-190137500D01*
X112250000Y-187282850D02*
X112781919Y-187814769D01*
X119120000Y-188799520D02*
X119449500Y-189129020D01*
X117987980Y-202450480D02*
X115410480Y-202450480D01*
X115410480Y-202450480D02*
X115410000Y-202450000D01*
X112940480Y-202810498D02*
X112940480Y-205860480D01*
X114650000Y-188062500D02*
X114650000Y-189300000D01*
X122210000Y-191300000D02*
X122310000Y-191200000D01*
X111470000Y-191300000D02*
X110730000Y-192040000D01*
X113550000Y-196037500D02*
X114650000Y-194937500D01*
X112530000Y-180100000D02*
X112530000Y-181040000D01*
X111000000Y-185230000D02*
X110410000Y-185230000D01*
X118250000Y-188062500D02*
X118250000Y-186617500D01*
X119387020Y-202250480D02*
X119387020Y-201912980D01*
X118270000Y-186417500D02*
X118959511Y-185727989D01*
X114620000Y-190900000D02*
X114950000Y-190570000D01*
X113812500Y-189300000D02*
X113280705Y-189300000D01*
X119449500Y-189129020D02*
X119449500Y-190879012D01*
X123900000Y-179910000D02*
X123900000Y-180636537D01*
X113812500Y-191300000D02*
X114220000Y-191300000D01*
X112725000Y-179905000D02*
X112530000Y-180100000D01*
X118455225Y-188799520D02*
X119120000Y-188799520D01*
X119387020Y-202250480D02*
X122200480Y-202250480D01*
X117796139Y-200532798D02*
X118292419Y-201029078D01*
X113075480Y-189094775D02*
X113075480Y-188870000D01*
X114650000Y-206580000D02*
X119551288Y-206580000D01*
X118587500Y-203050000D02*
X117987980Y-202450480D01*
X113550000Y-196157500D02*
X113550000Y-196037500D01*
X113550000Y-196157500D02*
X112642500Y-196157500D01*
X123900000Y-180636537D02*
X123693150Y-180843387D01*
X114220000Y-191300000D02*
X114950000Y-190570000D01*
X118480000Y-196940000D02*
X117796139Y-197623861D01*
X115088387Y-180843387D02*
X114150000Y-179905000D01*
X113660000Y-206580000D02*
X114650000Y-206580000D01*
X118250000Y-194937500D02*
X118250000Y-196710000D01*
X112030000Y-188400000D02*
X111420480Y-187790480D01*
X111067500Y-190900000D02*
X110730000Y-191237500D01*
X120687500Y-191300000D02*
X122210000Y-191300000D01*
X112940480Y-205860480D02*
X113660000Y-206580000D01*
X118959511Y-184240008D02*
X118260000Y-183540497D01*
X114950000Y-189600000D02*
X114650000Y-189300000D01*
X123693150Y-180843387D02*
X115088387Y-180843387D01*
X114650000Y-187680000D02*
X113850000Y-186880000D01*
X113850000Y-186880000D02*
X113830000Y-186900000D01*
X110730000Y-192040000D02*
X110730000Y-192237500D01*
X117796139Y-198800000D02*
X117796139Y-200532798D01*
X114950000Y-190570000D02*
X114950000Y-189600000D01*
X111420480Y-187790480D02*
X111420480Y-185650480D01*
X113107503Y-186562497D02*
X113078775Y-186533769D01*
X119387020Y-201912980D02*
X119760000Y-201540000D01*
X119870488Y-191300000D02*
X119449500Y-190879012D01*
X113812500Y-190900000D02*
X111067500Y-190900000D01*
X118587500Y-203050000D02*
X119387020Y-202250480D01*
X113280705Y-189300000D02*
X113075480Y-189094775D01*
X110730000Y-192237500D02*
X110730000Y-191237500D01*
X113075480Y-188870000D02*
X112719760Y-188514280D01*
X111420480Y-185650480D02*
X111000000Y-185230000D01*
X113078775Y-186533769D02*
X113078775Y-184754029D01*
X112144280Y-188514280D02*
X112030000Y-188400000D01*
X117796139Y-197623861D02*
X117796139Y-198800000D01*
X114650000Y-188062500D02*
X114650000Y-187680000D01*
X119551288Y-206580000D02*
X119873924Y-206902636D01*
X112530000Y-181040000D02*
X112540000Y-181050000D01*
X122200480Y-202250480D02*
X123000000Y-203050000D01*
X115410000Y-202450000D02*
X113300978Y-202450000D01*
X114650000Y-189300000D02*
X113812500Y-189300000D01*
X118250000Y-188062500D02*
X118250000Y-188594295D01*
X118959511Y-185727989D02*
X118959511Y-184240008D01*
X113445006Y-186900000D02*
X113107503Y-186562497D01*
X113812500Y-190900000D02*
X114620000Y-190900000D01*
X113300978Y-202450000D02*
X112940480Y-202810498D01*
X118250000Y-188594295D02*
X118455225Y-188799520D01*
X112642500Y-196157500D02*
X112400000Y-196400000D01*
X114950000Y-189600000D02*
X114950000Y-190030000D01*
X114150000Y-179905000D02*
X112725000Y-179905000D01*
X118250000Y-196710000D02*
X118480000Y-196940000D01*
X123000000Y-203050000D02*
X125000000Y-203050000D01*
X112719760Y-188514280D02*
X112144280Y-188514280D01*
X120687500Y-191300000D02*
X119870488Y-191300000D01*
X113830000Y-186900000D02*
X113445006Y-186900000D01*
X113812500Y-191300000D02*
X111470000Y-191300000D01*
X123900000Y-193550000D02*
X123900000Y-192500000D01*
X123520000Y-197750000D02*
X123520000Y-196595000D01*
X121822459Y-192209040D02*
X121713419Y-192100000D01*
X123125000Y-196200000D02*
X123399022Y-196200000D01*
X124000000Y-193650000D02*
X123900000Y-193550000D01*
X121713419Y-192100000D02*
X120687500Y-192100000D01*
X123900000Y-192500000D02*
X123609040Y-192209040D01*
X123609040Y-192209040D02*
X121822459Y-192209040D01*
X124000000Y-195599022D02*
X124000000Y-193650000D01*
X123520000Y-196595000D02*
X123125000Y-196200000D01*
X123399022Y-196200000D02*
X124000000Y-195599022D01*
D39*
X174625489Y-127074511D02*
X170741175Y-127074511D01*
X107915480Y-166325480D02*
X108790000Y-167200000D01*
X108750000Y-203020000D02*
X110120000Y-203020000D01*
X124457735Y-142924484D02*
X124457734Y-144096079D01*
X155391666Y-126608334D02*
X154925489Y-127074511D01*
X170741175Y-127074511D02*
X170141664Y-126475000D01*
X110120000Y-203020000D02*
X110600000Y-203500000D01*
X139312319Y-126512319D02*
X125557573Y-140267065D01*
X169666664Y-121050000D02*
X174533330Y-121050000D01*
X150000000Y-121050000D02*
X154916666Y-121050000D01*
X175657841Y-127074511D02*
X179525489Y-127074511D01*
X110600000Y-204620000D02*
X109870000Y-205350000D01*
X108589273Y-162300000D02*
X107915480Y-162973793D01*
X175058330Y-126641670D02*
X174625489Y-127074511D01*
X180905844Y-126475000D02*
X181315422Y-126884578D01*
X155391666Y-126475000D02*
X155391666Y-126608334D01*
X108790000Y-167200000D02*
X109485000Y-167200000D01*
X109485000Y-162300000D02*
X108589273Y-162300000D01*
X164750000Y-121050000D02*
X169666664Y-121050000D01*
X103728842Y-195978842D02*
X105505194Y-197755194D01*
X174583330Y-121100000D02*
X179500000Y-121100000D01*
X103728841Y-188683342D02*
X103728842Y-189035026D01*
X179525489Y-127074511D02*
X179975000Y-126625000D01*
X165824509Y-127074511D02*
X165224998Y-126475000D01*
X111474511Y-168214511D02*
X111474511Y-169775489D01*
X170141664Y-126475000D02*
X170141664Y-126558336D01*
X110460000Y-167200000D02*
X111474511Y-168214511D01*
X170141664Y-126558336D02*
X169625489Y-127074511D01*
X179975000Y-126475000D02*
X180905844Y-126475000D01*
X165224998Y-126575002D02*
X164725489Y-127074511D01*
X174533330Y-121050000D02*
X174583330Y-121100000D01*
X160907843Y-127074511D02*
X160308332Y-126475000D01*
X164725489Y-127074511D02*
X160907843Y-127074511D01*
X160308332Y-126591668D02*
X159825489Y-127074511D01*
X112199897Y-161775489D02*
X111675386Y-162300000D01*
X151074511Y-127074511D02*
X150475000Y-126475000D01*
X165224998Y-126475000D02*
X165224998Y-126575002D01*
X125557573Y-140267065D02*
X125557572Y-141824647D01*
X103728842Y-189035026D02*
X103728842Y-195978842D01*
X110600000Y-203500000D02*
X110600000Y-204620000D01*
X108750000Y-202050362D02*
X108750000Y-203020000D01*
X110750000Y-170500000D02*
X110750000Y-173479590D01*
X107915480Y-162973793D02*
X107915480Y-166325480D01*
X182990020Y-126509980D02*
X182990020Y-124590020D01*
X105505194Y-197755194D02*
X105505193Y-198805554D01*
X182990020Y-124590020D02*
X179500000Y-121100000D01*
X104717883Y-179511708D02*
X104717883Y-187694299D01*
X154916666Y-121050000D02*
X159833332Y-121050000D01*
X124457734Y-144096079D02*
X123840361Y-144713452D01*
X160308332Y-126475000D02*
X160308332Y-126591668D01*
X125557572Y-141824647D02*
X124457735Y-142924484D01*
X150000000Y-121050000D02*
X144774639Y-121050000D01*
X179975000Y-126625000D02*
X179975000Y-126475000D01*
X150475000Y-126475000D02*
X150475000Y-126724022D01*
X104717883Y-187694299D02*
X103728841Y-188683342D01*
X159825489Y-127074511D02*
X155991177Y-127074511D01*
X109485000Y-167200000D02*
X110460000Y-167200000D01*
X111675386Y-162300000D02*
X109485000Y-162300000D01*
X159833332Y-121050000D02*
X164750000Y-121050000D01*
X169625489Y-127074511D02*
X165824509Y-127074511D01*
X154925489Y-127074511D02*
X151074511Y-127074511D01*
X175058330Y-126475000D02*
X175058330Y-126641670D01*
X111474511Y-169775489D02*
X110750000Y-170500000D01*
X144774639Y-121050000D02*
X139312319Y-126512319D01*
X110750000Y-173479590D02*
X104717883Y-179511708D01*
X175058330Y-126475000D02*
X175657841Y-127074511D01*
X155991177Y-127074511D02*
X155391666Y-126475000D01*
X105505193Y-198805554D02*
X108750000Y-202050362D01*
X113520000Y-205500000D02*
X113520000Y-203880000D01*
X113900000Y-203500000D02*
X114350000Y-203050000D01*
X116312500Y-203050000D02*
X117253928Y-203050000D01*
X120300000Y-204250000D02*
X121000000Y-204950000D01*
X113520000Y-203880000D02*
X113900000Y-203500000D01*
X118453928Y-204250000D02*
X120300000Y-204250000D01*
X122099500Y-206049500D02*
X125350000Y-206049500D01*
X117253928Y-203050000D02*
X118453928Y-204250000D01*
X121000000Y-204950000D02*
X122099500Y-206049500D01*
X114350000Y-203050000D02*
X116312500Y-203050000D01*
D38*
X109485000Y-164500000D02*
X110410000Y-164500000D01*
X110390000Y-165500000D02*
X111210000Y-165500000D01*
X110590000Y-165300000D02*
X110390000Y-165500000D01*
X109485000Y-165500000D02*
X110390000Y-165500000D01*
X110590000Y-164680000D02*
X110590000Y-165300000D01*
X110410000Y-164500000D02*
X110590000Y-164680000D01*
X111210000Y-165500000D02*
X111260000Y-165550000D01*
X109485000Y-165000000D02*
X108510978Y-165000000D01*
X108340000Y-164829022D02*
X108340000Y-164150000D01*
X108490000Y-164000000D02*
X109485000Y-164000000D01*
X108510978Y-165000000D02*
X108340000Y-164829022D01*
X109485000Y-164000000D02*
X110710000Y-164000000D01*
X110710000Y-164000000D02*
X111260000Y-164550000D01*
X108340000Y-164150000D02*
X108490000Y-164000000D01*
D39*
X153292644Y-125625000D02*
X154192644Y-126525000D01*
X150475000Y-125625000D02*
X153292644Y-125625000D01*
X154192644Y-126525000D02*
X154441666Y-126525000D01*
X155391666Y-125575000D02*
X158159310Y-125575000D01*
X158159310Y-125575000D02*
X159109310Y-126525000D01*
X159109310Y-126525000D02*
X159358332Y-126525000D01*
X163075976Y-125575000D02*
X164025976Y-126525000D01*
X164025976Y-126525000D02*
X164274998Y-126525000D01*
X160308332Y-125575000D02*
X163075976Y-125575000D01*
X123900000Y-178850000D02*
X123900000Y-176850980D01*
X123900000Y-176850980D02*
X123910980Y-176840000D01*
D38*
X106150960Y-193100000D02*
X106150962Y-189686612D01*
X113655030Y-194100000D02*
X113147514Y-194607515D01*
X107145673Y-188691901D02*
X107145673Y-180520655D01*
X122940000Y-176249284D02*
X122640358Y-175949642D01*
X113812500Y-194100000D02*
X113655030Y-194100000D01*
X106150960Y-194930972D02*
X106150960Y-193100000D01*
X122935000Y-179905000D02*
X122940000Y-179910000D01*
X106150962Y-189686612D02*
X107145673Y-188691901D01*
X121350000Y-179905000D02*
X122935000Y-179905000D01*
X111197918Y-196557110D02*
X107777095Y-196557107D01*
X122940000Y-178850000D02*
X122940000Y-176249284D01*
X107777095Y-196557107D02*
X106150960Y-194930972D01*
X122940000Y-178850000D02*
X122940000Y-179910000D01*
X107145673Y-180520655D02*
X107140000Y-180514982D01*
X121387157Y-174696440D02*
X122640358Y-175949642D01*
X113147514Y-194607515D02*
X111197918Y-196557110D01*
X107140000Y-180514982D02*
X112958542Y-174696440D01*
X112958542Y-174696440D02*
X121387157Y-174696440D01*
X124110480Y-191809520D02*
X121987945Y-191809520D01*
X121878425Y-191700000D02*
X120687500Y-191700000D01*
X121987945Y-191809520D02*
X121878425Y-191700000D01*
X125200000Y-190720000D02*
X124110480Y-191809520D01*
D39*
X165224998Y-125575000D02*
X167992642Y-125575000D01*
X167992642Y-125575000D02*
X168942642Y-126525000D01*
X168942642Y-126525000D02*
X169191664Y-126525000D01*
D38*
X113812500Y-193700000D02*
X113110000Y-193700000D01*
X106550481Y-189852099D02*
X107545193Y-188857387D01*
X113124028Y-175095960D02*
X115320967Y-175095961D01*
X106550480Y-194765486D02*
X106550481Y-189852099D01*
X116990486Y-176765480D02*
X122205480Y-176765480D01*
X111032433Y-196157590D02*
X110701460Y-196157589D01*
X122449520Y-177009520D02*
X122449520Y-177850480D01*
X112955298Y-194234726D02*
X111032433Y-196157590D01*
X107545193Y-180674795D02*
X113124028Y-175095960D01*
X107545193Y-188857387D02*
X107545193Y-180674795D01*
X122205480Y-176765480D02*
X122449520Y-177009520D01*
X113110000Y-193700000D02*
X112955299Y-193854701D01*
X115320967Y-175095961D02*
X116990486Y-176765480D01*
X121665000Y-178635000D02*
X121350000Y-178635000D01*
X107942582Y-196157588D02*
X106550480Y-194765486D01*
X112955299Y-193854701D02*
X112955298Y-194234726D01*
X110701460Y-196157589D02*
X107942582Y-196157588D01*
X122449520Y-177850480D02*
X121665000Y-178635000D01*
X107944712Y-180840282D02*
X113289514Y-175495480D01*
X115155480Y-175495480D02*
X117025000Y-177365000D01*
X112927524Y-193300000D02*
X112555779Y-193671745D01*
X106950000Y-194600000D02*
X106950000Y-190017586D01*
X112555778Y-194069240D02*
X110866947Y-195758070D01*
X108108069Y-195758069D02*
X106950000Y-194600000D01*
X107949759Y-189017827D02*
X107949759Y-186900000D01*
X113289514Y-175495480D02*
X115155480Y-175495480D01*
X110866947Y-195758070D02*
X109850000Y-195758069D01*
X109850000Y-195758069D02*
X108108069Y-195758069D01*
X117025000Y-177365000D02*
X121350000Y-177365000D01*
X106950000Y-190017586D02*
X107949759Y-189017827D01*
X107949759Y-186900000D02*
X107944711Y-186894952D01*
X113812500Y-193300000D02*
X112927524Y-193300000D01*
X107944711Y-186894952D02*
X107944712Y-180840282D01*
X112555779Y-193671745D02*
X112555778Y-194069240D01*
X112156259Y-193506259D02*
X112156259Y-193903753D01*
X107350000Y-190182592D02*
X108349279Y-189183313D01*
X108349279Y-186300000D02*
X108344231Y-186294952D01*
X110370489Y-195358549D02*
X108289278Y-195358549D01*
X108349279Y-189183313D02*
X108349279Y-186300000D01*
X112511541Y-192938458D02*
X112511541Y-193150977D01*
X112550000Y-192900000D02*
X112511541Y-192938458D01*
X108344231Y-186294952D02*
X108344231Y-181005769D01*
X110701462Y-195358550D02*
X110370489Y-195358549D01*
X112156259Y-193903753D02*
X110701462Y-195358550D01*
X108344231Y-181005769D02*
X113255000Y-176095000D01*
X113255000Y-176095000D02*
X114150000Y-176095000D01*
X108289278Y-195358549D02*
X107350000Y-194419271D01*
X107350000Y-194419271D02*
X107350000Y-190182592D01*
X112511541Y-193150977D02*
X112156259Y-193506259D01*
X113812500Y-192900000D02*
X112550000Y-192900000D01*
X113812500Y-192500000D02*
X112270000Y-192500000D01*
X110535976Y-194959030D02*
X108454765Y-194959030D01*
X112808419Y-177365000D02*
X114150000Y-177365000D01*
X112270000Y-192500000D02*
X112112023Y-192657977D01*
X108743750Y-181429669D02*
X112808419Y-177365000D01*
X108748799Y-181434718D02*
X108743750Y-181429669D01*
X107750480Y-194254745D02*
X107750481Y-190347117D01*
X107750481Y-190347117D02*
X108748799Y-189348799D01*
X111709039Y-193785967D02*
X110535976Y-194959030D01*
X111709040Y-193388472D02*
X111709039Y-193785967D01*
X108454765Y-194959030D02*
X107750480Y-194254745D01*
X112112023Y-192657977D02*
X112112022Y-192985490D01*
X108748799Y-189348799D02*
X108748799Y-181434718D01*
X112112022Y-192985490D02*
X111709040Y-193388472D01*
X110370489Y-194559511D02*
X108620252Y-194559511D01*
X108150000Y-194089259D02*
X108150000Y-190512604D01*
X113812500Y-192100000D02*
X111855006Y-192100000D01*
X109190480Y-189472124D02*
X109190480Y-181547945D01*
X111855006Y-192100000D02*
X111712503Y-192242503D01*
X111309520Y-193222986D02*
X111309520Y-193620480D01*
X111712503Y-192242503D02*
X111712503Y-192820003D01*
X108150000Y-190512604D02*
X109190480Y-189472124D01*
X111309520Y-193620480D02*
X110370489Y-194559511D01*
X112103425Y-178635000D02*
X114150000Y-178635000D01*
X111712503Y-192820003D02*
X111309520Y-193222986D01*
X108620252Y-194559511D02*
X108150000Y-194089259D01*
X109190480Y-181547945D02*
X112103425Y-178635000D01*
X122427945Y-189150480D02*
X124102532Y-189150480D01*
X121878425Y-189700000D02*
X122427945Y-189150480D01*
X124102532Y-189150480D02*
X124121915Y-189131097D01*
X120687500Y-189700000D02*
X121878425Y-189700000D01*
X115050000Y-188062500D02*
X115050000Y-186670000D01*
X115100000Y-186620000D02*
X115100000Y-182858539D01*
X115050000Y-186670000D02*
X115100000Y-186620000D01*
X115100000Y-182858539D02*
X114851461Y-182610000D01*
X115550961Y-182004790D02*
X115712137Y-181843614D01*
X115550961Y-186818070D02*
X115550961Y-184640000D01*
X115450000Y-186942891D02*
X115562891Y-186830000D01*
X115562891Y-186830000D02*
X115550961Y-186818070D01*
X115550961Y-184640000D02*
X115550961Y-182004790D01*
X115450000Y-188062500D02*
X115450000Y-186942891D01*
X116547497Y-181997497D02*
X117302087Y-181242907D01*
X115962411Y-187120000D02*
X115962410Y-186495486D01*
X118240000Y-181242907D02*
X119237927Y-181242909D01*
X133660000Y-184559500D02*
X135221000Y-184559500D01*
X135221000Y-184559500D02*
X135749872Y-184030628D01*
X121435018Y-183440000D02*
X121920000Y-183440000D01*
X115962410Y-185220000D02*
X115950481Y-185208071D01*
X117302087Y-181242907D02*
X118240000Y-181242907D01*
X115950481Y-182594513D02*
X116547497Y-181997497D01*
X115850000Y-187232411D02*
X115962411Y-187120000D01*
X121920000Y-183440000D02*
X121940000Y-183420000D01*
X115950481Y-185208071D02*
X115950481Y-182594513D01*
X119237927Y-181242909D02*
X120822509Y-182827491D01*
X115962410Y-186495486D02*
X115962410Y-185220000D01*
X115850000Y-188062500D02*
X115850000Y-187232411D01*
X120822509Y-182827491D02*
X121435018Y-183440000D01*
X116250000Y-188995545D02*
X116254332Y-188999877D01*
X116250000Y-188062500D02*
X116250000Y-188995545D01*
X116350000Y-182890000D02*
X116350000Y-182760000D01*
X116361930Y-186330000D02*
X116361930Y-182901930D01*
X116361931Y-187196938D02*
X116361930Y-186330000D01*
X116361930Y-182901930D02*
X116350000Y-182890000D01*
X119306473Y-181876461D02*
X121353209Y-183923197D01*
X119072440Y-181642428D02*
X119306473Y-181876461D01*
X117467574Y-181642426D02*
X118520000Y-181642427D01*
X116650000Y-187485006D02*
X116547497Y-187382503D01*
X121353209Y-183923197D02*
X121353209Y-184241032D01*
X116970000Y-182140000D02*
X117467574Y-181642426D01*
X116650000Y-188062500D02*
X116650000Y-187485006D01*
X116350000Y-182760000D02*
X116970000Y-182140000D01*
X116547497Y-187382503D02*
X116361931Y-187196938D01*
X118520000Y-181642427D02*
X119072440Y-181642428D01*
X118906953Y-182041947D02*
X119697503Y-182832497D01*
X117050000Y-187320000D02*
X116810000Y-187080000D01*
X117050000Y-188062500D02*
X117050000Y-187320000D01*
X116761451Y-182919775D02*
X116995484Y-182685742D01*
X120170000Y-184465872D02*
X120587125Y-184882997D01*
X120170000Y-184320000D02*
X120170000Y-184465872D01*
X116995484Y-182685742D02*
X117639280Y-182041946D01*
X116761450Y-183290000D02*
X116761451Y-182919775D01*
X117639280Y-182041946D02*
X117970253Y-182041947D01*
X116810000Y-187080000D02*
X116761451Y-187031451D01*
X133412423Y-185312423D02*
X134360000Y-185312423D01*
X120170000Y-183304994D02*
X120170000Y-184320000D01*
X119697503Y-182832497D02*
X120170000Y-183304994D01*
X116761450Y-186514514D02*
X116761450Y-183290000D01*
X116761451Y-187031451D02*
X116761450Y-186514514D01*
X117970253Y-182041947D02*
X118906953Y-182041947D01*
X131780000Y-183680000D02*
X133412423Y-185312423D01*
X118440000Y-182441466D02*
X118741466Y-182441466D01*
X117450480Y-188062020D02*
X117450480Y-187150000D01*
X117160970Y-186860490D02*
X117160970Y-186680000D01*
X119759520Y-185060000D02*
X119759520Y-185124514D01*
X121000988Y-185582497D02*
X122711743Y-183871742D01*
X117804766Y-182441466D02*
X118440000Y-182441466D01*
X122913403Y-183670082D02*
X122913403Y-183175507D01*
X120217503Y-185582497D02*
X121000988Y-185582497D01*
X119759520Y-185124514D02*
X120217503Y-185582497D01*
X117450480Y-187150000D02*
X117160970Y-186860490D01*
X117450000Y-188062500D02*
X117450480Y-188062020D01*
X122711743Y-183871742D02*
X122913403Y-183670082D01*
X119759519Y-183459519D02*
X119759520Y-185060000D01*
X117593116Y-182653116D02*
X117804766Y-182441466D01*
X119160000Y-182860000D02*
X119759519Y-183459519D01*
X117160970Y-186680000D02*
X117160970Y-183085262D01*
X117160970Y-183085262D02*
X117593116Y-182653116D01*
X118741466Y-182441466D02*
X119160000Y-182860000D01*
X121087050Y-186061441D02*
X123910980Y-183237511D01*
X118959511Y-183250749D02*
X118959511Y-183675002D01*
X119360000Y-184075491D02*
X119360000Y-185290000D01*
X118549748Y-182840986D02*
X118959511Y-183250749D01*
X117560489Y-183250749D02*
X117970252Y-182840986D01*
X119360000Y-185290000D02*
X120131441Y-186061441D01*
X120131441Y-186061441D02*
X121087050Y-186061441D01*
X117970252Y-182840986D02*
X118549748Y-182840986D01*
X117560489Y-186639564D02*
X117560489Y-183250749D01*
X118959511Y-183675002D02*
X119360000Y-184075491D01*
X117850000Y-188062500D02*
X117850000Y-186929075D01*
X117850000Y-186929075D02*
X117560489Y-186639564D01*
X119720706Y-186460961D02*
X121291932Y-186460961D01*
X123515879Y-184237014D02*
X123910980Y-184237014D01*
X118650000Y-187200693D02*
X119389732Y-186460961D01*
X119500000Y-186460961D02*
X119720706Y-186460961D01*
X119389732Y-186460961D02*
X119500000Y-186460961D01*
X118650000Y-188062500D02*
X118650000Y-187200693D01*
X122701447Y-185051446D02*
X123515879Y-184237014D01*
X121291932Y-186460961D02*
X122701447Y-185051446D01*
X119555219Y-186860480D02*
X121290000Y-186860480D01*
X119050000Y-188062500D02*
X119050000Y-187365699D01*
X123081382Y-185236517D02*
X123910980Y-185236517D01*
X119284514Y-187131185D02*
X119555219Y-186860480D01*
X121998950Y-186318949D02*
X123081382Y-185236517D01*
X121290000Y-186860480D02*
X121457419Y-186860480D01*
X119050000Y-187365699D02*
X119284514Y-187131185D01*
X121457419Y-186860480D02*
X121998950Y-186318949D01*
X122890000Y-186260257D02*
X123132710Y-186260257D01*
X119450000Y-188062500D02*
X119450000Y-187530705D01*
X122622648Y-186260257D02*
X122890000Y-186260257D01*
X119720705Y-187260000D02*
X120900000Y-187260000D01*
X120900000Y-187260000D02*
X121622905Y-187260000D01*
X123132710Y-186260257D02*
X123337700Y-186055267D01*
X119450000Y-187530705D02*
X119720705Y-187260000D01*
X121622905Y-187260000D02*
X122622648Y-186260257D01*
X123389744Y-186800499D02*
X123426283Y-186837038D01*
X121548255Y-188062500D02*
X122810256Y-186800499D01*
X119850000Y-188062500D02*
X121548255Y-188062500D01*
X123426283Y-186837038D02*
X124020167Y-186837038D01*
X122810256Y-186800499D02*
X123389744Y-186800499D01*
X123420000Y-187680000D02*
X123440000Y-187660000D01*
X123420000Y-187710969D02*
X123420000Y-187680000D01*
X122737444Y-187710969D02*
X123420000Y-187710969D01*
X120687500Y-188900000D02*
X121548413Y-188900000D01*
X122569207Y-187879206D02*
X122737444Y-187710969D01*
X121548413Y-188900000D02*
X122569207Y-187879206D01*
D39*
X125200000Y-191680000D02*
X124520000Y-192360000D01*
X124520000Y-192360000D02*
X124520000Y-193250000D01*
X124520000Y-194445000D02*
X124875000Y-194800000D01*
X124520000Y-193250000D02*
X124520000Y-194445000D01*
D38*
X114782411Y-200547600D02*
X111872568Y-200547598D01*
X105351921Y-189355641D02*
X106340961Y-188366601D01*
X112627570Y-173897400D02*
X121737594Y-173897400D01*
X107128273Y-197068279D02*
X105351920Y-195291926D01*
X117049040Y-196100000D02*
X117049040Y-196375990D01*
X108584712Y-199577515D02*
X107128273Y-198121076D01*
X107128273Y-198121076D02*
X107128273Y-197068279D01*
X117050000Y-194937500D02*
X117050000Y-196099040D01*
X117050000Y-196099040D02*
X117049040Y-196100000D01*
X117049040Y-196375990D02*
X116297600Y-197127430D01*
X122779750Y-164614744D02*
X122000000Y-164614744D01*
X110902485Y-199577515D02*
X108584712Y-199577515D01*
X122000000Y-164614744D02*
X121789249Y-164403993D01*
X121789249Y-164403993D02*
X121789249Y-164264764D01*
X123811439Y-165646433D02*
X122779750Y-164614744D01*
X106340961Y-188366601D02*
X106340962Y-180184008D01*
X116297600Y-197127430D02*
X116297597Y-199032415D01*
X116297597Y-199032415D02*
X114782411Y-200547600D01*
X111872568Y-200547598D02*
X110902485Y-199577515D01*
D39*
X195520315Y-122305924D02*
X206750216Y-122305924D01*
D38*
X106340962Y-180184008D02*
X112627570Y-173897400D01*
X121737594Y-173897400D02*
X123811440Y-171823554D01*
X105351920Y-195291926D02*
X105351921Y-189355641D01*
X123811440Y-171823554D02*
X123811439Y-165646433D01*
D39*
X146243422Y-127694078D02*
X200908469Y-127694078D01*
X138987500Y-134950000D02*
X146243422Y-127694078D01*
D38*
X116697119Y-197800000D02*
X116697119Y-199197899D01*
X117449520Y-195840000D02*
X117449520Y-196540516D01*
X117449520Y-196540516D02*
X117070018Y-196920018D01*
X117070018Y-196920018D02*
X116697120Y-197292916D01*
X105941442Y-182990000D02*
X105941443Y-180018521D01*
X105762494Y-196267506D02*
X104952400Y-195457412D01*
X120921928Y-165014264D02*
X120858117Y-164950453D01*
X104952402Y-189190154D02*
X105861278Y-188281278D01*
X116697120Y-197292916D02*
X116697119Y-197800000D01*
X106728753Y-197450000D02*
X106728753Y-197233765D01*
X114000000Y-200947119D02*
X111707081Y-200947117D01*
X113884513Y-173497881D02*
X121572107Y-173497881D01*
X106454982Y-179504982D02*
X110794982Y-175164982D01*
X117450000Y-194937500D02*
X117449520Y-194937980D01*
X123200000Y-165600000D02*
X122800970Y-165200970D01*
X104952400Y-195457412D02*
X104952401Y-191430000D01*
X123411920Y-171658068D02*
X123411920Y-165811920D01*
X123411920Y-165811920D02*
X123200000Y-165600000D01*
X114947899Y-200947119D02*
X114000000Y-200947119D01*
X107796095Y-199353904D02*
X106728753Y-198286562D01*
X112793057Y-173497881D02*
X113884513Y-173497881D01*
X105941443Y-180018521D02*
X106454982Y-179504982D01*
D39*
X210493516Y-122305924D02*
X217980117Y-122305924D01*
D38*
X122800970Y-165200970D02*
X122500000Y-165200970D01*
X117449520Y-194937980D02*
X117449520Y-195840000D01*
X106728753Y-197233765D02*
X105762494Y-196267506D01*
X109970000Y-199977035D02*
X108419225Y-199977034D01*
X112462084Y-173497880D02*
X112793057Y-173497881D01*
X121572107Y-173497881D02*
X123334994Y-171734994D01*
X122313294Y-165014264D02*
X120921928Y-165014264D01*
X122500000Y-165200970D02*
X122313294Y-165014264D01*
X111473048Y-200713084D02*
X110736999Y-199977035D01*
X106728753Y-198286562D02*
X106728753Y-197450000D01*
X104952401Y-191430000D02*
X104952402Y-189190154D01*
X111707081Y-200947117D02*
X111473048Y-200713084D01*
X123334994Y-171734994D02*
X123411920Y-171658068D01*
X108419225Y-199977034D02*
X107796095Y-199353904D01*
X105861278Y-188281278D02*
X105941441Y-188201115D01*
X116697119Y-199197899D02*
X116463083Y-199431935D01*
X110736999Y-199977035D02*
X109970000Y-199977035D01*
X105941441Y-188201115D02*
X105941442Y-182990000D01*
X116463083Y-199431935D02*
X114947899Y-200947119D01*
X110794982Y-175164982D02*
X112462084Y-173497880D01*
D39*
X198794991Y-130167149D02*
X198120000Y-129492158D01*
X215881670Y-127694078D02*
X214276295Y-129299453D01*
X207193433Y-130167149D02*
X198794991Y-130167149D01*
X163495342Y-129492158D02*
X158037500Y-134950000D01*
X198120000Y-129492158D02*
X163495342Y-129492158D01*
X214276295Y-129299453D02*
X208061130Y-129299453D01*
X208061130Y-129299453D02*
X207193433Y-130167149D01*
D38*
X105541921Y-188035629D02*
X104552880Y-189024670D01*
X115113385Y-201346639D02*
X117096638Y-199363386D01*
X105541924Y-179853034D02*
X105541921Y-188035629D01*
X106329234Y-197399252D02*
X106329233Y-198452048D01*
X123012400Y-166010241D02*
X123012400Y-171492582D01*
X123012400Y-171492582D02*
X121406621Y-173098361D01*
X112296599Y-173098360D02*
X105541924Y-179853034D01*
X121616651Y-165600489D02*
X122602648Y-165600489D01*
D39*
X221723417Y-122305924D02*
X229210018Y-122305924D01*
D38*
X117849039Y-196706003D02*
X117849040Y-196539385D01*
X122602648Y-165600489D02*
X123012400Y-166010241D01*
X108253738Y-200376553D02*
X110571513Y-200376555D01*
X110571513Y-200376555D02*
X111541594Y-201346636D01*
X117096638Y-199363386D02*
X117096640Y-197458402D01*
X106329233Y-198452048D02*
X108253738Y-200376553D01*
X121406621Y-173098361D02*
X112296599Y-173098360D01*
X117849040Y-196539385D02*
X117850000Y-196538425D01*
X121503365Y-165713775D02*
X121616651Y-165600489D01*
X117096640Y-197458402D02*
X117849039Y-196706003D01*
X111541594Y-201346636D02*
X115113385Y-201346639D01*
D39*
X232953318Y-122305924D02*
X229210018Y-122305924D01*
D38*
X104552880Y-195622898D02*
X106329234Y-197399252D01*
X104552880Y-189024670D02*
X104552880Y-195622898D01*
X117850000Y-196538425D02*
X117850000Y-194937500D01*
D39*
X198240208Y-131519520D02*
X197612005Y-130891317D01*
X215846436Y-130650000D02*
X208617736Y-130650000D01*
X220317608Y-129268109D02*
X217228327Y-129268109D01*
X208617736Y-130650000D02*
X207748216Y-131519520D01*
X181146183Y-130891317D02*
X177087500Y-134950000D01*
X227111571Y-127694078D02*
X225005922Y-127694078D01*
X197612005Y-130891317D02*
X181146183Y-130891317D01*
X207748216Y-131519520D02*
X198240208Y-131519520D01*
X225005922Y-127694078D02*
X223881411Y-128818589D01*
X223881411Y-128818589D02*
X220767129Y-128818589D01*
X220767129Y-128818589D02*
X220317608Y-129268109D01*
X217228327Y-129268109D02*
X215846436Y-130650000D01*
D38*
X122312900Y-166300000D02*
X122612880Y-166599980D01*
D39*
X236696618Y-122305924D02*
X244183219Y-122305924D01*
D38*
X110110000Y-200776075D02*
X110406027Y-200776075D01*
X118650000Y-196178426D02*
X118650000Y-194937500D01*
X119299511Y-201011230D02*
X119299511Y-196827936D01*
X110406027Y-200776075D02*
X111376110Y-201746158D01*
X105142405Y-179687547D02*
X105142401Y-187870143D01*
X122612880Y-166599980D02*
X122612880Y-171327096D01*
X105142401Y-187870143D02*
X104153361Y-188859183D01*
X105929714Y-197564738D02*
X105929713Y-198629713D01*
X112131111Y-172698841D02*
X105142405Y-179687547D01*
X104153361Y-188859183D02*
X104153361Y-195788385D01*
X119299511Y-196827936D02*
X118650000Y-196178426D01*
X122612880Y-171327096D02*
X121241135Y-172698841D01*
X111376110Y-201746158D02*
X118564582Y-201746159D01*
X110109998Y-200776073D02*
X110110000Y-200776075D01*
X105929713Y-198629713D02*
X108076073Y-200776073D01*
X121241135Y-172698841D02*
X112131111Y-172698841D01*
X118564582Y-201746159D02*
X119299511Y-201011230D01*
X104153361Y-195788385D02*
X105929714Y-197564738D01*
X108076073Y-200776073D02*
X110109998Y-200776073D01*
D39*
X217964308Y-131075000D02*
X221132152Y-131075000D01*
X215475000Y-132450000D02*
X216589308Y-132450000D01*
X228110238Y-130200000D02*
X228535718Y-129774520D01*
X235175000Y-129350000D02*
X235525000Y-129000000D01*
X208580960Y-133318560D02*
X209450000Y-132449520D01*
X196137500Y-134950000D02*
X197768940Y-133318560D01*
X216589308Y-132450000D02*
X217964308Y-131075000D01*
X215474520Y-132449520D02*
X215475000Y-132450000D01*
X225125000Y-130200000D02*
X228110238Y-130200000D01*
X209450000Y-132449520D02*
X215474520Y-132449520D01*
X235525000Y-129000000D02*
X238875000Y-129000000D01*
X221590484Y-130616668D02*
X224708332Y-130616668D01*
X231846915Y-129774520D02*
X232271436Y-129350000D01*
X221132152Y-131075000D02*
X221590484Y-130616668D01*
X224708332Y-130616668D02*
X225125000Y-130200000D01*
X240180922Y-127694078D02*
X242084772Y-127694078D01*
X228535718Y-129774520D02*
X231846915Y-129774520D01*
X232271436Y-129350000D02*
X235175000Y-129350000D01*
X197768940Y-133318560D02*
X208580960Y-133318560D01*
X238875000Y-129000000D02*
X240180922Y-127694078D01*
D38*
X128846638Y-193925967D02*
X128846638Y-191990000D01*
X127516241Y-186832955D02*
X127516234Y-185388889D01*
X127516232Y-185388887D02*
X127516232Y-185388882D01*
X128577118Y-195102882D02*
X128580000Y-195100000D01*
X127516249Y-188046214D02*
X127516241Y-186832955D01*
X128580000Y-194192605D02*
X128846638Y-193925967D01*
X122205027Y-200756638D02*
X124039027Y-200756639D01*
X127516229Y-185388873D02*
X127407120Y-185279768D01*
X127407120Y-162407120D02*
X127400000Y-162400000D01*
X119050000Y-196013419D02*
X119853370Y-196816788D01*
X127516232Y-185388882D02*
X127516229Y-185388879D01*
X128846636Y-189376601D02*
X127516249Y-188046214D01*
X119050000Y-194937500D02*
X119050000Y-196013419D01*
X119853370Y-196816788D02*
X119853370Y-197560000D01*
X128846638Y-191990000D02*
X128846636Y-189376601D01*
X128577118Y-197700000D02*
X128577118Y-195102882D01*
X119853370Y-197560000D02*
X119853372Y-198404983D01*
X127407120Y-165132880D02*
X127407120Y-162407120D01*
X119853372Y-198404983D02*
X122205027Y-200756638D01*
X128580000Y-195100000D02*
X128580000Y-194192605D01*
X127407120Y-185279768D02*
X127407120Y-165132880D01*
X124039027Y-200756639D02*
X124159507Y-200877119D01*
X126682920Y-200877116D02*
X128577119Y-198982916D01*
X124159507Y-200877119D02*
X126682920Y-200877116D01*
X127516234Y-185388889D02*
X127516232Y-185388887D01*
X128577119Y-198982916D02*
X128577118Y-197700000D01*
X127516229Y-185388879D02*
X127516229Y-185388873D01*
D39*
X247926519Y-122305924D02*
X255413120Y-122305924D01*
X232475481Y-131149039D02*
X229197397Y-131149039D01*
X243671436Y-129325000D02*
X243271436Y-129725000D01*
X253314673Y-127694078D02*
X251505922Y-127694078D01*
X221689785Y-132424520D02*
X218521942Y-132424520D01*
X246985718Y-129000000D02*
X246660718Y-129325000D01*
X228771436Y-131575000D02*
X225657153Y-131575000D01*
X232900000Y-130724520D02*
X232475481Y-131149039D01*
X222140267Y-131974039D02*
X221689785Y-132424520D01*
X225657153Y-131575000D02*
X225258112Y-131974040D01*
X240085718Y-129725000D02*
X239460718Y-130350000D01*
X225258112Y-131974040D02*
X224975000Y-131974039D01*
X235707633Y-130724519D02*
X232900000Y-130724520D01*
X246660718Y-129325000D02*
X243671436Y-129325000D01*
X215996462Y-134950000D02*
X215187500Y-134950000D01*
X224975000Y-131974039D02*
X222140267Y-131974039D01*
X251505922Y-127694078D02*
X250200000Y-129000000D01*
X236082152Y-130350000D02*
X235707633Y-130724519D01*
X229197397Y-131149039D02*
X228771436Y-131575000D01*
X239460718Y-130350000D02*
X236082152Y-130350000D01*
X218521942Y-132424520D02*
X215996462Y-134950000D01*
X250200000Y-129000000D02*
X246985718Y-129000000D01*
X243271436Y-129725000D02*
X240085718Y-129725000D01*
D38*
X119450000Y-194937500D02*
X119450000Y-195570000D01*
X128447118Y-193374993D02*
X128447117Y-189542088D01*
X127116738Y-188119661D02*
X127116731Y-186998439D01*
D39*
X259156420Y-122305924D02*
X270386321Y-122305924D01*
D38*
X119450000Y-195570000D02*
X120252890Y-196372890D01*
X127116721Y-185554364D02*
X127007600Y-185445247D01*
X128177598Y-198486458D02*
X128177599Y-194030000D01*
X128447117Y-189542088D02*
X127070715Y-188165686D01*
X128177599Y-198817431D02*
X128177598Y-198486458D01*
X127070715Y-188165686D02*
X127116738Y-188119661D01*
X124204513Y-200357119D02*
X124324993Y-200477599D01*
X127116724Y-185554378D02*
X127116724Y-185554373D01*
X127116731Y-186998439D02*
X127116726Y-185554380D01*
X126517433Y-200477597D02*
X128177599Y-198817431D01*
X122370514Y-200357119D02*
X124204513Y-200357119D01*
X128177599Y-194030000D02*
X128447119Y-193760480D01*
X128447119Y-193760480D02*
X128447118Y-193374993D01*
X124324993Y-200477599D02*
X126517433Y-200477597D01*
X127116721Y-185554370D02*
X127116721Y-185554364D01*
X120252891Y-198239496D02*
X122370514Y-200357119D01*
X127007600Y-185445247D02*
X127007600Y-163421110D01*
X127007600Y-163421110D02*
X126693245Y-163106755D01*
X127116726Y-185554380D02*
X127116724Y-185554378D01*
X120252890Y-196372890D02*
X120252891Y-198239496D01*
X127116724Y-185554373D02*
X127116721Y-185554370D01*
D39*
X254196915Y-129874520D02*
X251232632Y-129874520D01*
X236639785Y-131699520D02*
X236265264Y-132074040D01*
X257825480Y-129324520D02*
X254746916Y-129324520D01*
X258300000Y-128850000D02*
X257825480Y-129324520D01*
X236265264Y-132074040D02*
X234825000Y-132074040D01*
X261350000Y-128850000D02*
X258300000Y-128850000D01*
X243829550Y-131074039D02*
X240643833Y-131074039D01*
X240018351Y-131699520D02*
X236639785Y-131699520D01*
X247218832Y-130674039D02*
X244229550Y-130674039D01*
X262505922Y-127694078D02*
X261350000Y-128850000D01*
X240643833Y-131074039D02*
X240018351Y-131699520D01*
X254746916Y-129324520D02*
X254196915Y-129874520D01*
X264544574Y-127694078D02*
X262505922Y-127694078D01*
X251232632Y-129874520D02*
X250741556Y-130365596D01*
X234825000Y-132074040D02*
X234237500Y-132661540D01*
X250741556Y-130365596D02*
X247527274Y-130365597D01*
X244229550Y-130674039D02*
X243829550Y-131074039D01*
X234237500Y-132661540D02*
X234237500Y-134950000D01*
X247527274Y-130365597D02*
X247218832Y-130674039D01*
D38*
X126717216Y-185719864D02*
X126717213Y-185719861D01*
X126617056Y-188057145D02*
X126617062Y-188057139D01*
X128047599Y-193540480D02*
X128047598Y-189707575D01*
X120077500Y-194937500D02*
X120652409Y-195512409D01*
X125993734Y-163396503D02*
X125993734Y-162817007D01*
X126597231Y-164000000D02*
X125993734Y-163396503D01*
X126617092Y-188057067D02*
X126617092Y-188054319D01*
X124490479Y-200078079D02*
X126351946Y-200078078D01*
X126617073Y-188057113D02*
X126617073Y-188057100D01*
X127110741Y-161700000D02*
X127800000Y-161700000D01*
X119850000Y-194937500D02*
X120077500Y-194937500D01*
X126617083Y-188057089D02*
X126617082Y-188057077D01*
X126351946Y-200078078D02*
X127778079Y-198651945D01*
X126608080Y-185610726D02*
X126608080Y-164788870D01*
X126608080Y-164008080D02*
X126600000Y-164000000D01*
D39*
X274129621Y-122305924D02*
X281616221Y-122305924D01*
D38*
X126617062Y-188057139D02*
X126617062Y-188057135D01*
X126617062Y-188057135D02*
X126617065Y-188057132D01*
X126717213Y-185719861D02*
X126717213Y-185719855D01*
X126717221Y-187163923D02*
X126717218Y-185719870D01*
X126608080Y-188268057D02*
X126608080Y-188066130D01*
X126608080Y-164788870D02*
X126608080Y-164008080D01*
X126617082Y-188057077D02*
X126617092Y-188057067D01*
X126617092Y-188054319D02*
X126717226Y-187954182D01*
X126600000Y-164000000D02*
X126597231Y-164000000D01*
X127800000Y-161700000D02*
X128849011Y-161700000D01*
X126717213Y-185719855D02*
X126608080Y-185610726D01*
X126105371Y-162705370D02*
X127110741Y-161700000D01*
X127778079Y-198651945D02*
X127778079Y-193810000D01*
X125993734Y-162817007D02*
X126105371Y-162705370D01*
X126608080Y-188066130D02*
X126617056Y-188057153D01*
X126717216Y-185719868D02*
X126717216Y-185719864D01*
X122536000Y-199957599D02*
X124369999Y-199957599D01*
X127778079Y-193810000D02*
X128047599Y-193540480D01*
X126617073Y-188057100D02*
X126617083Y-188057089D01*
X126617065Y-188057132D02*
X126617065Y-188057122D01*
X126617065Y-188057122D02*
X126617073Y-188057113D01*
X120652410Y-198074009D02*
X122536000Y-199957599D01*
X128047598Y-189707575D02*
X126608080Y-188268057D01*
X120652409Y-195512409D02*
X120652410Y-198074009D01*
X126617056Y-188057153D02*
X126617056Y-188057145D01*
X126717226Y-187954182D02*
X126717225Y-187840288D01*
X126717218Y-185719870D02*
X126717216Y-185719868D01*
X124369999Y-199957599D02*
X124490479Y-200078079D01*
X126717225Y-187840288D02*
X126717221Y-187163923D01*
D39*
X262092872Y-130650000D02*
X259042871Y-130650000D01*
X255244652Y-131369652D02*
X253287500Y-133326804D01*
X258567870Y-131125000D02*
X255489305Y-131125000D01*
X276325000Y-128925000D02*
X273160718Y-128925000D01*
X277555922Y-127694078D02*
X276325000Y-128925000D01*
X279517775Y-127694078D02*
X277555922Y-127694078D01*
X269018688Y-129825000D02*
X265957153Y-129825000D01*
X269443688Y-129400000D02*
X269018688Y-129825000D01*
X262542872Y-130200000D02*
X262092872Y-130650000D01*
X265582153Y-130200000D02*
X262542872Y-130200000D01*
X265957153Y-129825000D02*
X265582153Y-130200000D01*
X259042871Y-130650000D02*
X258567870Y-131125000D01*
X273160718Y-128925000D02*
X272685718Y-129400000D01*
X272685718Y-129400000D02*
X269443688Y-129400000D01*
X253287500Y-133326804D02*
X253287500Y-134950000D01*
X255489305Y-131125000D02*
X255244652Y-131369652D01*
D38*
X126317714Y-187788703D02*
X126317711Y-187329408D01*
X126217562Y-187891617D02*
X126217572Y-187891607D01*
X126317711Y-187329408D02*
X126317708Y-185885354D01*
X122701485Y-199558078D02*
X124594513Y-199558079D01*
X126217552Y-187891655D02*
X126217554Y-187891650D01*
X126945255Y-161300480D02*
X127965486Y-161300480D01*
X121051929Y-197908522D02*
X122701485Y-199558078D01*
X124594513Y-199558079D02*
X124714994Y-199678560D01*
X124714994Y-199678560D02*
X125045967Y-199678559D01*
X125916112Y-163883887D02*
X125594215Y-163561990D01*
X126186459Y-199678559D02*
X127378557Y-198486461D01*
X128259272Y-161300480D02*
X128329876Y-161229876D01*
X125045967Y-199678559D02*
X126186459Y-199678559D01*
X121051929Y-194271929D02*
X121051929Y-197908522D01*
X127648079Y-189873062D02*
X126208560Y-188433543D01*
X127648078Y-193370481D02*
X127648079Y-189873062D01*
X126208560Y-164623384D02*
X126208560Y-164176335D01*
X126217545Y-187891662D02*
X126217552Y-187891655D01*
X126208560Y-164176335D02*
X125916112Y-163883887D01*
X128329876Y-161229876D02*
X128959752Y-160600000D01*
X120687500Y-194100000D02*
X120880000Y-194100000D01*
X126217572Y-187891607D02*
X126217572Y-187888848D01*
X126222868Y-162022867D02*
X126945255Y-161300480D01*
X127378557Y-198486461D02*
X127378557Y-198155487D01*
X120880000Y-194100000D02*
X121051929Y-194271929D01*
X126208560Y-187900656D02*
X126217545Y-187891671D01*
X125594215Y-163231016D02*
X125594215Y-162651520D01*
X126208560Y-188433543D02*
X126208560Y-187900656D01*
X127378559Y-193640000D02*
X127648078Y-193370481D01*
X126208560Y-185776205D02*
X126208560Y-164623384D01*
X126217554Y-187891639D02*
X126217563Y-187891629D01*
X127378557Y-198155487D02*
X127378559Y-198155485D01*
X125594215Y-163561990D02*
X125594215Y-163231016D01*
X126317705Y-185885346D02*
X126208560Y-185776205D01*
X128959752Y-160600000D02*
X129023540Y-160600000D01*
X126217545Y-187891671D02*
X126217545Y-187891662D01*
X127378559Y-198155485D02*
X127378559Y-193640000D01*
X126217554Y-187891650D02*
X126217554Y-187891639D01*
D39*
X285359522Y-122305924D02*
X292846122Y-122305924D01*
D38*
X126317708Y-185885354D02*
X126317705Y-185885351D01*
X126217563Y-187891629D02*
X126217562Y-187891617D01*
X126317705Y-185885351D02*
X126317705Y-185885346D01*
X127965486Y-161300480D02*
X128259272Y-161300480D01*
X126217572Y-187888848D02*
X126317714Y-187788703D01*
X125594215Y-162651520D02*
X126222868Y-162022867D01*
D39*
X287700000Y-128875000D02*
X284310718Y-128875000D01*
X280674068Y-129399520D02*
X280249547Y-129824040D01*
X277333113Y-129824039D02*
X276882152Y-130275000D01*
X273717870Y-130275000D02*
X272337500Y-131655370D01*
X272337500Y-131655370D02*
X272337500Y-134950000D01*
X283786197Y-129399520D02*
X280674068Y-129399520D01*
X290747676Y-127694078D02*
X288880922Y-127694078D01*
X280249547Y-129824040D02*
X279525000Y-129824039D01*
X276882152Y-130275000D02*
X273717870Y-130275000D01*
X284310718Y-128875000D02*
X283786197Y-129399520D01*
X288880922Y-127694078D02*
X287700000Y-128875000D01*
X279525000Y-129824039D02*
X277333113Y-129824039D01*
D38*
X113812500Y-190500000D02*
X109151863Y-190500000D01*
X109151863Y-190500000D02*
X109116737Y-190535126D01*
X114950000Y-165550000D02*
X115250000Y-165250000D01*
X112220000Y-165550000D02*
X114950000Y-165550000D01*
X116200000Y-164550000D02*
X116250000Y-164500000D01*
X112220000Y-164550000D02*
X116200000Y-164550000D01*
X113812500Y-190100000D02*
X110166651Y-190100000D01*
X110166651Y-190100000D02*
X109867151Y-189800500D01*
X126900000Y-151700000D02*
X126900000Y-151500000D01*
X125194696Y-163600000D02*
X125194696Y-163305304D01*
X125818034Y-187726189D02*
X125818034Y-187726179D01*
X126020972Y-199279040D02*
X126979038Y-198320974D01*
X125818042Y-187726157D02*
X125818052Y-187726147D01*
X121451449Y-193940000D02*
X121451451Y-197743038D01*
X121390000Y-193700000D02*
X121451449Y-193761449D01*
X126900000Y-160780729D02*
X126900000Y-151700000D01*
X125440365Y-162240364D02*
X126900000Y-160780729D01*
X125809040Y-185941684D02*
X125809040Y-164457898D01*
X125918202Y-187623224D02*
X125918201Y-187494893D01*
X125809040Y-164457898D02*
X125194696Y-163843554D01*
X121451451Y-197743038D02*
X122866972Y-199158559D01*
X127248559Y-193176459D02*
X127248558Y-190038546D01*
X127248558Y-190038546D02*
X127014524Y-189804513D01*
X125818052Y-187723377D02*
X125918202Y-187623224D01*
D39*
X296589422Y-122305924D02*
X304076023Y-122305924D01*
D38*
X126979038Y-198320974D02*
X126979039Y-197130000D01*
X125194696Y-163305304D02*
X125194696Y-162486033D01*
X122866972Y-199158559D02*
X124760000Y-199158560D01*
X125809040Y-188599029D02*
X125809040Y-187735184D01*
X125918197Y-186050837D02*
X125809040Y-185941684D01*
X126979039Y-193445979D02*
X127248559Y-193176459D01*
X125818052Y-187726147D02*
X125818052Y-187723377D01*
X125818043Y-187726169D02*
X125818042Y-187726157D01*
X125818034Y-187726179D02*
X125818043Y-187726169D01*
X125194696Y-163843554D02*
X125194696Y-163600000D01*
X124880480Y-199279040D02*
X126020972Y-199279040D01*
X124760000Y-199158560D02*
X124880480Y-199279040D01*
X126900000Y-143328160D02*
X126271840Y-142700000D01*
X125918201Y-187494893D02*
X125918197Y-186050837D01*
X121451449Y-193761449D02*
X121451449Y-193940000D01*
X127014524Y-189804513D02*
X125809040Y-188599029D01*
X120687500Y-193700000D02*
X121390000Y-193700000D01*
X125194696Y-162486033D02*
X125440365Y-162240364D01*
X126900000Y-151700000D02*
X126900000Y-143328160D01*
X125809040Y-187735184D02*
X125818034Y-187726189D01*
X126979039Y-197130000D02*
X126979039Y-193445979D01*
D39*
X291387500Y-133073218D02*
X291387500Y-134950000D01*
X301977576Y-127694078D02*
X300105922Y-127694078D01*
X298800000Y-129000000D02*
X295460718Y-129000000D01*
X295460718Y-129000000D02*
X291387500Y-133073218D01*
X300105922Y-127694078D02*
X298800000Y-129000000D01*
D38*
X121850970Y-197577551D02*
X123032459Y-198759040D01*
X126500480Y-155900000D02*
X126500480Y-145000000D01*
X125409520Y-184600000D02*
X125409520Y-177400000D01*
X126849039Y-190204033D02*
X125409520Y-188764514D01*
X126500480Y-145000000D02*
X126500480Y-144008682D01*
X125518688Y-186216325D02*
X125409520Y-186107159D01*
X125409520Y-186107159D02*
X125409520Y-184600000D01*
X126579520Y-193280492D02*
X126849040Y-193010972D01*
X125093068Y-164306932D02*
X124795176Y-164009040D01*
X124795176Y-164009040D02*
X124795176Y-163139818D01*
X125010000Y-198759040D02*
X125130480Y-198879520D01*
X125409520Y-188764514D02*
X125409520Y-187569710D01*
X125657862Y-161457861D02*
X126500480Y-160615243D01*
X125418523Y-187560696D02*
X125418532Y-187560687D01*
X125418532Y-187560687D02*
X125418532Y-187557905D01*
X124795176Y-163139818D02*
X124795177Y-162320546D01*
X121760000Y-193300000D02*
X121850969Y-193390969D01*
X125409520Y-164623384D02*
X125093068Y-164306932D01*
X126579519Y-198155487D02*
X126579520Y-193280492D01*
X125855486Y-198879520D02*
X126579519Y-198155487D01*
X125518690Y-187457745D02*
X125518688Y-186216325D01*
X125409520Y-177400000D02*
X125409520Y-165200000D01*
X125130480Y-198879520D02*
X125855486Y-198879520D01*
X123032459Y-198759040D02*
X125010000Y-198759040D01*
X121850969Y-193390969D02*
X121850970Y-197577551D01*
X124795177Y-162320546D02*
X125657862Y-161457861D01*
X125418523Y-187560707D02*
X125418523Y-187560696D01*
X125409520Y-187569710D02*
X125418523Y-187560707D01*
X126500480Y-160615243D02*
X126500480Y-155900000D01*
X125418532Y-187557905D02*
X125518690Y-187457745D01*
X120687500Y-193300000D02*
X121760000Y-193300000D01*
X125409520Y-165200000D02*
X125409520Y-164623384D01*
X126500480Y-144008682D02*
X126200500Y-143708702D01*
X126849040Y-193010972D02*
X126849039Y-190204033D01*
D39*
X307819323Y-122305924D02*
X315305924Y-122305924D01*
X310437500Y-129262500D02*
X310437500Y-134950000D01*
X313207477Y-127694078D02*
X312005922Y-127694078D01*
X312005922Y-127694078D02*
X310437500Y-129262500D01*
D38*
X126100960Y-144932101D02*
X125800980Y-144632121D01*
X126449520Y-190369520D02*
X125010000Y-188930000D01*
D39*
X319049224Y-122305924D02*
X326535825Y-122305924D01*
D38*
X125010000Y-187404239D02*
X125019012Y-187395226D01*
X125019012Y-187392432D02*
X125119179Y-187292264D01*
X125010000Y-188930000D02*
X125010000Y-187404239D01*
X125199520Y-198359520D02*
X125320000Y-198480000D01*
X122250489Y-193200489D02*
X122250489Y-197412064D01*
X125320000Y-198480000D02*
X125690000Y-198480000D01*
X125690000Y-198480000D02*
X126180000Y-197990000D01*
X123197945Y-198359520D02*
X125199520Y-198359520D01*
X121950000Y-192900000D02*
X122250489Y-193200489D01*
X124395656Y-164195656D02*
X124395656Y-162800000D01*
X126180000Y-193115006D02*
X126449520Y-192845486D01*
X125119178Y-186961298D02*
X125119178Y-186381810D01*
X125010000Y-164810000D02*
X124395656Y-164195656D01*
X126449520Y-192845486D02*
X126449520Y-190369520D01*
X124395658Y-162155059D02*
X126100960Y-160449757D01*
X125010000Y-186272633D02*
X125010000Y-164810000D01*
X120687500Y-192900000D02*
X121950000Y-192900000D01*
X122250489Y-197412064D02*
X123197945Y-198359520D01*
X124395656Y-162800000D02*
X124395658Y-162155059D01*
X126100960Y-160449757D02*
X126100960Y-144932101D01*
X125119179Y-187292264D02*
X125119178Y-186961298D01*
X125019012Y-187395226D02*
X125019012Y-187392432D01*
X126180000Y-197990000D02*
X126180000Y-193115006D01*
X125119178Y-186381810D02*
X125010000Y-186272633D01*
D39*
X324437378Y-129899878D02*
X329487500Y-134950000D01*
X324437378Y-127694078D02*
X324437378Y-129899878D01*
D38*
X120687500Y-189300000D02*
X121713419Y-189300000D01*
D39*
X330279125Y-122305924D02*
X341509026Y-122305924D01*
D38*
X124719668Y-186547294D02*
X124610480Y-186438106D01*
X124719668Y-187126782D02*
X124719668Y-186547294D01*
X121713419Y-189300000D02*
X122653918Y-188359501D01*
X125701440Y-160284271D02*
X125701440Y-145700000D01*
X124610480Y-186438106D02*
X124610480Y-164975486D01*
X125701440Y-145700000D02*
X125180483Y-145179043D01*
X125180483Y-145179043D02*
X124964391Y-145179043D01*
X123996137Y-164030169D02*
X123996139Y-161989572D01*
X124139501Y-187706949D02*
X124719668Y-187126782D01*
X124610480Y-164975486D02*
X123996136Y-164361142D01*
X122653918Y-188359501D02*
X123729744Y-188359501D01*
X124139501Y-187949744D02*
X124139501Y-187706949D01*
X123996136Y-164361142D02*
X123996137Y-164030169D01*
X123996139Y-161989572D02*
X125701440Y-160284271D01*
X123729744Y-188359501D02*
X124139501Y-187949744D01*
D39*
X336791790Y-126569567D02*
X347869567Y-126569567D01*
X348537500Y-127237500D02*
X348537500Y-134950000D01*
X347869567Y-126569567D02*
X348537500Y-127237500D01*
X335667279Y-127694078D02*
X336791790Y-126569567D01*
X147700000Y-128143598D02*
X145390000Y-130453598D01*
X145390000Y-130453598D02*
X145390000Y-149978750D01*
X145390000Y-149978750D02*
X141368750Y-154000000D01*
X204651770Y-127694078D02*
X203527259Y-128818589D01*
X203527259Y-128818589D02*
X199484991Y-128818589D01*
X198810000Y-128143598D02*
X147700000Y-128143598D01*
X199484991Y-128818589D02*
X198810000Y-128143598D01*
X162800000Y-132920000D02*
X162800000Y-154000000D01*
X219624971Y-127694078D02*
X217530922Y-127694078D01*
X217530922Y-127694078D02*
X215476027Y-129748973D01*
X215476027Y-129748973D02*
X208247327Y-129748973D01*
X198608793Y-130616669D02*
X197971062Y-129978938D01*
X208247327Y-129748973D02*
X207379631Y-130616669D01*
X197971062Y-129978938D02*
X165741062Y-129978938D01*
X207379631Y-130616669D02*
X198608793Y-130616669D01*
X165741062Y-129978938D02*
X162800000Y-132920000D01*
X208803934Y-131099520D02*
X207933454Y-131970000D01*
X230854871Y-127694078D02*
X228701871Y-127694078D01*
X216032633Y-131099520D02*
X208803934Y-131099520D01*
X198054970Y-131970000D02*
X197425807Y-131340837D01*
X185800000Y-131340837D02*
X181850000Y-135290837D01*
X228701871Y-127694078D02*
X227577360Y-128818589D01*
X221031891Y-129268109D02*
X220582372Y-129717628D01*
X227577360Y-128818589D02*
X224517129Y-128818589D01*
X217414526Y-129717628D02*
X216032633Y-131099520D01*
X181850000Y-135290837D02*
X181850000Y-154000000D01*
X224067608Y-129268109D02*
X221031891Y-129268109D01*
X220582372Y-129717628D02*
X217414526Y-129717628D01*
X224517129Y-128818589D02*
X224067608Y-129268109D01*
X207933454Y-131970000D02*
X198054970Y-131970000D01*
X197425807Y-131340837D02*
X185800000Y-131340837D01*
X235711198Y-129449520D02*
X235361197Y-129799520D01*
X218150026Y-131525000D02*
X216775026Y-132900000D01*
X235361197Y-129799520D02*
X232457633Y-129799520D01*
X209635238Y-132900000D02*
X208767157Y-133768080D01*
X228425480Y-130649520D02*
X225311198Y-130649520D01*
X208767157Y-133768080D02*
X203925000Y-133768080D01*
X221767870Y-131075000D02*
X221317870Y-131525000D01*
X239061197Y-129449520D02*
X235711198Y-129449520D01*
X232457633Y-129799520D02*
X232007152Y-130250000D01*
X245828072Y-127694078D02*
X244030922Y-127694078D01*
X239685718Y-128825000D02*
X239061197Y-129449520D01*
X228825000Y-130250000D02*
X228425480Y-130649520D01*
X225311198Y-130649520D02*
X224885718Y-131075000D01*
X242900000Y-128825000D02*
X239685718Y-128825000D01*
X203925000Y-133768080D02*
X200900000Y-136793080D01*
X244030922Y-127694078D02*
X242900000Y-128825000D01*
X221317870Y-131525000D02*
X218150026Y-131525000D01*
X224885718Y-131075000D02*
X221767870Y-131075000D01*
X216775026Y-132900000D02*
X209635238Y-132900000D01*
X200900000Y-136793080D02*
X200900000Y-154000000D01*
X232007152Y-130250000D02*
X228825000Y-130250000D01*
X253825000Y-128975000D02*
X250860718Y-128975000D01*
X225842870Y-132025000D02*
X225444310Y-132423559D01*
X236267870Y-130800000D02*
X235892870Y-131175000D01*
X243457154Y-130175000D02*
X240271436Y-130175000D01*
X250860718Y-128975000D02*
X250386197Y-129449520D01*
X235892870Y-131175000D02*
X233085238Y-131175000D01*
X222326464Y-132423559D02*
X222125011Y-132625011D01*
X225444310Y-132423559D02*
X222326464Y-132423559D01*
X233085238Y-131175000D02*
X232661678Y-131598559D01*
X246846436Y-129775000D02*
X243857154Y-129775000D01*
X239646436Y-130800000D02*
X236267870Y-130800000D01*
X240271436Y-130175000D02*
X239646436Y-130800000D01*
X243857154Y-129775000D02*
X243457154Y-130175000D01*
X250386197Y-129449520D02*
X247171916Y-129449520D01*
X255105922Y-127694078D02*
X253825000Y-128975000D01*
X219950000Y-134800022D02*
X219950000Y-154000000D01*
X229383595Y-131598559D02*
X228957154Y-132025000D01*
X257057973Y-127694078D02*
X255105922Y-127694078D01*
X247171916Y-129449520D02*
X246846436Y-129775000D01*
X232661678Y-131598559D02*
X229383595Y-131598559D01*
X228957154Y-132025000D02*
X225842870Y-132025000D01*
X222125011Y-132625011D02*
X219950000Y-134800022D01*
X254382152Y-130325000D02*
X254932153Y-129775000D01*
X239000000Y-154000000D02*
X239000000Y-133353588D01*
X258485718Y-129300000D02*
X261535718Y-129300000D01*
X266180922Y-127694078D02*
X268287874Y-127694078D01*
X258010718Y-129775000D02*
X258485718Y-129300000D01*
X261535718Y-129300000D02*
X261985718Y-128850000D01*
X254932153Y-129775000D02*
X258010718Y-129775000D01*
X240828589Y-131525000D02*
X244014307Y-131525000D01*
X251417870Y-130325000D02*
X254382152Y-130325000D01*
X247713472Y-130815117D02*
X250927753Y-130815116D01*
X261985718Y-128850000D02*
X265025000Y-128850000D01*
X265025000Y-128850000D02*
X266180922Y-127694078D01*
X244414307Y-131125000D02*
X247403589Y-131125000D01*
X244014307Y-131525000D02*
X244414307Y-131125000D01*
X250927753Y-130815116D02*
X251417870Y-130325000D01*
X247403589Y-131125000D02*
X247713472Y-130815117D01*
X239000000Y-133353588D02*
X240828589Y-131525000D01*
X280825000Y-127977153D02*
X279877153Y-128925000D01*
X265767871Y-130650000D02*
X262728590Y-130650000D01*
X266143351Y-130274520D02*
X265767871Y-130650000D01*
X281105922Y-127694078D02*
X280825000Y-127975000D01*
X269629886Y-129849520D02*
X269204885Y-130274520D01*
X269204885Y-130274520D02*
X266143351Y-130274520D01*
X276511197Y-129374520D02*
X273346916Y-129374520D01*
X280825000Y-127975000D02*
X280825000Y-127977153D01*
X258050000Y-135328590D02*
X258050000Y-154000000D01*
X279877153Y-128925000D02*
X276960718Y-128925000D01*
X276960718Y-128925000D02*
X276511197Y-129374520D01*
X273346916Y-129374520D02*
X272871915Y-129849520D01*
X283261075Y-127694078D02*
X281105922Y-127694078D01*
X272871915Y-129849520D02*
X269629886Y-129849520D01*
X262728590Y-130650000D02*
X258050000Y-135328590D01*
X284496915Y-129324520D02*
X283972394Y-129849040D01*
X280567152Y-130142152D02*
X277100000Y-133609304D01*
X287886197Y-129324520D02*
X284496915Y-129324520D01*
X288360718Y-128850000D02*
X287886197Y-129324520D01*
X291275000Y-128850000D02*
X288360718Y-128850000D01*
X294490976Y-127694078D02*
X292430922Y-127694078D01*
X280860265Y-129849040D02*
X280567152Y-130142152D01*
X283972394Y-129849040D02*
X280860265Y-129849040D01*
X277100000Y-133609304D02*
X277100000Y-154000000D01*
X292430922Y-127694078D02*
X291275000Y-128850000D01*
X293200000Y-131896436D02*
X293200000Y-139025765D01*
X303250000Y-128000000D02*
X303250000Y-128011954D01*
X292702979Y-139522786D02*
X292702979Y-150552979D01*
X303555922Y-127694078D02*
X303250000Y-128000000D01*
X299467859Y-128967859D02*
X298986197Y-129449520D01*
X305720877Y-127694078D02*
X303555922Y-127694078D01*
X302294095Y-128967859D02*
X299467859Y-128967859D01*
X303250000Y-128011954D02*
X302294095Y-128967859D01*
X295646916Y-129449520D02*
X293200000Y-131896436D01*
X293200000Y-139025765D02*
X292702979Y-139522786D01*
X298986197Y-129449520D02*
X295646916Y-129449520D01*
X292702979Y-150552979D02*
X296150000Y-154000000D01*
X315200000Y-154000000D02*
X315200000Y-129444855D01*
X315200000Y-129444855D02*
X316950777Y-127694078D01*
X333701541Y-133403116D02*
X333701541Y-146307791D01*
X333701541Y-146307791D02*
X341393750Y-154000000D01*
X339410579Y-127694078D02*
X333701541Y-133403116D01*
X198623802Y-128593118D02*
X199298793Y-129268109D01*
X145839520Y-130639796D02*
X147886198Y-128593118D01*
X199298793Y-129268109D02*
X206821039Y-129268109D01*
X206821039Y-129268109D02*
X208395070Y-127694078D01*
X145839520Y-149530000D02*
X145839520Y-130639796D01*
X147886198Y-128593118D02*
X198623802Y-128593118D01*
X146131250Y-173050000D02*
X146131250Y-149821730D01*
X146131250Y-149821730D02*
X145839520Y-149530000D01*
X185986198Y-131790357D02*
X182299520Y-135477035D01*
X182299520Y-151849520D02*
X183630000Y-153180000D01*
X208119651Y-132419520D02*
X197868772Y-132419520D01*
X183630000Y-153180000D02*
X183630000Y-158108265D01*
X217600724Y-130167148D02*
X216217872Y-131550000D01*
X224725000Y-129268109D02*
X224275480Y-129717629D01*
X224275480Y-129717629D02*
X223550000Y-129717628D01*
X181120000Y-160618265D02*
X181120000Y-164255000D01*
X216217872Y-131550000D02*
X208989172Y-131550000D01*
X228156667Y-128875000D02*
X227763557Y-129268109D01*
X208989172Y-131550000D02*
X208119651Y-132419520D01*
X220768569Y-130167148D02*
X217600724Y-130167148D01*
X231475000Y-128875000D02*
X228156667Y-128875000D01*
X223550000Y-129717628D02*
X221218090Y-129717628D01*
X227763557Y-129268109D02*
X224725000Y-129268109D01*
X181120000Y-164255000D02*
X172325000Y-173050000D01*
X197868772Y-132419520D02*
X197239609Y-131790357D01*
X197239609Y-131790357D02*
X185986198Y-131790357D01*
X221218090Y-129717628D02*
X220768569Y-130167148D01*
X183630000Y-158108265D02*
X181120000Y-160618265D01*
X182299520Y-135477035D02*
X182299520Y-151849520D01*
X232655922Y-127694078D02*
X231475000Y-128875000D01*
X234598172Y-127694078D02*
X232655922Y-127694078D01*
X232193351Y-130699519D02*
X232617870Y-130275000D01*
X216885744Y-133425000D02*
X218335744Y-131975000D01*
X221503588Y-131975000D02*
X221954068Y-131524520D01*
X202375000Y-158423081D02*
X202375000Y-152925000D01*
X235521434Y-130275000D02*
X235897396Y-129899039D01*
X221954068Y-131524520D02*
X225071915Y-131524520D01*
X201349520Y-136979278D02*
X204103798Y-134225000D01*
X239275961Y-129899039D02*
X239900000Y-129275000D01*
X208945954Y-134225000D02*
X209745955Y-133425000D01*
X229011198Y-130699520D02*
X232193351Y-130699519D01*
X218335744Y-131975000D02*
X221503588Y-131975000D01*
X239900000Y-129275000D02*
X243085718Y-129275000D01*
X247655922Y-127694078D02*
X249571373Y-127694078D01*
X191375000Y-173050000D02*
X191375000Y-169423081D01*
X243085718Y-129275000D02*
X243485718Y-128875000D01*
X225496436Y-131100000D02*
X228610718Y-131100000D01*
X204103798Y-134225000D02*
X208945954Y-134225000D01*
X225071915Y-131524520D02*
X225496436Y-131100000D01*
X246475000Y-128875000D02*
X247655922Y-127694078D01*
X201349520Y-151899520D02*
X201349520Y-136979278D01*
X235897396Y-129899039D02*
X239275961Y-129899039D01*
X243485718Y-128875000D02*
X246475000Y-128875000D01*
X191375000Y-169423081D02*
X202375000Y-158423081D01*
X232617870Y-130275000D02*
X235521434Y-130275000D01*
X209745955Y-133425000D02*
X216885744Y-133425000D01*
X228610718Y-131100000D02*
X229011198Y-130699520D01*
X202375000Y-152925000D02*
X201349520Y-151899520D01*
X225630507Y-132873079D02*
X222512661Y-132873079D01*
X239832154Y-131250000D02*
X236453588Y-131250000D01*
X254010718Y-129425000D02*
X251046435Y-129425000D01*
X220399520Y-137525000D02*
X221374511Y-138499991D01*
X243643351Y-130624520D02*
X240457634Y-130624520D01*
X244043352Y-130224520D02*
X243643351Y-130624520D01*
X251046435Y-129425000D02*
X250555357Y-129916077D01*
X254560718Y-128875000D02*
X254010718Y-129425000D01*
X258805922Y-127694078D02*
X257625000Y-128875000D01*
X247032633Y-130224520D02*
X244043352Y-130224520D01*
X247341077Y-129916077D02*
X247032633Y-130224520D01*
X250555357Y-129916077D02*
X247341077Y-129916077D01*
X221374511Y-158473570D02*
X210425000Y-169423081D01*
X229567872Y-132050000D02*
X229142872Y-132475000D01*
X257625000Y-128875000D02*
X254560718Y-128875000D01*
X232845954Y-132050000D02*
X229567872Y-132050000D01*
X236079067Y-131624520D02*
X233271435Y-131624520D01*
X220399520Y-134986220D02*
X220399520Y-137525000D01*
X222512661Y-132873079D02*
X220399520Y-134986220D01*
X240457634Y-130624520D02*
X239832154Y-131250000D01*
X229142872Y-132475000D02*
X226028587Y-132475000D01*
X226028587Y-132475000D02*
X225630507Y-132873079D01*
X233271435Y-131624520D02*
X232845954Y-132050000D01*
X236453588Y-131250000D02*
X236079067Y-131624520D01*
X210425000Y-169423081D02*
X210425000Y-173050000D01*
X260801274Y-127694078D02*
X258805922Y-127694078D01*
X221374511Y-138499991D02*
X221374511Y-158473570D01*
X255117870Y-130225000D02*
X254542870Y-130800000D01*
X238300000Y-160588265D02*
X238300000Y-164225000D01*
X265211197Y-129299520D02*
X262171916Y-129299520D01*
X251578587Y-130800000D02*
X251439293Y-130939293D01*
X244600025Y-131575000D02*
X244200504Y-131974520D01*
X241014787Y-131974520D02*
X240557153Y-132432153D01*
X238300000Y-164225000D02*
X229475000Y-173050000D01*
X269750000Y-127800000D02*
X269750000Y-127822252D01*
X240424511Y-158463754D02*
X238300000Y-160588265D01*
X239449520Y-135900000D02*
X240424511Y-136874991D01*
X251113950Y-131264636D02*
X247899671Y-131264636D01*
X240557153Y-132432153D02*
X239449520Y-133539786D01*
X272031174Y-127694078D02*
X269855922Y-127694078D01*
X261721436Y-129750000D02*
X258671436Y-129750000D01*
X247589307Y-131575000D02*
X244600025Y-131575000D01*
X265585718Y-128925000D02*
X265211197Y-129299520D01*
X258196436Y-130225000D02*
X255117870Y-130225000D01*
X244200504Y-131974520D02*
X241014787Y-131974520D01*
X254542870Y-130800000D02*
X251578587Y-130800000D01*
X247899671Y-131264636D02*
X247589307Y-131575000D01*
X239449520Y-133539786D02*
X239449520Y-135900000D01*
X268647252Y-128925000D02*
X265585718Y-128925000D01*
X269750000Y-127822252D02*
X268647252Y-128925000D01*
X258671436Y-129750000D02*
X258196436Y-130225000D01*
X251439293Y-130939293D02*
X251113950Y-131264636D01*
X269855922Y-127694078D02*
X269750000Y-127800000D01*
X240424511Y-136874991D02*
X240424511Y-158463754D01*
X262171916Y-129299520D02*
X261721436Y-129750000D01*
X258499520Y-152149520D02*
X259625000Y-153275000D01*
X257425000Y-160513265D02*
X257425000Y-160525000D01*
X287004375Y-127694078D02*
X284855922Y-127694078D01*
X269391084Y-130724039D02*
X266329550Y-130724039D01*
X273532153Y-129825000D02*
X273058112Y-130299040D01*
X248525000Y-169425000D02*
X248525000Y-173050000D01*
X283600000Y-128950000D02*
X280487871Y-128950000D01*
X266329550Y-130724039D02*
X265928589Y-131125000D01*
X273058112Y-130299040D02*
X269816083Y-130299040D01*
X280063350Y-129374520D02*
X277146915Y-129374520D01*
X258499520Y-135514788D02*
X258499520Y-152149520D01*
X262889308Y-131125000D02*
X258499520Y-135514788D01*
X276696434Y-129825000D02*
X273532153Y-129825000D01*
X284855922Y-127694078D02*
X283600000Y-128950000D01*
X259625000Y-153275000D02*
X259625000Y-158313265D01*
X259625000Y-158313265D02*
X257425000Y-160513265D01*
X277146915Y-129374520D02*
X277085717Y-129435717D01*
X265928589Y-131125000D02*
X262889308Y-131125000D01*
X280487871Y-128950000D02*
X280063350Y-129374520D01*
X269816083Y-130299040D02*
X269391084Y-130724039D01*
X257425000Y-160525000D02*
X248525000Y-169425000D01*
X277085717Y-129435717D02*
X276696434Y-129825000D01*
X288071434Y-129775000D02*
X284682152Y-129775000D01*
X278975000Y-153350000D02*
X278975000Y-158013265D01*
X281045022Y-130300000D02*
X277549520Y-133795502D01*
X276934521Y-160053744D02*
X276934521Y-160065479D01*
X277549520Y-133795502D02*
X277549520Y-151924520D01*
X276934521Y-160065479D02*
X267575000Y-169425000D01*
X267575000Y-169425000D02*
X267575000Y-173050000D01*
X294950000Y-128875000D02*
X291885718Y-128875000D01*
X284682152Y-129775000D02*
X284157152Y-130300000D01*
X291885718Y-128875000D02*
X291461197Y-129299520D01*
X291461197Y-129299520D02*
X288546915Y-129299520D01*
X278975000Y-158013265D02*
X276934521Y-160053744D01*
X296130922Y-127694078D02*
X294950000Y-128875000D01*
X288546915Y-129299520D02*
X288071434Y-129775000D01*
X277549520Y-151924520D02*
X278975000Y-153350000D01*
X298234276Y-127694078D02*
X296130922Y-127694078D01*
X284157152Y-130300000D02*
X281045022Y-130300000D01*
X293649520Y-137049520D02*
X297700000Y-141100000D01*
X293649520Y-132082634D02*
X293649520Y-137049520D01*
X302997672Y-128900000D02*
X302480292Y-129417379D01*
X299654056Y-129417379D02*
X299171434Y-129900000D01*
X307311177Y-127694078D02*
X306105255Y-128900000D01*
X302480292Y-129417379D02*
X299654056Y-129417379D01*
X297700000Y-141100000D02*
X297700000Y-158348081D01*
X286625000Y-169423081D02*
X286625000Y-173050000D01*
X295832154Y-129900000D02*
X293649520Y-132082634D01*
X299171434Y-129900000D02*
X295832154Y-129900000D01*
X297700000Y-158348081D02*
X286625000Y-169423081D01*
X309464177Y-127694078D02*
X307311177Y-127694078D01*
X306105255Y-128900000D02*
X302997672Y-128900000D01*
X320694078Y-127694078D02*
X319488156Y-128900000D01*
X316600000Y-128900000D02*
X315649520Y-129850480D01*
X315000000Y-163725000D02*
X305675000Y-173050000D01*
X315649520Y-149600000D02*
X316624511Y-150574991D01*
X316624511Y-150574991D02*
X316624511Y-157875489D01*
X316624511Y-157875489D02*
X315000000Y-159500000D01*
X315649520Y-129850480D02*
X315649520Y-149600000D01*
X319488156Y-128900000D02*
X316600000Y-128900000D01*
X315000000Y-159500000D02*
X315000000Y-163725000D01*
X328900000Y-141400000D02*
X328900000Y-171256250D01*
X330912011Y-134012011D02*
X330912011Y-139387989D01*
X328180678Y-131280678D02*
X330912011Y-134012011D01*
X328180678Y-127694078D02*
X328180678Y-131280678D01*
X330912011Y-139387989D02*
X328900000Y-141400000D01*
X328900000Y-171256250D02*
X327106250Y-173050000D01*
X344842743Y-154742743D02*
X344842743Y-158257258D01*
X341347957Y-129500000D02*
X338240375Y-129500000D01*
X343153879Y-127694078D02*
X341347957Y-129500000D01*
X342000000Y-151900000D02*
X344842743Y-154742743D01*
X338240375Y-129500000D02*
X334151061Y-133589314D01*
X334151061Y-146100000D02*
X339951061Y-151900000D01*
X334151061Y-133589314D02*
X334151061Y-146100000D01*
X348537500Y-161952015D02*
X348537500Y-173050000D01*
X344842743Y-158257258D02*
X348537500Y-161952015D01*
X339951061Y-151900000D02*
X342000000Y-151900000D01*
X207874933Y-128849933D02*
X207007236Y-129717629D01*
X199074991Y-129717629D02*
X198400000Y-129042638D01*
X145470000Y-179599515D02*
X145470000Y-187998750D01*
X147555761Y-150586721D02*
X147555761Y-177513754D01*
X198400000Y-129042638D02*
X148072396Y-129042638D01*
X145470000Y-187998750D02*
X141368750Y-192100000D01*
X210982515Y-128849933D02*
X207874933Y-128849933D01*
X146289040Y-130825994D02*
X146289040Y-149320000D01*
X212138370Y-127694078D02*
X210982515Y-128849933D01*
X207007236Y-129717629D02*
X199074991Y-129717629D01*
X147555761Y-177513754D02*
X145470000Y-179599515D01*
X146289040Y-149320000D02*
X147555761Y-150586721D01*
X148072396Y-129042638D02*
X146289040Y-130825994D01*
X223368271Y-127694078D02*
X221255922Y-127694078D01*
X198426406Y-131070000D02*
X197798203Y-130441797D01*
X207562018Y-131070000D02*
X198426406Y-131070000D01*
X164450000Y-152960000D02*
X164450000Y-156690000D01*
X162800000Y-158340000D02*
X162800000Y-192100000D01*
X221255922Y-127694078D02*
X220131411Y-128818589D01*
X163277859Y-151787859D02*
X164450000Y-152960000D01*
X197798203Y-130441797D02*
X165913921Y-130441797D01*
X164450000Y-156690000D02*
X162800000Y-158340000D01*
X163277859Y-133077859D02*
X163277859Y-151787859D01*
X215662224Y-130198493D02*
X208433525Y-130198493D01*
X208433525Y-130198493D02*
X207562018Y-131070000D01*
X220131411Y-128818589D02*
X217043589Y-128818589D01*
X217042859Y-128817859D02*
X215662224Y-130198493D01*
X217043589Y-128818589D02*
X217042859Y-128817859D01*
X165913921Y-130441797D02*
X163277859Y-133077859D01*
X228350000Y-129324520D02*
X227956892Y-129717628D01*
X232135718Y-128850000D02*
X231660718Y-129325000D01*
X197669040Y-132869040D02*
X197039877Y-132239877D01*
X221404287Y-130167148D02*
X220954766Y-130616668D01*
X220954766Y-130616668D02*
X217786922Y-130616668D01*
X217786922Y-130616668D02*
X216403590Y-132000000D01*
X208380960Y-132869040D02*
X197669040Y-132869040D01*
X235032550Y-128850000D02*
X232135718Y-128850000D01*
X216403590Y-132000000D02*
X209250000Y-132000000D01*
X209250000Y-132000000D02*
X208380960Y-132869040D01*
X227956892Y-129717628D02*
X224911198Y-129717629D01*
X236188472Y-127694078D02*
X235032550Y-128850000D01*
X229324520Y-129324520D02*
X228350000Y-129324520D01*
X185614521Y-160410479D02*
X181850000Y-164175000D01*
X229325000Y-129325000D02*
X229324520Y-129324520D01*
X181850000Y-164175000D02*
X181850000Y-192100000D01*
X224461677Y-130167149D02*
X221404287Y-130167148D01*
X238341472Y-127694078D02*
X236188472Y-127694078D01*
X197039877Y-132239877D02*
X187950000Y-132239877D01*
X224911198Y-129717629D02*
X224461677Y-130167149D01*
X187950000Y-132239877D02*
X185614521Y-134575356D01*
X231660718Y-129325000D02*
X229325000Y-129325000D01*
X185614521Y-134575356D02*
X185614521Y-160410479D01*
X251764784Y-131249520D02*
X251289304Y-131725000D01*
X254729067Y-131249520D02*
X251764784Y-131249520D01*
X273755922Y-127694078D02*
X272500000Y-128950000D01*
X269257970Y-128950000D02*
X268832970Y-129375000D01*
X243400000Y-158500000D02*
X243400000Y-163350000D01*
X258857154Y-130200000D02*
X258382633Y-130674520D01*
X251289304Y-131725000D02*
X248075025Y-131725000D01*
X241200024Y-132425000D02*
X239899040Y-133725984D01*
X245850000Y-192100000D02*
X250906250Y-192100000D01*
X272500000Y-128950000D02*
X269257970Y-128950000D01*
X240874031Y-155974031D02*
X243400000Y-158500000D01*
X237925000Y-184175000D02*
X245850000Y-192100000D01*
X258382633Y-130674520D02*
X255304068Y-130674520D01*
X239899040Y-135713802D02*
X240874031Y-136688794D01*
X237925000Y-168825000D02*
X237925000Y-184175000D01*
X261907154Y-130200000D02*
X258857154Y-130200000D01*
X239899040Y-133725984D02*
X239899040Y-135713802D01*
X248075025Y-131725000D02*
X247775025Y-132025000D01*
X243400000Y-163350000D02*
X237925000Y-168825000D01*
X244785742Y-132025000D02*
X244385742Y-132425000D01*
X268832970Y-129375000D02*
X265771435Y-129375000D01*
X247775025Y-132025000D02*
X244785742Y-132025000D01*
X262357154Y-129750000D02*
X261907154Y-130200000D01*
X265771435Y-129375000D02*
X265396435Y-129750000D01*
X255304068Y-130674520D02*
X254729067Y-131249520D01*
X275774475Y-127694078D02*
X273755922Y-127694078D01*
X265396435Y-129750000D02*
X262357154Y-129750000D01*
X244385742Y-132425000D02*
X241200024Y-132425000D01*
X240874031Y-136688794D02*
X240874031Y-155974031D01*
X329349520Y-176550480D02*
X326940771Y-178959229D01*
X326940771Y-187502979D02*
X322343750Y-192100000D01*
X333252021Y-129022120D02*
X333252021Y-141597499D01*
X326940771Y-178959229D02*
X326940771Y-187502979D01*
X329349520Y-145500000D02*
X329349520Y-176550480D01*
X331923979Y-127694078D02*
X333252021Y-129022120D01*
X333252021Y-141597499D02*
X329349520Y-145500000D01*
X349962011Y-177537989D02*
X346156250Y-181343750D01*
X349700000Y-138127064D02*
X349700000Y-172100000D01*
X346897180Y-135324244D02*
X349700000Y-138127064D01*
X346156250Y-181343750D02*
X346156250Y-192100000D01*
X349962011Y-172362011D02*
X349962011Y-177537989D01*
X346897180Y-127694078D02*
X346897180Y-135324244D01*
X349700000Y-172100000D02*
X349962011Y-172362011D01*
X148755442Y-127244558D02*
X149525000Y-126475000D01*
X146057224Y-127244558D02*
X148755442Y-127244558D01*
X145325000Y-126512334D02*
X146057224Y-127244558D01*
X145325000Y-126100000D02*
X145325000Y-126512334D01*
D38*
X115050000Y-194937500D02*
X115050000Y-195550000D01*
X114300000Y-198200000D02*
X113950000Y-198550000D01*
X121903080Y-174296920D02*
X124210960Y-171989040D01*
X124210960Y-171989040D02*
X124210960Y-165200000D01*
X112700000Y-198550000D02*
X111106629Y-196956629D01*
X106746153Y-181525000D02*
X106740481Y-181519328D01*
X113950000Y-198550000D02*
X112700000Y-198550000D01*
X124210960Y-165200000D02*
X123596617Y-164585657D01*
X106746153Y-188526415D02*
X106746153Y-181525000D01*
X112793056Y-174296920D02*
X121903080Y-174296920D01*
X111106629Y-196956629D02*
X107581629Y-196956629D01*
X115050000Y-195550000D02*
X114300000Y-196300000D01*
X114300000Y-196300000D02*
X114300000Y-198200000D01*
X106740481Y-181519328D02*
X106740481Y-180349495D01*
X123596617Y-164200000D02*
X123596620Y-161824085D01*
X123830654Y-161590052D02*
X125301920Y-160118786D01*
X107581629Y-196956629D02*
X105751440Y-195126440D01*
X106740481Y-180349495D02*
X112793056Y-174296920D01*
X123596617Y-164585657D02*
X123596617Y-164200000D01*
X123596620Y-161824085D02*
X123830654Y-161590052D01*
X105751440Y-195126440D02*
X105751440Y-189521128D01*
X105751440Y-189521128D02*
X106746153Y-188526415D01*
D39*
X170141664Y-125575000D02*
X172909308Y-125575000D01*
X172909308Y-125575000D02*
X173859308Y-126525000D01*
X173859308Y-126525000D02*
X174108330Y-126525000D01*
D38*
X186349021Y-137490000D02*
X186339021Y-137500000D01*
X114699520Y-196800000D02*
X114699520Y-198365486D01*
X162065500Y-137490000D02*
X151687500Y-137490000D01*
X151687500Y-137490000D02*
X147023540Y-137490000D01*
X241608531Y-137490000D02*
X241598531Y-137500000D01*
X314465500Y-137490000D02*
X304087500Y-137490000D01*
X144655500Y-137490000D02*
X132637500Y-137490000D01*
X238265500Y-137490000D02*
X227887500Y-137490000D01*
X342187500Y-137490000D02*
X334885561Y-137490000D01*
X200175500Y-137500000D02*
X200165500Y-137490000D01*
X114465486Y-198599520D02*
X114115486Y-198949520D01*
X304087500Y-137490000D02*
X295114599Y-137490000D01*
X114115486Y-198949520D02*
X112534513Y-198949519D01*
X276375500Y-137500000D02*
X276365500Y-137490000D01*
X181115500Y-137490000D02*
X170737500Y-137490000D01*
X330187511Y-137500000D02*
X330177511Y-137490000D01*
X170737500Y-137490000D02*
X164012359Y-137490000D01*
X330177511Y-137490000D02*
X323137500Y-137490000D01*
X314475500Y-137500000D02*
X314465500Y-137490000D01*
X291785500Y-137490000D02*
X285037500Y-137490000D01*
X316384020Y-137490000D02*
X316374020Y-137500000D01*
X334885561Y-137490000D02*
X334875561Y-137500000D01*
X292475500Y-136800000D02*
X291785500Y-137490000D01*
X219225500Y-137100000D02*
X218835500Y-137490000D01*
X259234020Y-137490000D02*
X259224020Y-137500000D01*
X189787500Y-137490000D02*
X186349021Y-137490000D01*
X218835500Y-137490000D02*
X208837500Y-137490000D01*
X278284020Y-137490000D02*
X278274020Y-137500000D01*
X114699520Y-196465486D02*
X114699520Y-196800000D01*
X115245003Y-195920003D02*
X114699520Y-196465486D01*
X323137500Y-137490000D02*
X316384020Y-137490000D01*
X276365500Y-137490000D02*
X265987500Y-137490000D01*
X295114599Y-137490000D02*
X294449219Y-136824620D01*
X162075500Y-137500000D02*
X162065500Y-137490000D01*
X238275500Y-137500000D02*
X238265500Y-137490000D01*
X147023540Y-137490000D02*
X147013540Y-137500000D01*
X246937500Y-137490000D02*
X241608531Y-137490000D01*
X257325500Y-137500000D02*
X257315500Y-137490000D01*
X112104997Y-198520003D02*
X111242116Y-197657122D01*
X257315500Y-137490000D02*
X246937500Y-137490000D01*
X200165500Y-137490000D02*
X189787500Y-137490000D01*
X115450000Y-194937500D02*
X115450000Y-195715006D01*
X144665500Y-137500000D02*
X144655500Y-137490000D01*
X221414020Y-137490000D02*
X221124020Y-137200000D01*
X208837500Y-137490000D02*
X202084020Y-137490000D01*
X114699520Y-198365486D02*
X114465486Y-198599520D01*
X112534513Y-198949519D02*
X112104997Y-198520003D01*
X265987500Y-137490000D02*
X259234020Y-137490000D01*
X164012359Y-137490000D02*
X164002359Y-137500000D01*
X111242116Y-197657122D02*
X110817878Y-197657122D01*
X285037500Y-137490000D02*
X278284020Y-137490000D01*
X181125500Y-137500000D02*
X181115500Y-137490000D01*
X227887500Y-137490000D02*
X221414020Y-137490000D01*
X115450000Y-195715006D02*
X115245003Y-195920003D01*
X202084020Y-137490000D02*
X202074020Y-137500000D01*
X279739500Y-156540000D02*
X279699500Y-156500000D01*
X115240006Y-196490006D02*
X115099040Y-196630972D01*
X145406750Y-156500000D02*
X145366750Y-156540000D01*
X203139500Y-156540000D02*
X203099500Y-156500000D01*
X112369026Y-199349038D02*
X111376621Y-198356633D01*
X258860500Y-156540000D02*
X251700000Y-156540000D01*
X110528130Y-198356633D02*
X109827626Y-197656129D01*
X220650011Y-156600000D02*
X220590011Y-156540000D01*
X251700000Y-156540000D02*
X242464598Y-156540000D01*
X258900500Y-156500000D02*
X258860500Y-156540000D01*
X296935500Y-156540000D02*
X289800000Y-156540000D01*
X109827626Y-197656129D02*
X109818376Y-197656129D01*
X328175500Y-156500000D02*
X317349011Y-156500000D01*
X220590011Y-156540000D02*
X213600000Y-156540000D01*
X113400000Y-199349040D02*
X112369026Y-199349038D01*
X163557701Y-156557701D02*
X163540000Y-156540000D01*
X112369026Y-199349038D02*
X112134993Y-199115005D01*
X114280972Y-199349040D02*
X113400000Y-199349040D01*
X115099039Y-198530973D02*
X114665006Y-198965006D01*
X222160000Y-156540000D02*
X222100000Y-156600000D01*
X213600000Y-156540000D02*
X203139500Y-156540000D01*
X114665006Y-198965006D02*
X114280972Y-199349040D01*
X296975500Y-156500000D02*
X296935500Y-156540000D01*
X115850000Y-195880012D02*
X115702506Y-196027506D01*
X110600000Y-198356633D02*
X110528130Y-198356633D01*
X115099040Y-197875000D02*
X115099039Y-198530973D01*
X182905500Y-156500000D02*
X182865500Y-156540000D01*
X270750000Y-156540000D02*
X260389500Y-156540000D01*
X330114020Y-156540000D02*
X330074020Y-156500000D01*
X156450000Y-156540000D02*
X148320261Y-156540000D01*
X335043750Y-156540000D02*
X330114020Y-156540000D01*
X163540000Y-156540000D02*
X156450000Y-156540000D01*
X148320261Y-156540000D02*
X148280261Y-156500000D01*
X298464500Y-156540000D02*
X298424500Y-156500000D01*
X201650500Y-156500000D02*
X201610500Y-156540000D01*
X115099040Y-196630972D02*
X115099040Y-197875000D01*
X239660011Y-156540000D02*
X232650000Y-156540000D01*
X111376621Y-198356633D02*
X110600000Y-198356633D01*
X315860000Y-156540000D02*
X308850000Y-156540000D01*
X186399021Y-156540000D02*
X186339021Y-156600000D01*
X182865500Y-156540000D02*
X175500000Y-156540000D01*
X289800000Y-156540000D02*
X279739500Y-156540000D01*
X194550000Y-156540000D02*
X186399021Y-156540000D01*
X115850000Y-194937500D02*
X115850000Y-195880012D01*
X115702506Y-196027506D02*
X115240006Y-196490006D01*
X242464598Y-156540000D02*
X241611474Y-155686876D01*
X239700011Y-156500000D02*
X239660011Y-156540000D01*
X165624598Y-156540000D02*
X164682299Y-157482299D01*
X232650000Y-156540000D02*
X222160000Y-156540000D01*
X278210500Y-156540000D02*
X270750000Y-156540000D01*
X308850000Y-156540000D02*
X298464500Y-156540000D01*
X260389500Y-156540000D02*
X260349500Y-156500000D01*
X201610500Y-156540000D02*
X194550000Y-156540000D01*
X175500000Y-156540000D02*
X165624598Y-156540000D01*
X278250500Y-156500000D02*
X278210500Y-156540000D01*
X145366750Y-156540000D02*
X135018750Y-156540000D01*
X315900000Y-156500000D02*
X315860000Y-156540000D01*
X109672988Y-198500000D02*
X108890043Y-197717055D01*
X320756250Y-175590000D02*
X299325000Y-175590000D01*
X114451440Y-199748560D02*
X113800000Y-199748559D01*
X109900000Y-198500000D02*
X109672988Y-198500000D01*
X242175000Y-175590000D02*
X261225000Y-175590000D01*
X115498559Y-198701441D02*
X114800000Y-199400000D01*
X280275000Y-175590000D02*
X299325000Y-175590000D01*
X116250000Y-196045018D02*
X116197509Y-196097509D01*
X110500000Y-198756153D02*
X110156153Y-198756153D01*
X112203539Y-199748557D02*
X112086522Y-199631540D01*
X165975000Y-175590000D02*
X181115500Y-175590000D01*
X204075000Y-175590000D02*
X223125000Y-175590000D01*
X146821261Y-175590000D02*
X146831261Y-175600000D01*
X238710000Y-175590000D02*
X242175000Y-175590000D01*
X330084020Y-175590000D02*
X342187500Y-175590000D01*
X237190500Y-175590000D02*
X237200500Y-175600000D01*
X111211135Y-198756153D02*
X110500000Y-198756153D01*
X116197509Y-196097509D02*
X115697509Y-196597509D01*
X163534500Y-175590000D02*
X165975000Y-175590000D01*
X148280261Y-175600000D02*
X162075500Y-175600000D01*
X139781250Y-175590000D02*
X146821261Y-175590000D01*
X110156153Y-198756153D02*
X109900000Y-198500000D01*
X181115500Y-175590000D02*
X181125500Y-175600000D01*
X115498559Y-198500000D02*
X115498559Y-198701441D01*
X108890043Y-197717055D02*
X108820732Y-197717055D01*
X182574500Y-175600000D02*
X182584500Y-175590000D01*
X320756250Y-175590000D02*
X328615020Y-175590000D01*
X115697509Y-196597509D02*
X115498560Y-196796458D01*
X115498560Y-197100000D02*
X115498559Y-198500000D01*
X223125000Y-175590000D02*
X237190500Y-175590000D01*
X116250000Y-194937500D02*
X116250000Y-196045018D01*
X238700000Y-175600000D02*
X238710000Y-175590000D01*
X182584500Y-175590000D02*
X185025000Y-175590000D01*
X330074020Y-175600000D02*
X330084020Y-175590000D01*
X112086522Y-199631540D02*
X111211135Y-198756153D01*
X114800000Y-199400000D02*
X114451440Y-199748560D01*
X113800000Y-199748559D02*
X112203539Y-199748557D01*
X115498560Y-196796458D02*
X115498560Y-197100000D01*
X328615020Y-175590000D02*
X328625020Y-175600000D01*
X185025000Y-175590000D02*
X204075000Y-175590000D01*
X261225000Y-175590000D02*
X280275000Y-175590000D01*
X163524500Y-175600000D02*
X163534500Y-175590000D01*
X339806250Y-194640000D02*
X315993750Y-194640000D01*
X315993750Y-194640000D02*
X244556250Y-194640000D01*
X108900000Y-198416566D02*
X108516566Y-198416566D01*
X108516566Y-198416566D02*
X108200000Y-198100000D01*
X111494988Y-199605012D02*
X111045649Y-199155673D01*
X116030012Y-196830012D02*
X115898080Y-196961944D01*
X156450000Y-194640000D02*
X135018750Y-194640000D01*
X116649520Y-194937980D02*
X116649520Y-196000000D01*
X116650000Y-194937500D02*
X116649520Y-194937980D01*
X115898079Y-198000000D02*
X115898078Y-198866928D01*
X111045649Y-199155673D02*
X110400000Y-199155673D01*
X116649520Y-196000000D02*
X116649519Y-196210505D01*
X112038055Y-200148079D02*
X111494988Y-199605012D01*
X109465937Y-198982503D02*
X108900000Y-198416566D01*
X175500000Y-194640000D02*
X156450000Y-194640000D01*
X109817497Y-198982503D02*
X109465937Y-198982503D01*
X109990667Y-199155673D02*
X109817497Y-198982503D01*
X114285953Y-200148079D02*
X112038055Y-200148079D01*
X115664045Y-199100961D02*
X114616926Y-200148080D01*
X244556250Y-194640000D02*
X175500000Y-194640000D01*
X114616926Y-200148080D02*
X114285953Y-200148079D01*
X115898080Y-196961944D02*
X115898079Y-198000000D01*
X116649519Y-196210505D02*
X116030012Y-196830012D01*
X110400000Y-199155673D02*
X109990667Y-199155673D01*
X107931328Y-197831328D02*
X107827784Y-197831328D01*
X108200000Y-198100000D02*
X107931328Y-197831328D01*
X115898078Y-198866928D02*
X115664045Y-199100961D01*
D39*
X178775978Y-126525000D02*
X179025000Y-126525000D01*
X175058330Y-125575000D02*
X177825978Y-125575000D01*
X177825978Y-125575000D02*
X178775978Y-126525000D01*
X200500000Y-126100000D02*
X348035718Y-126100000D01*
X182700000Y-127244558D02*
X199355442Y-127244558D01*
X199355442Y-127244558D02*
X200500000Y-126100000D01*
X352302021Y-130366304D02*
X352302021Y-153676043D01*
X358125978Y-159500000D02*
X358625000Y-159500000D01*
X352302021Y-153676043D02*
X358125978Y-159500000D01*
X179975000Y-125525000D02*
X180980442Y-125525000D01*
X180980442Y-125525000D02*
X182700000Y-127244558D01*
X348035718Y-126100000D02*
X352302021Y-130366304D01*
X114112634Y-182407366D02*
X114112634Y-181936844D01*
X112250000Y-184270000D02*
X114112634Y-182407366D01*
X111000000Y-184270000D02*
X112250000Y-184270000D01*
X116312500Y-204950000D02*
X117412000Y-206049500D01*
X117412000Y-206049500D02*
X121070000Y-206049500D01*
X114480000Y-205500000D02*
X115762500Y-205500000D01*
X115762500Y-205500000D02*
X116312500Y-204950000D01*
X111210000Y-163500000D02*
X111260000Y-163450000D01*
X109485000Y-163500000D02*
X111210000Y-163500000D01*
X111210000Y-166500000D02*
X111260000Y-166550000D01*
X109485000Y-166500000D02*
X111210000Y-166500000D01*
X109160000Y-159840000D02*
X108570000Y-160430000D01*
X108570000Y-160430000D02*
X104390000Y-160430000D01*
X104390000Y-169070000D02*
X104390000Y-160430000D01*
X108570000Y-169070000D02*
X104390000Y-169070000D01*
X109160000Y-158750000D02*
X109160000Y-159840000D01*
X112250000Y-185230000D02*
X112250000Y-186270000D01*
D38*
X113812500Y-188900000D02*
X113812500Y-187832500D01*
X113812500Y-187832500D02*
X112250000Y-186270000D01*
M02*
