G04 #@! TF.GenerationSoftware,KiCad,Pcbnew,(6.0.4)*
G04 #@! TF.CreationDate,2022-06-01T02:41:54-07:00*
G04 #@! TF.ProjectId,ditto,64697474-6f2e-46b6-9963-61645f706362,rev?*
G04 #@! TF.SameCoordinates,Original*
G04 #@! TF.FileFunction,Soldermask,Top*
G04 #@! TF.FilePolarity,Negative*
%FSLAX46Y46*%
G04 Gerber Fmt 4.6, Leading zero omitted, Abs format (unit mm)*
G04 Created by KiCad (PCBNEW (6.0.4)) date 2022-06-01 02:41:54*
%MOMM*%
%LPD*%
G01*
G04 APERTURE LIST*
G04 Aperture macros list*
%AMRoundRect*
0 Rectangle with rounded corners*
0 $1 Rounding radius*
0 $2 $3 $4 $5 $6 $7 $8 $9 X,Y pos of 4 corners*
0 Add a 4 corners polygon primitive as box body*
4,1,4,$2,$3,$4,$5,$6,$7,$8,$9,$2,$3,0*
0 Add four circle primitives for the rounded corners*
1,1,$1+$1,$2,$3*
1,1,$1+$1,$4,$5*
1,1,$1+$1,$6,$7*
1,1,$1+$1,$8,$9*
0 Add four rect primitives between the rounded corners*
20,1,$1+$1,$2,$3,$4,$5,0*
20,1,$1+$1,$4,$5,$6,$7,0*
20,1,$1+$1,$6,$7,$8,$9,0*
20,1,$1+$1,$8,$9,$2,$3,0*%
%AMHorizOval*
0 Thick line with rounded ends*
0 $1 width*
0 $2 $3 position (X,Y) of the first rounded end (center of the circle)*
0 $4 $5 position (X,Y) of the second rounded end (center of the circle)*
0 Add line between two ends*
20,1,$1,$2,$3,$4,$5,0*
0 Add two circle primitives to create the rounded ends*
1,1,$1,$2,$3*
1,1,$1,$4,$5*%
%AMRotRect*
0 Rectangle, with rotation*
0 The origin of the aperture is its center*
0 $1 length*
0 $2 width*
0 $3 Rotation angle, in degrees counterclockwise*
0 Add horizontal line*
21,1,$1,$2,0,0,$3*%
G04 Aperture macros list end*
%ADD10R,1.981200X0.558800*%
%ADD11C,4.000000*%
%ADD12C,1.700000*%
%ADD13C,2.200000*%
%ADD14R,0.900000X1.200000*%
%ADD15RotRect,1.600000X1.600000X315.000000*%
%ADD16HorizOval,1.600000X0.000000X0.000000X0.000000X0.000000X0*%
%ADD17C,3.050000*%
%ADD18RoundRect,0.140000X-0.170000X0.140000X-0.170000X-0.140000X0.170000X-0.140000X0.170000X0.140000X0*%
%ADD19RoundRect,0.140000X0.140000X0.170000X-0.140000X0.170000X-0.140000X-0.170000X0.140000X-0.170000X0*%
%ADD20RoundRect,0.250000X-0.475000X0.250000X-0.475000X-0.250000X0.475000X-0.250000X0.475000X0.250000X0*%
%ADD21RoundRect,0.140000X-0.140000X-0.170000X0.140000X-0.170000X0.140000X0.170000X-0.140000X0.170000X0*%
%ADD22R,0.550000X0.550000*%
%ADD23RoundRect,0.250000X0.475000X-0.250000X0.475000X0.250000X-0.475000X0.250000X-0.475000X-0.250000X0*%
%ADD24R,0.850000X0.850000*%
%ADD25O,0.850000X0.850000*%
%ADD26RoundRect,0.050000X0.050000X-0.387500X0.050000X0.387500X-0.050000X0.387500X-0.050000X-0.387500X0*%
%ADD27RoundRect,0.050000X0.387500X-0.050000X0.387500X0.050000X-0.387500X0.050000X-0.387500X-0.050000X0*%
%ADD28RoundRect,0.144000X1.456000X-1.456000X1.456000X1.456000X-1.456000X1.456000X-1.456000X-1.456000X0*%
%ADD29RoundRect,0.150000X0.650000X0.150000X-0.650000X0.150000X-0.650000X-0.150000X0.650000X-0.150000X0*%
%ADD30RoundRect,0.140000X0.170000X-0.140000X0.170000X0.140000X-0.170000X0.140000X-0.170000X-0.140000X0*%
%ADD31R,1.150000X1.000000*%
%ADD32C,3.800000*%
%ADD33RoundRect,0.200000X0.200000X0.275000X-0.200000X0.275000X-0.200000X-0.275000X0.200000X-0.275000X0*%
%ADD34RoundRect,0.150000X-0.512500X-0.150000X0.512500X-0.150000X0.512500X0.150000X-0.512500X0.150000X0*%
%ADD35C,0.650000*%
%ADD36R,1.450000X0.600000*%
%ADD37R,1.450000X0.300000*%
%ADD38O,1.600000X1.000000*%
%ADD39O,2.100000X1.000000*%
G04 APERTURE END LIST*
D10*
X120963800Y-159310000D03*
X120963800Y-158040000D03*
X120963800Y-156770000D03*
X120963800Y-155500000D03*
X120963800Y-154230000D03*
X120963800Y-152960000D03*
X120963800Y-151690000D03*
X116036200Y-151690000D03*
X116036200Y-152960000D03*
X116036200Y-154230000D03*
X116036200Y-155500000D03*
X116036200Y-156770000D03*
X116036200Y-158040000D03*
X116036200Y-159310000D03*
D11*
X217410000Y-159080000D03*
D12*
X222490000Y-159080000D03*
X212330000Y-159080000D03*
D13*
X219950000Y-154000000D03*
X213600000Y-156540000D03*
D14*
X113900000Y-203500000D03*
X110600000Y-203500000D03*
D12*
X203440000Y-159080000D03*
X193280000Y-159080000D03*
D11*
X198360000Y-159080000D03*
D13*
X200900000Y-154000000D03*
X194550000Y-156540000D03*
D12*
X226617500Y-140030000D03*
X236777500Y-140030000D03*
D11*
X231697500Y-140030000D03*
D13*
X234237500Y-134950000D03*
X227887500Y-137490000D03*
D15*
X206750216Y-122305924D03*
D16*
X212138370Y-127694078D03*
D12*
X243286250Y-197180000D03*
D11*
X298366250Y-205420000D03*
X198366250Y-205420000D03*
D12*
X253446250Y-197180000D03*
D11*
X248366250Y-197180000D03*
D17*
X298366250Y-190180000D03*
X198366250Y-190180000D03*
D13*
X250906250Y-192100000D03*
X244556250Y-194640000D03*
D15*
X330279125Y-122305924D03*
D16*
X335667279Y-127694078D03*
D18*
X113550000Y-196157500D03*
X113550000Y-197117500D03*
D19*
X112030000Y-188400000D03*
X111070000Y-188400000D03*
D15*
X199263616Y-122305924D03*
D16*
X204651770Y-127694078D03*
D19*
X114480000Y-205500000D03*
X113520000Y-205500000D03*
D15*
X315305924Y-122305924D03*
D16*
X320694078Y-127694078D03*
D18*
X112250000Y-186270000D03*
X112250000Y-187230000D03*
D15*
X334022425Y-122305924D03*
D16*
X339410579Y-127694078D03*
D20*
X159833332Y-121050000D03*
X159833332Y-122950000D03*
D12*
X207567500Y-140030000D03*
X217727500Y-140030000D03*
D11*
X212647500Y-140030000D03*
D13*
X215187500Y-134950000D03*
X208837500Y-137490000D03*
D12*
X241540000Y-159080000D03*
X231380000Y-159080000D03*
D11*
X236460000Y-159080000D03*
D13*
X239000000Y-154000000D03*
X232650000Y-156540000D03*
D12*
X340917500Y-140030000D03*
D11*
X345997500Y-140030000D03*
D12*
X351077500Y-140030000D03*
D13*
X348537500Y-134950000D03*
X342187500Y-137490000D03*
D20*
X125000000Y-203050000D03*
X125000000Y-204950000D03*
D21*
X123520000Y-197750000D03*
X124480000Y-197750000D03*
D22*
X164274998Y-126475000D03*
X165224998Y-126475000D03*
X165224998Y-125525000D03*
X164274998Y-125525000D03*
D12*
X321867500Y-140030000D03*
X332027500Y-140030000D03*
D11*
X326947500Y-140030000D03*
D13*
X329487500Y-134950000D03*
X323137500Y-137490000D03*
D15*
X292846122Y-122305924D03*
D16*
X298234276Y-127694078D03*
D15*
X262899720Y-122305924D03*
D16*
X268287874Y-127694078D03*
D15*
X337765725Y-122305924D03*
D16*
X343153879Y-127694078D03*
D15*
X326535825Y-122305924D03*
D16*
X331923979Y-127694078D03*
D15*
X277872921Y-122305924D03*
D16*
X283261075Y-127694078D03*
D15*
X341509026Y-122305924D03*
D16*
X346897180Y-127694078D03*
D15*
X229210018Y-122305924D03*
D16*
X234598172Y-127694078D03*
D22*
X179025000Y-126475000D03*
X179975000Y-126475000D03*
X179975000Y-125525000D03*
X179025000Y-125525000D03*
D23*
X121000000Y-204950000D03*
X121000000Y-203050000D03*
D11*
X160260000Y-197180000D03*
D12*
X155180000Y-197180000D03*
X165340000Y-197180000D03*
D13*
X162800000Y-192100000D03*
X156450000Y-194640000D03*
D18*
X108750000Y-203020000D03*
X108750000Y-203980000D03*
D15*
X266643020Y-122305924D03*
D16*
X272031174Y-127694078D03*
D18*
X112250000Y-184270000D03*
X112250000Y-185230000D03*
D22*
X159358332Y-126475000D03*
X160308332Y-126475000D03*
X160308332Y-125525000D03*
X159358332Y-125525000D03*
D11*
X138828750Y-159080000D03*
D12*
X133748750Y-159080000D03*
X143908750Y-159080000D03*
D13*
X141368750Y-154000000D03*
X135018750Y-156540000D03*
D24*
X358625000Y-158500000D03*
D25*
X358625000Y-159500000D03*
X358625000Y-160500000D03*
X358625000Y-161500000D03*
X358625000Y-162500000D03*
X358625000Y-163500000D03*
X358625000Y-164500000D03*
X358625000Y-165500000D03*
X358625000Y-166500000D03*
X358625000Y-167500000D03*
X358625000Y-168500000D03*
X358625000Y-169500000D03*
X358625000Y-170500000D03*
X358625000Y-171500000D03*
X358625000Y-172500000D03*
X358625000Y-173500000D03*
X358625000Y-174500000D03*
X358625000Y-175500000D03*
X358625000Y-176500000D03*
X358625000Y-177500000D03*
X358625000Y-178500000D03*
X358625000Y-179500000D03*
D15*
X307819323Y-122305924D03*
D16*
X313207477Y-127694078D03*
D15*
X251669819Y-122305924D03*
D16*
X257057973Y-127694078D03*
D12*
X212965000Y-178130000D03*
D11*
X207885000Y-178130000D03*
D12*
X202805000Y-178130000D03*
D13*
X210425000Y-173050000D03*
X204075000Y-175590000D03*
D26*
X114650000Y-194937500D03*
X115050000Y-194937500D03*
X115450000Y-194937500D03*
X115850000Y-194937500D03*
X116250000Y-194937500D03*
X116650000Y-194937500D03*
X117050000Y-194937500D03*
X117450000Y-194937500D03*
X117850000Y-194937500D03*
X118250000Y-194937500D03*
X118650000Y-194937500D03*
X119050000Y-194937500D03*
X119450000Y-194937500D03*
X119850000Y-194937500D03*
D27*
X120687500Y-194100000D03*
X120687500Y-193700000D03*
X120687500Y-193300000D03*
X120687500Y-192900000D03*
X120687500Y-192500000D03*
X120687500Y-192100000D03*
X120687500Y-191700000D03*
X120687500Y-191300000D03*
X120687500Y-190900000D03*
X120687500Y-190500000D03*
X120687500Y-190100000D03*
X120687500Y-189700000D03*
X120687500Y-189300000D03*
X120687500Y-188900000D03*
D26*
X119850000Y-188062500D03*
X119450000Y-188062500D03*
X119050000Y-188062500D03*
X118650000Y-188062500D03*
X118250000Y-188062500D03*
X117850000Y-188062500D03*
X117450000Y-188062500D03*
X117050000Y-188062500D03*
X116650000Y-188062500D03*
X116250000Y-188062500D03*
X115850000Y-188062500D03*
X115450000Y-188062500D03*
X115050000Y-188062500D03*
X114650000Y-188062500D03*
D27*
X113812500Y-188900000D03*
X113812500Y-189300000D03*
X113812500Y-189700000D03*
X113812500Y-190100000D03*
X113812500Y-190500000D03*
X113812500Y-190900000D03*
X113812500Y-191300000D03*
X113812500Y-191700000D03*
X113812500Y-192100000D03*
X113812500Y-192500000D03*
X113812500Y-192900000D03*
X113812500Y-193300000D03*
X113812500Y-193700000D03*
X113812500Y-194100000D03*
D28*
X117250000Y-191500000D03*
D21*
X111260000Y-164550000D03*
X112220000Y-164550000D03*
D15*
X217980117Y-122305924D03*
D16*
X223368271Y-127694078D03*
D22*
X169191664Y-126475000D03*
X170141664Y-126475000D03*
X170141664Y-125525000D03*
X169191664Y-125525000D03*
D21*
X124520000Y-193250000D03*
X125480000Y-193250000D03*
D22*
X174108330Y-126475000D03*
X175058330Y-126475000D03*
X175058330Y-125525000D03*
X174108330Y-125525000D03*
D15*
X232953318Y-122305924D03*
D16*
X238341472Y-127694078D03*
D19*
X110730000Y-191237500D03*
X109770000Y-191237500D03*
D12*
X308215000Y-178130000D03*
X298055000Y-178130000D03*
D11*
X303135000Y-178130000D03*
D13*
X305675000Y-173050000D03*
X299325000Y-175590000D03*
D21*
X122310000Y-191200000D03*
X123270000Y-191200000D03*
D15*
X322792524Y-122305924D03*
D16*
X328180678Y-127694078D03*
D15*
X203006916Y-122305924D03*
D16*
X208395070Y-127694078D03*
D12*
X279005000Y-178130000D03*
X289165000Y-178130000D03*
D11*
X284085000Y-178130000D03*
D13*
X286625000Y-173050000D03*
X280275000Y-175590000D03*
D12*
X333773750Y-159080000D03*
X343933750Y-159080000D03*
D11*
X338853750Y-159080000D03*
D13*
X341393750Y-154000000D03*
X335043750Y-156540000D03*
D15*
X285359522Y-122305924D03*
D16*
X290747676Y-127694078D03*
D15*
X247926519Y-122305924D03*
D16*
X253314673Y-127694078D03*
D18*
X118480000Y-196940000D03*
X118480000Y-197900000D03*
D21*
X122940000Y-178850000D03*
X123900000Y-178850000D03*
D29*
X121350000Y-179905000D03*
X121350000Y-178635000D03*
X121350000Y-177365000D03*
X121350000Y-176095000D03*
X114150000Y-176095000D03*
X114150000Y-177365000D03*
X114150000Y-178635000D03*
X114150000Y-179905000D03*
D12*
X255827500Y-140030000D03*
D11*
X250747500Y-140030000D03*
D12*
X245667500Y-140030000D03*
D13*
X253287500Y-134950000D03*
X246937500Y-137490000D03*
D11*
X138828750Y-197180000D03*
D12*
X133748750Y-197180000D03*
X143908750Y-197180000D03*
D13*
X141368750Y-192100000D03*
X135018750Y-194640000D03*
D11*
X345997500Y-178130000D03*
D12*
X340917500Y-178130000D03*
X351077500Y-178130000D03*
D13*
X348537500Y-173050000D03*
X342187500Y-175590000D03*
D12*
X198677500Y-140030000D03*
X188517500Y-140030000D03*
D11*
X193597500Y-140030000D03*
D13*
X196137500Y-134950000D03*
X189787500Y-137490000D03*
D19*
X123900000Y-179910000D03*
X122940000Y-179910000D03*
D15*
X304076023Y-122305924D03*
D16*
X309464177Y-127694078D03*
D11*
X155497500Y-140030000D03*
D12*
X160577500Y-140030000D03*
X150417500Y-140030000D03*
D13*
X158037500Y-134950000D03*
X151687500Y-137490000D03*
D30*
X111000000Y-185230000D03*
X111000000Y-184270000D03*
D12*
X307580000Y-159080000D03*
D11*
X312660000Y-159080000D03*
D12*
X317740000Y-159080000D03*
D13*
X315200000Y-154000000D03*
X308850000Y-156540000D03*
D22*
X149525000Y-126475000D03*
X150475000Y-126475000D03*
X150475000Y-125525000D03*
X149525000Y-125525000D03*
D15*
X214236817Y-122305924D03*
D16*
X219624971Y-127694078D03*
D15*
X281616221Y-122305924D03*
D16*
X287004375Y-127694078D03*
D12*
X165340000Y-159080000D03*
X155180000Y-159080000D03*
D11*
X160260000Y-159080000D03*
D13*
X162800000Y-154000000D03*
X156450000Y-156540000D03*
D19*
X112220000Y-166550000D03*
X111260000Y-166550000D03*
D30*
X113850000Y-186880000D03*
X113850000Y-185920000D03*
D18*
X125200000Y-190720000D03*
X125200000Y-191680000D03*
D15*
X296589422Y-122305924D03*
D16*
X301977576Y-127694078D03*
D31*
X124875000Y-194800000D03*
X123125000Y-194800000D03*
X123125000Y-196200000D03*
X124875000Y-196200000D03*
D20*
X123000000Y-203050000D03*
X123000000Y-204950000D03*
D15*
X240439918Y-122305924D03*
D16*
X245828072Y-127694078D03*
D32*
X357750000Y-206750000D03*
D15*
X236696618Y-122305924D03*
D16*
X242084772Y-127694078D03*
D11*
X324566250Y-178130000D03*
D12*
X319486250Y-178130000D03*
X329646250Y-178130000D03*
D13*
X327106250Y-173050000D03*
X320756250Y-175590000D03*
D15*
X270386321Y-122305924D03*
D16*
X275774475Y-127694078D03*
D11*
X293610000Y-159080000D03*
D12*
X288530000Y-159080000D03*
X298690000Y-159080000D03*
D13*
X296150000Y-154000000D03*
X289800000Y-156540000D03*
D12*
X348696250Y-197180000D03*
D11*
X343616250Y-197180000D03*
D12*
X338536250Y-197180000D03*
D13*
X346156250Y-192100000D03*
X339806250Y-194640000D03*
D12*
X232015000Y-178130000D03*
D11*
X226935000Y-178130000D03*
D12*
X221855000Y-178130000D03*
D13*
X229475000Y-173050000D03*
X223125000Y-175590000D03*
D12*
X251065000Y-178130000D03*
X240905000Y-178130000D03*
D11*
X245985000Y-178130000D03*
D13*
X248525000Y-173050000D03*
X242175000Y-175590000D03*
D20*
X164750000Y-121050000D03*
X164750000Y-122950000D03*
D15*
X274129621Y-122305924D03*
D16*
X279517775Y-127694078D03*
D15*
X300332723Y-122305924D03*
D16*
X305720877Y-127694078D03*
D12*
X314723750Y-197180000D03*
X324883750Y-197180000D03*
D11*
X319803750Y-197180000D03*
D13*
X322343750Y-192100000D03*
X315993750Y-194640000D03*
D12*
X174865000Y-178130000D03*
D11*
X169785000Y-178130000D03*
D12*
X164705000Y-178130000D03*
D13*
X172325000Y-173050000D03*
X165975000Y-175590000D03*
D15*
X289102822Y-122305924D03*
D16*
X294490976Y-127694078D03*
D22*
X154441666Y-126475000D03*
X155391666Y-126475000D03*
X155391666Y-125525000D03*
X154441666Y-125525000D03*
D12*
X264717500Y-140030000D03*
D11*
X269797500Y-140030000D03*
D12*
X274877500Y-140030000D03*
D13*
X272337500Y-134950000D03*
X265987500Y-137490000D03*
D15*
X195520315Y-122305924D03*
D16*
X200908469Y-127694078D03*
D12*
X138511250Y-178130000D03*
D11*
X143591250Y-178130000D03*
D12*
X148671250Y-178130000D03*
D13*
X146131250Y-173050000D03*
X139781250Y-175590000D03*
D33*
X145325000Y-126100000D03*
X143675000Y-126100000D03*
D15*
X210493516Y-122305924D03*
D16*
X215881670Y-127694078D03*
D11*
X188835000Y-178130000D03*
D12*
X183755000Y-178130000D03*
X193915000Y-178130000D03*
D13*
X191375000Y-173050000D03*
X185025000Y-175590000D03*
D15*
X311562623Y-122305924D03*
D16*
X316950777Y-127694078D03*
D11*
X274560000Y-159080000D03*
D12*
X279640000Y-159080000D03*
X269480000Y-159080000D03*
D13*
X277100000Y-154000000D03*
X270750000Y-156540000D03*
D12*
X259955000Y-178130000D03*
D11*
X265035000Y-178130000D03*
D12*
X270115000Y-178130000D03*
D13*
X267575000Y-173050000D03*
X261225000Y-175590000D03*
D30*
X118270000Y-186417500D03*
X118270000Y-185457500D03*
D15*
X319049224Y-122305924D03*
D16*
X324437378Y-127694078D03*
D12*
X179627500Y-140030000D03*
D11*
X174547500Y-140030000D03*
D12*
X169467500Y-140030000D03*
D13*
X177087500Y-134950000D03*
X170737500Y-137490000D03*
D20*
X150000000Y-121050000D03*
X150000000Y-122950000D03*
D15*
X259156420Y-122305924D03*
D16*
X264544574Y-127694078D03*
D19*
X112220000Y-163450000D03*
X111260000Y-163450000D03*
D12*
X283767500Y-140030000D03*
D11*
X288847500Y-140030000D03*
D12*
X293927500Y-140030000D03*
D13*
X291387500Y-134950000D03*
X285037500Y-137490000D03*
D12*
X250430000Y-159080000D03*
D11*
X255510000Y-159080000D03*
D12*
X260590000Y-159080000D03*
D13*
X258050000Y-154000000D03*
X251700000Y-156540000D03*
D19*
X110730000Y-192237500D03*
X109770000Y-192237500D03*
X112030000Y-189437500D03*
X111070000Y-189437500D03*
D15*
X255413120Y-122305924D03*
D16*
X260801274Y-127694078D03*
D15*
X221723417Y-122305924D03*
D16*
X227111571Y-127694078D03*
D20*
X179500000Y-121100000D03*
X179500000Y-123000000D03*
D19*
X110120000Y-158750000D03*
X109160000Y-158750000D03*
D34*
X116312500Y-203050000D03*
X116312500Y-204000000D03*
X116312500Y-204950000D03*
X118587500Y-204950000D03*
X118587500Y-203050000D03*
D12*
X184390000Y-159080000D03*
X174230000Y-159080000D03*
D11*
X179310000Y-159080000D03*
D13*
X181850000Y-154000000D03*
X175500000Y-156540000D03*
D15*
X244183219Y-122305924D03*
D16*
X249571373Y-127694078D03*
D19*
X112530000Y-180100000D03*
X111570000Y-180100000D03*
D20*
X174583330Y-121100000D03*
X174583330Y-123000000D03*
D12*
X174230000Y-197180000D03*
X184390000Y-197180000D03*
D11*
X179310000Y-197180000D03*
D13*
X181850000Y-192100000D03*
X175500000Y-194640000D03*
D21*
X122310000Y-190200000D03*
X123270000Y-190200000D03*
D19*
X110730000Y-193237500D03*
X109770000Y-193237500D03*
D11*
X136447500Y-140030000D03*
D12*
X131367500Y-140030000D03*
X141527500Y-140030000D03*
D13*
X138987500Y-134950000D03*
X132637500Y-137490000D03*
D12*
X312977500Y-140030000D03*
X302817500Y-140030000D03*
D11*
X307897500Y-140030000D03*
D13*
X310437500Y-134950000D03*
X304087500Y-137490000D03*
D15*
X225466717Y-122305924D03*
D16*
X230854871Y-127694078D03*
D32*
X357750000Y-120250000D03*
X105250000Y-206750000D03*
X105250000Y-120250000D03*
D20*
X169666664Y-121050000D03*
X169666664Y-122950000D03*
D35*
X108040000Y-167640000D03*
X108040000Y-161860000D03*
D36*
X109485000Y-161500000D03*
X109485000Y-162300000D03*
D37*
X109485000Y-163500000D03*
X109485000Y-164500000D03*
X109485000Y-165000000D03*
X109485000Y-166000000D03*
D36*
X109485000Y-167200000D03*
X109485000Y-168000000D03*
X109485000Y-168000000D03*
X109485000Y-167200000D03*
D37*
X109485000Y-166500000D03*
X109485000Y-165500000D03*
X109485000Y-164000000D03*
X109485000Y-163000000D03*
D36*
X109485000Y-162300000D03*
X109485000Y-161500000D03*
D38*
X104390000Y-160430000D03*
X104390000Y-169070000D03*
D39*
X108570000Y-169070000D03*
X108570000Y-160430000D03*
D21*
X111260000Y-165550000D03*
X112220000Y-165550000D03*
D20*
X154916666Y-121050000D03*
X154916666Y-122950000D03*
M02*
