M48
; DRILL file {KiCad (6.0.4)} date Wed Jun  1 02:42:05 2022
; FORMAT={-:-/ absolute / metric / decimal}
; #@! TF.CreationDate,2022-06-01T02:42:05-07:00
; #@! TF.GenerationSoftware,Kicad,Pcbnew,(6.0.4)
; #@! TF.FileFunction,Plated,1,2,PTH
FMAT,2
METRIC
; #@! TA.AperFunction,Plated,PTH,ComponentDrill
T1C0.350
; #@! TA.AperFunction,Plated,PTH,ViaDrill
T2C0.400
; #@! TA.AperFunction,Plated,PTH,ComponentDrill
T3C0.500
; #@! TA.AperFunction,Plated,PTH,ComponentDrill
T4C0.600
; #@! TA.AperFunction,Plated,PTH,ComponentDrill
T5C0.800
; #@! TA.AperFunction,Plated,PTH,ComponentDrill
T6C1.500
; #@! TA.AperFunction,Plated,PTH,ComponentDrill
T7C2.200
%
G90
G05
T1
X115.975Y-190.225
X115.975Y-191.5
X115.975Y-192.775
X117.25Y-190.225
X117.25Y-191.5
X117.25Y-192.775
X118.525Y-190.225
X118.525Y-191.5
X118.525Y-192.775
T2
X107.828Y-197.831
X108.75Y-204.88
X108.821Y-197.717
X108.849Y-191.75
X108.91Y-193.86
X109.117Y-190.535
X109.818Y-197.656
X109.867Y-189.8
X109.87Y-205.35
X110.41Y-185.23
X110.6Y-186.91
X110.75Y-169.25
X110.818Y-197.657
X110.82Y-180.91
X111.0Y-161.0
X112.25Y-167.75
X112.399Y-189.273
X112.4Y-196.4
X112.5Y-162.5
X112.54Y-181.05
X112.782Y-187.815
X113.079Y-184.754
X113.55Y-197.84
X114.07Y-184.884
X114.113Y-181.937
X114.784Y-191.765
X114.851Y-182.61
X114.95Y-190.03
X115.0Y-204.0
X115.25Y-165.25
X115.712Y-181.844
X116.25Y-164.5
X116.254Y-189.0
X117.796Y-198.8
X118.26Y-183.54
X118.26Y-184.54
X118.292Y-201.029
X118.6Y-200.0
X119.2Y-151.7
X119.2Y-155.5
X119.2Y-159.3
X119.35Y-175.94
X119.45Y-190.879
X119.76Y-201.54
X119.781Y-203.514
X119.874Y-206.903
X120.587Y-184.883
X120.858Y-164.95
X121.07Y-206.049
X121.353Y-184.241
X121.503Y-165.714
X121.78Y-190.399
X121.789Y-164.265
X121.94Y-183.42
X122.313Y-166.3
X122.913Y-183.176
X123.11Y-193.4
X123.338Y-186.055
X123.44Y-187.66
X123.911Y-176.84
X123.911Y-183.238
X123.911Y-184.237
X123.911Y-185.237
X124.02Y-186.837
X124.122Y-189.131
X124.964Y-145.179
X125.35Y-206.049
X125.46Y-197.7
X125.471Y-192.553
X125.801Y-144.632
X126.2Y-143.709
X126.272Y-142.7
X126.693Y-163.107
X127.4Y-162.4
X128.849Y-161.7
X129.024Y-160.6
X131.78Y-183.68
X133.66Y-184.559
X134.36Y-185.312
X135.75Y-184.031
X144.665Y-137.5
X145.407Y-156.5
X146.831Y-175.6
X147.014Y-137.5
X147.5Y-126.52
X148.28Y-156.5
X148.28Y-175.6
X162.076Y-137.5
X162.076Y-175.6
X163.524Y-175.6
X163.558Y-156.558
X164.002Y-137.5
X164.682Y-157.482
X181.125Y-137.5
X181.125Y-175.6
X181.315Y-126.885
X182.575Y-175.6
X182.905Y-156.5
X182.99Y-126.51
X186.339Y-137.5
X186.339Y-156.6
X200.175Y-137.5
X201.65Y-156.5
X202.074Y-137.5
X203.099Y-156.5
X219.225Y-137.1
X220.65Y-156.6
X221.124Y-137.2
X222.1Y-156.6
X237.2Y-175.6
X238.275Y-137.5
X238.7Y-175.6
X239.7Y-156.5
X241.599Y-137.5
X241.611Y-155.687
X257.325Y-137.5
X258.9Y-156.5
X259.224Y-137.5
X260.349Y-156.5
X276.375Y-137.5
X278.25Y-156.5
X278.274Y-137.5
X279.7Y-156.5
X292.476Y-136.8
X294.449Y-136.825
X296.976Y-156.5
X298.424Y-156.5
X314.476Y-137.5
X315.9Y-156.5
X316.374Y-137.5
X317.349Y-156.5
X328.175Y-156.5
X328.625Y-175.6
X330.074Y-156.5
X330.074Y-175.6
X330.188Y-137.5
X334.876Y-137.5
T3
X358.625Y-158.5
X358.625Y-159.5
X358.625Y-160.5
X358.625Y-161.5
X358.625Y-162.5
X358.625Y-163.5
X358.625Y-164.5
X358.625Y-165.5
X358.625Y-166.5
X358.625Y-167.5
X358.625Y-168.5
X358.625Y-169.5
X358.625Y-170.5
X358.625Y-171.5
X358.625Y-172.5
X358.625Y-173.5
X358.625Y-174.5
X358.625Y-175.5
X358.625Y-176.5
X358.625Y-177.5
X358.625Y-178.5
X358.625Y-179.5
T5
X195.52Y-122.306
X199.264Y-122.306
X200.908Y-127.694
X203.007Y-122.306
X204.652Y-127.694
X206.75Y-122.306
X208.395Y-127.694
X210.494Y-122.306
X212.138Y-127.694
X214.237Y-122.306
X215.882Y-127.694
X217.98Y-122.306
X219.625Y-127.694
X221.723Y-122.306
X223.368Y-127.694
X225.467Y-122.306
X227.112Y-127.694
X229.21Y-122.306
X230.855Y-127.694
X232.953Y-122.306
X234.598Y-127.694
X236.697Y-122.306
X238.341Y-127.694
X240.44Y-122.306
X242.085Y-127.694
X244.183Y-122.306
X245.828Y-127.694
X247.927Y-122.306
X249.571Y-127.694
X251.67Y-122.306
X253.315Y-127.694
X255.413Y-122.306
X257.058Y-127.694
X259.156Y-122.306
X260.801Y-127.694
X262.9Y-122.306
X264.545Y-127.694
X266.643Y-122.306
X268.288Y-127.694
X270.386Y-122.306
X272.031Y-127.694
X274.13Y-122.306
X275.774Y-127.694
X277.873Y-122.306
X279.518Y-127.694
X281.616Y-122.306
X283.261Y-127.694
X285.36Y-122.306
X287.004Y-127.694
X289.103Y-122.306
X290.748Y-127.694
X292.846Y-122.306
X294.491Y-127.694
X296.589Y-122.306
X298.234Y-127.694
X300.333Y-122.306
X301.978Y-127.694
X304.076Y-122.306
X305.721Y-127.694
X307.819Y-122.306
X309.464Y-127.694
X311.563Y-122.306
X313.207Y-127.694
X315.306Y-122.306
X316.951Y-127.694
X319.049Y-122.306
X320.694Y-127.694
X322.793Y-122.306
X324.437Y-127.694
X326.536Y-122.306
X328.181Y-127.694
X330.279Y-122.306
X331.924Y-127.694
X334.022Y-122.306
X335.667Y-127.694
X337.766Y-122.306
X339.411Y-127.694
X341.509Y-122.306
X343.154Y-127.694
X346.897Y-127.694
T6
X132.637Y-137.49
X135.019Y-156.54
X135.019Y-194.64
X138.987Y-134.95
X139.781Y-175.59
X141.369Y-154.0
X141.369Y-192.1
X146.131Y-173.05
X151.688Y-137.49
X156.45Y-156.54
X156.45Y-194.64
X158.037Y-134.95
X162.8Y-154.0
X162.8Y-192.1
X165.975Y-175.59
X170.737Y-137.49
X172.325Y-173.05
X175.5Y-156.54
X175.5Y-194.64
X177.088Y-134.95
X181.85Y-154.0
X181.85Y-192.1
X185.025Y-175.59
X189.787Y-137.49
X191.375Y-173.05
X194.55Y-156.54
X196.137Y-134.95
X200.9Y-154.0
X204.075Y-175.59
X208.837Y-137.49
X210.425Y-173.05
X213.6Y-156.54
X215.188Y-134.95
X219.95Y-154.0
X223.125Y-175.59
X227.887Y-137.49
X229.475Y-173.05
X232.65Y-156.54
X234.237Y-134.95
X239.0Y-154.0
X242.175Y-175.59
X244.556Y-194.64
X246.938Y-137.49
X248.525Y-173.05
X250.906Y-192.1
X251.7Y-156.54
X253.287Y-134.95
X258.05Y-154.0
X261.225Y-175.59
X265.988Y-137.49
X267.575Y-173.05
X270.75Y-156.54
X272.337Y-134.95
X277.1Y-154.0
X280.275Y-175.59
X285.037Y-137.49
X286.625Y-173.05
X289.8Y-156.54
X291.387Y-134.95
X296.15Y-154.0
X299.325Y-175.59
X304.087Y-137.49
X305.675Y-173.05
X308.85Y-156.54
X310.438Y-134.95
X315.2Y-154.0
X315.994Y-194.64
X320.756Y-175.59
X322.344Y-192.1
X323.137Y-137.49
X327.106Y-173.05
X329.488Y-134.95
X335.044Y-156.54
X339.806Y-194.64
X341.394Y-154.0
X342.188Y-137.49
X342.188Y-175.59
X346.156Y-192.1
X348.537Y-134.95
X348.537Y-173.05
T7
X105.25Y-120.25
X105.25Y-206.75
X357.75Y-120.25
X357.75Y-206.75
T4
X104.69Y-160.43G85X104.09Y-160.43
G05
X104.69Y-169.07G85X104.09Y-169.07
G05
X109.12Y-160.43G85X108.02Y-160.43
G05
X109.12Y-169.07G85X108.02Y-169.07
G05
T0
M30
