M48
; DRILL file {KiCad (6.0.4)} date Wed Jun  1 02:42:05 2022
; FORMAT={-:-/ absolute / metric / decimal}
; #@! TF.CreationDate,2022-06-01T02:42:05-07:00
; #@! TF.GenerationSoftware,Kicad,Pcbnew,(6.0.4)
; #@! TF.FileFunction,NonPlated,1,2,NPTH
FMAT,2
METRIC
; #@! TA.AperFunction,NonPlated,NPTH,ComponentDrill
T1C0.650
; #@! TA.AperFunction,NonPlated,NPTH,ComponentDrill
T2C1.700
; #@! TA.AperFunction,NonPlated,NPTH,ComponentDrill
T3C3.050
; #@! TA.AperFunction,NonPlated,NPTH,ComponentDrill
T4C4.000
%
G90
G05
T1
X108.04Y-161.86
X108.04Y-167.64
T2
X131.368Y-140.03
X133.749Y-159.08
X133.749Y-197.18
X138.511Y-178.13
X141.528Y-140.03
X143.909Y-159.08
X143.909Y-197.18
X148.671Y-178.13
X150.417Y-140.03
X155.18Y-159.08
X155.18Y-197.18
X160.577Y-140.03
X164.705Y-178.13
X165.34Y-159.08
X165.34Y-197.18
X169.468Y-140.03
X174.23Y-159.08
X174.23Y-197.18
X174.865Y-178.13
X179.627Y-140.03
X183.755Y-178.13
X184.39Y-159.08
X184.39Y-197.18
X188.517Y-140.03
X193.28Y-159.08
X193.915Y-178.13
X198.677Y-140.03
X202.805Y-178.13
X203.44Y-159.08
X207.567Y-140.03
X212.33Y-159.08
X212.965Y-178.13
X217.727Y-140.03
X221.855Y-178.13
X222.49Y-159.08
X226.617Y-140.03
X231.38Y-159.08
X232.015Y-178.13
X236.778Y-140.03
X240.905Y-178.13
X241.54Y-159.08
X243.286Y-197.18
X245.667Y-140.03
X250.43Y-159.08
X251.065Y-178.13
X253.446Y-197.18
X255.827Y-140.03
X259.955Y-178.13
X260.59Y-159.08
X264.717Y-140.03
X269.48Y-159.08
X270.115Y-178.13
X274.877Y-140.03
X279.005Y-178.13
X279.64Y-159.08
X283.767Y-140.03
X288.53Y-159.08
X289.165Y-178.13
X293.928Y-140.03
X298.055Y-178.13
X298.69Y-159.08
X302.817Y-140.03
X307.58Y-159.08
X308.215Y-178.13
X312.977Y-140.03
X314.724Y-197.18
X317.74Y-159.08
X319.486Y-178.13
X321.868Y-140.03
X324.884Y-197.18
X329.646Y-178.13
X332.027Y-140.03
X333.774Y-159.08
X338.536Y-197.18
X340.917Y-140.03
X340.917Y-178.13
X343.934Y-159.08
X348.696Y-197.18
X351.077Y-140.03
X351.077Y-178.13
T3
X198.366Y-190.18
X298.366Y-190.18
T4
X136.447Y-140.03
X138.829Y-159.08
X138.829Y-197.18
X143.591Y-178.13
X155.498Y-140.03
X160.26Y-159.08
X160.26Y-197.18
X169.785Y-178.13
X174.547Y-140.03
X179.31Y-159.08
X179.31Y-197.18
X188.835Y-178.13
X193.597Y-140.03
X198.36Y-159.08
X198.366Y-205.42
X207.885Y-178.13
X212.647Y-140.03
X217.41Y-159.08
X226.935Y-178.13
X231.697Y-140.03
X236.46Y-159.08
X245.985Y-178.13
X248.366Y-197.18
X250.748Y-140.03
X255.51Y-159.08
X265.035Y-178.13
X269.798Y-140.03
X274.56Y-159.08
X284.085Y-178.13
X288.847Y-140.03
X293.61Y-159.08
X298.366Y-205.42
X303.135Y-178.13
X307.897Y-140.03
X312.66Y-159.08
X319.804Y-197.18
X324.566Y-178.13
X326.947Y-140.03
X338.854Y-159.08
X343.616Y-197.18
X345.998Y-140.03
X345.998Y-178.13
T0
M30
