<?xml version="1.0"?>
<!-- Generated by SVGo -->
<svg width="238.602mm" height="86.202mm"
     viewBox="0.000 0.000 238.602 86.202"
     xmlns="http://www.w3.org/2000/svg" 
     xmlns:xlink="http://www.w3.org/1999/xlink">
<polygon points="233.602,81.202 5.001,81.202 5.001,5.001 233.602,5.001" style="fill:none;stroke-width:0.050000mm;stroke:black"/>
<polygon points="119.444,64.676 119.444,65.676 118.644,65.676 118.644,68.775 119.444,68.775 119.444,69.376 79.819,69.376 79.819,66.146 78.094,66.146 78.094,65.225 74.794,65.225 74.794,66.146 73.069,66.146 73.069,69.376 72.244,69.376 72.244,72.176 73.069,72.176 73.069,78.446 74.794,78.446 74.794,79.426 78.094,79.426 78.094,78.446 79.819,78.446 79.819,73.976 119.444,73.976 119.444,74.576 118.644,74.576 118.644,77.676 119.444,77.676 119.444,78.676 133.444,78.676 133.444,77.676 134.244,77.676 134.244,74.576 133.444,74.576 133.444,73.976 173.069,73.976 173.069,78.446 174.794,78.446 174.794,79.426 178.094,79.426 178.094,78.446 179.819,78.446 179.819,72.176 180.644,72.176 180.644,69.376 179.819,69.376 179.819,66.146 178.094,66.146 178.094,65.225 174.794,65.225 174.794,66.146 173.069,66.146 173.069,69.376 133.444,69.376 133.444,68.775 134.244,68.775 134.244,65.676 133.444,65.676 133.444,64.676" style="fill:none;stroke-width:0.050000mm;stroke:black"/>
<polygon points="9.907,64.676 9.907,65.676 9.107,65.676 9.107,68.775 9.907,68.775 9.907,74.576 9.107,74.576 9.107,77.676 9.907,77.676 9.907,78.676 23.907,78.676 23.907,77.676 24.707,77.676 24.707,74.576 23.907,74.576 23.907,68.775 24.707,68.775 24.707,65.676 23.907,65.676 23.907,64.676" style="fill:none;stroke-width:0.050000mm;stroke:black"/>
<polygon points="31.338,64.676 31.338,65.676 30.538,65.676 30.538,68.775 31.338,68.775 31.338,74.576 30.538,74.576 30.538,77.676 31.338,77.676 31.338,78.676 45.338,78.676 45.338,77.676 46.138,77.676 46.138,74.576 45.338,74.576 45.338,68.775 46.138,68.775 46.138,65.676 45.338,65.676 45.338,64.676" style="fill:none;stroke-width:0.050000mm;stroke:black"/>
<polygon points="50.388,64.676 50.388,65.676 49.588,65.676 49.588,68.775 50.388,68.775 50.388,74.576 49.588,74.576 49.588,77.676 50.388,77.676 50.388,78.676 64.388,78.676 64.388,77.676 65.188,77.676 65.188,74.576 64.388,74.576 64.388,68.775 65.188,68.775 65.188,65.676 64.388,65.676 64.388,64.676" style="fill:none;stroke-width:0.050000mm;stroke:black"/>
<polygon points="190.882,64.676 190.882,65.676 190.082,65.676 190.082,68.775 190.882,68.775 190.882,74.576 190.082,74.576 190.082,77.676 190.882,77.676 190.882,78.676 204.882,78.676 204.882,77.676 205.682,77.676 205.682,74.576 204.882,74.576 204.882,68.775 205.682,68.775 205.682,65.676 204.882,65.676 204.882,64.676" style="fill:none;stroke-width:0.050000mm;stroke:black"/>
<polygon points="214.694,64.676 214.694,65.676 213.894,65.676 213.894,68.775 214.694,68.775 214.694,74.576 213.894,74.576 213.894,77.676 214.694,77.676 214.694,78.676 228.694,78.676 228.694,77.676 229.494,77.676 229.494,74.576 228.694,74.576 228.694,68.775 229.494,68.775 229.494,65.676 228.694,65.676 228.694,64.676" style="fill:none;stroke-width:0.050000mm;stroke:black"/>
<polygon points="14.669,45.626 14.669,46.626 13.869,46.626 13.869,49.726 14.669,49.726 14.669,55.526 13.869,55.526 13.869,58.626 14.669,58.626 14.669,59.626 28.669,59.626 28.669,58.626 29.469,58.626 29.469,55.526 28.669,55.526 28.669,49.726 29.469,49.726 29.469,46.626 28.669,46.626 28.669,45.626" style="fill:none;stroke-width:0.050000mm;stroke:black"/>
<polygon points="40.863,45.626 40.863,46.626 40.063,46.626 40.063,49.726 40.863,49.726 40.863,55.526 40.063,55.526 40.063,58.626 40.863,58.626 40.863,59.626 54.863,59.626 54.863,58.626 55.663,58.626 55.663,55.526 54.863,55.526 54.863,49.726 55.663,49.726 55.663,46.626 54.863,46.626 54.863,45.626" style="fill:none;stroke-width:0.050000mm;stroke:black"/>
<polygon points="59.913,45.626 59.913,46.626 59.113,46.626 59.113,49.726 59.913,49.726 59.913,55.526 59.113,55.526 59.113,58.626 59.913,58.626 59.913,59.626 73.913,59.626 73.913,58.626 74.713,58.626 74.713,55.526 73.913,55.526 73.913,49.726 74.713,49.726 74.713,46.626 73.913,46.626 73.913,45.626" style="fill:none;stroke-width:0.050000mm;stroke:black"/>
<polygon points="78.963,45.626 78.963,46.626 78.163,46.626 78.163,49.726 78.963,49.726 78.963,55.526 78.163,55.526 78.163,58.626 78.963,58.626 78.963,59.626 92.963,59.626 92.963,58.626 93.763,58.626 93.763,55.526 92.963,55.526 92.963,49.726 93.763,49.726 93.763,46.626 92.963,46.626 92.963,45.626" style="fill:none;stroke-width:0.050000mm;stroke:black"/>
<polygon points="98.013,45.626 98.013,46.626 97.213,46.626 97.213,49.726 98.013,49.726 98.013,55.526 97.213,55.526 97.213,58.626 98.013,58.626 98.013,59.626 112.013,59.626 112.013,58.626 112.813,58.626 112.813,55.526 112.013,55.526 112.013,49.726 112.813,49.726 112.813,46.626 112.013,46.626 112.013,45.626" style="fill:none;stroke-width:0.050000mm;stroke:black"/>
<polygon points="117.063,45.626 117.063,46.626 116.263,46.626 116.263,49.726 117.063,49.726 117.063,55.526 116.263,55.526 116.263,58.626 117.063,58.626 117.063,59.626 131.063,59.626 131.063,58.626 131.863,58.626 131.863,55.526 131.063,55.526 131.063,49.726 131.863,49.726 131.863,46.626 131.063,46.626 131.063,45.626" style="fill:none;stroke-width:0.050000mm;stroke:black"/>
<polygon points="136.113,45.626 136.113,46.626 135.313,46.626 135.313,49.726 136.113,49.726 136.113,55.526 135.313,55.526 135.313,58.626 136.113,58.626 136.113,59.626 150.113,59.626 150.113,58.626 150.913,58.626 150.913,55.526 150.113,55.526 150.113,49.726 150.913,49.726 150.913,46.626 150.113,46.626 150.113,45.626" style="fill:none;stroke-width:0.050000mm;stroke:black"/>
<polygon points="155.163,45.626 155.163,46.626 154.363,46.626 154.363,49.726 155.163,49.726 155.163,55.526 154.363,55.526 154.363,58.626 155.163,58.626 155.163,59.626 169.163,59.626 169.163,58.626 169.963,58.626 169.963,55.526 169.163,55.526 169.163,49.726 169.963,49.726 169.963,46.626 169.163,46.626 169.163,45.626" style="fill:none;stroke-width:0.050000mm;stroke:black"/>
<polygon points="174.213,45.626 174.213,46.626 173.413,46.626 173.413,49.726 174.213,49.726 174.213,55.526 173.413,55.526 173.413,58.626 174.213,58.626 174.213,59.626 188.213,59.626 188.213,58.626 189.013,58.626 189.013,55.526 188.213,55.526 188.213,49.726 189.013,49.726 189.013,46.626 188.213,46.626 188.213,45.626" style="fill:none;stroke-width:0.050000mm;stroke:black"/>
<polygon points="195.644,45.626 195.644,46.626 194.844,46.626 194.844,49.726 195.644,49.726 195.644,55.526 194.844,55.526 194.844,58.626 195.644,58.626 195.644,59.626 209.644,59.626 209.644,58.626 210.444,58.626 210.444,55.526 209.644,55.526 209.644,49.726 210.444,49.726 210.444,46.626 209.644,46.626 209.644,45.626" style="fill:none;stroke-width:0.050000mm;stroke:black"/>
<polygon points="217.076,45.626 217.076,46.626 216.276,46.626 216.276,49.726 217.076,49.726 217.076,55.526 216.276,55.526 216.276,58.626 217.076,58.626 217.076,59.626 231.076,59.626 231.076,58.626 231.876,58.626 231.876,55.526 231.076,55.526 231.076,49.726 231.876,49.726 231.876,46.626 231.076,46.626 231.076,45.626" style="fill:none;stroke-width:0.050000mm;stroke:black"/>
<polygon points="9.907,26.576 9.907,27.576 9.107,27.576 9.107,30.676 9.907,30.676 9.907,36.476 9.107,36.476 9.107,39.576 9.907,39.576 9.907,40.576 23.907,40.576 23.907,39.576 24.707,39.576 24.707,36.476 23.907,36.476 23.907,30.676 24.707,30.676 24.707,27.576 23.907,27.576 23.907,26.576" style="fill:none;stroke-width:0.050000mm;stroke:black"/>
<polygon points="31.338,26.576 31.338,27.576 30.538,27.576 30.538,30.676 31.338,30.676 31.338,36.476 30.538,36.476 30.538,39.576 31.338,39.576 31.338,40.576 45.338,40.576 45.338,39.576 46.138,39.576 46.138,36.476 45.338,36.476 45.338,30.676 46.138,30.676 46.138,27.576 45.338,27.576 45.338,26.576" style="fill:none;stroke-width:0.050000mm;stroke:black"/>
<polygon points="50.388,26.576 50.388,27.576 49.588,27.576 49.588,30.676 50.388,30.676 50.388,36.476 49.588,36.476 49.588,39.576 50.388,39.576 50.388,40.576 64.388,40.576 64.388,39.576 65.188,39.576 65.188,36.476 64.388,36.476 64.388,30.676 65.188,30.676 65.188,27.576 64.388,27.576 64.388,26.576" style="fill:none;stroke-width:0.050000mm;stroke:black"/>
<polygon points="69.438,26.576 69.438,27.576 68.638,27.576 68.638,30.676 69.438,30.676 69.438,36.476 68.638,36.476 68.638,39.576 69.438,39.576 69.438,40.576 83.438,40.576 83.438,39.576 84.238,39.576 84.238,36.476 83.438,36.476 83.438,30.676 84.238,30.676 84.238,27.576 83.438,27.576 83.438,26.576" style="fill:none;stroke-width:0.050000mm;stroke:black"/>
<polygon points="88.488,26.576 88.488,27.576 87.688,27.576 87.688,30.676 88.488,30.676 88.488,36.476 87.688,36.476 87.688,39.576 88.488,39.576 88.488,40.576 102.488,40.576 102.488,39.576 103.288,39.576 103.288,36.476 102.488,36.476 102.488,30.676 103.288,30.676 103.288,27.576 102.488,27.576 102.488,26.576" style="fill:none;stroke-width:0.050000mm;stroke:black"/>
<polygon points="107.538,26.576 107.538,27.576 106.738,27.576 106.738,30.676 107.538,30.676 107.538,36.476 106.738,36.476 106.738,39.576 107.538,39.576 107.538,40.576 121.538,40.576 121.538,39.576 122.338,39.576 122.338,36.476 121.538,36.476 121.538,30.676 122.338,30.676 122.338,27.576 121.538,27.576 121.538,26.576" style="fill:none;stroke-width:0.050000mm;stroke:black"/>
<polygon points="126.588,26.576 126.588,27.576 125.788,27.576 125.788,30.676 126.588,30.676 126.588,36.476 125.788,36.476 125.788,39.576 126.588,39.576 126.588,40.576 140.588,40.576 140.588,39.576 141.388,39.576 141.388,36.476 140.588,36.476 140.588,30.676 141.388,30.676 141.388,27.576 140.588,27.576 140.588,26.576" style="fill:none;stroke-width:0.050000mm;stroke:black"/>
<polygon points="145.638,26.576 145.638,27.576 144.838,27.576 144.838,30.676 145.638,30.676 145.638,36.476 144.838,36.476 144.838,39.576 145.638,39.576 145.638,40.576 159.638,40.576 159.638,39.576 160.438,39.576 160.438,36.476 159.638,36.476 159.638,30.676 160.438,30.676 160.438,27.576 159.638,27.576 159.638,26.576" style="fill:none;stroke-width:0.050000mm;stroke:black"/>
<polygon points="164.688,26.576 164.688,27.576 163.888,27.576 163.888,30.676 164.688,30.676 164.688,36.476 163.888,36.476 163.888,39.576 164.688,39.576 164.688,40.576 178.688,40.576 178.688,39.576 179.488,39.576 179.488,36.476 178.688,36.476 178.688,30.676 179.488,30.676 179.488,27.576 178.688,27.576 178.688,26.576" style="fill:none;stroke-width:0.050000mm;stroke:black"/>
<polygon points="183.738,26.576 183.738,27.576 182.938,27.576 182.938,30.676 183.738,30.676 183.738,36.476 182.938,36.476 182.938,39.576 183.738,39.576 183.738,40.576 197.738,40.576 197.738,39.576 198.538,39.576 198.538,36.476 197.738,36.476 197.738,30.676 198.538,30.676 198.538,27.576 197.738,27.576 197.738,26.576" style="fill:none;stroke-width:0.050000mm;stroke:black"/>
<polygon points="209.932,26.576 209.932,27.576 209.132,27.576 209.132,30.676 209.932,30.676 209.932,36.476 209.132,36.476 209.132,39.576 209.932,39.576 209.932,40.576 223.932,40.576 223.932,39.576 224.732,39.576 224.732,36.476 223.932,36.476 223.932,30.676 224.732,30.676 224.732,27.576 223.932,27.576 223.932,26.576" style="fill:none;stroke-width:0.050000mm;stroke:black"/>
<polygon points="7.526,7.526 7.526,8.526 6.726,8.526 6.726,11.626 7.526,11.626 7.526,17.426 6.726,17.426 6.726,20.526 7.526,20.526 7.526,21.526 21.526,21.526 21.526,20.526 22.326,20.526 22.326,17.426 21.526,17.426 21.526,11.626 22.326,11.626 22.326,8.526 21.526,8.526 21.526,7.526" style="fill:none;stroke-width:0.050000mm;stroke:black"/>
<polygon points="26.576,7.526 26.576,8.526 25.776,8.526 25.776,11.626 26.576,11.626 26.576,17.426 25.776,17.426 25.776,20.526 26.576,20.526 26.576,21.526 40.576,21.526 40.576,20.526 41.376,20.526 41.376,17.426 40.576,17.426 40.576,11.626 41.376,11.626 41.376,8.526 40.576,8.526 40.576,7.526" style="fill:none;stroke-width:0.050000mm;stroke:black"/>
<polygon points="45.626,7.526 45.626,8.526 44.826,8.526 44.826,11.626 45.626,11.626 45.626,17.426 44.826,17.426 44.826,20.526 45.626,20.526 45.626,21.526 59.626,21.526 59.626,20.526 60.426,20.526 60.426,17.426 59.626,17.426 59.626,11.626 60.426,11.626 60.426,8.526 59.626,8.526 59.626,7.526" style="fill:none;stroke-width:0.050000mm;stroke:black"/>
<polygon points="64.676,7.526 64.676,8.526 63.876,8.526 63.876,11.626 64.676,11.626 64.676,17.426 63.876,17.426 63.876,20.526 64.676,20.526 64.676,21.526 78.676,21.526 78.676,20.526 79.476,20.526 79.476,17.426 78.676,17.426 78.676,11.626 79.476,11.626 79.476,8.526 78.676,8.526 78.676,7.526" style="fill:none;stroke-width:0.050000mm;stroke:black"/>
<polygon points="83.726,7.526 83.726,8.526 82.926,8.526 82.926,11.626 83.726,11.626 83.726,17.426 82.926,17.426 82.926,20.526 83.726,20.526 83.726,21.526 97.726,21.526 97.726,20.526 98.525,20.526 98.525,17.426 97.726,17.426 97.726,11.626 98.525,11.626 98.525,8.526 97.726,8.526 97.726,7.526" style="fill:none;stroke-width:0.050000mm;stroke:black"/>
<polygon points="102.775,7.526 102.775,8.526 101.976,8.526 101.976,11.626 102.775,11.626 102.775,17.426 101.976,17.426 101.976,20.526 102.775,20.526 102.775,21.526 116.775,21.526 116.775,20.526 117.575,20.526 117.575,17.426 116.775,17.426 116.775,11.626 117.575,11.626 117.575,8.526 116.775,8.526 116.775,7.526" style="fill:none;stroke-width:0.050000mm;stroke:black"/>
<polygon points="121.825,7.526 121.825,8.526 121.025,8.526 121.025,11.626 121.825,11.626 121.825,17.426 121.025,17.426 121.025,20.526 121.825,20.526 121.825,21.526 135.826,21.526 135.826,20.526 136.626,20.526 136.626,17.426 135.826,17.426 135.826,11.626 136.626,11.626 136.626,8.526 135.826,8.526 135.826,7.526" style="fill:none;stroke-width:0.050000mm;stroke:black"/>
<polygon points="140.876,7.526 140.876,8.526 140.076,8.526 140.076,11.626 140.876,11.626 140.876,17.426 140.076,17.426 140.076,20.526 140.876,20.526 140.876,21.526 154.876,21.526 154.876,20.526 155.676,20.526 155.676,17.426 154.876,17.426 154.876,11.626 155.676,11.626 155.676,8.526 154.876,8.526 154.876,7.526" style="fill:none;stroke-width:0.050000mm;stroke:black"/>
<polygon points="159.926,7.526 159.926,8.526 159.126,8.526 159.126,11.626 159.926,11.626 159.926,17.426 159.126,17.426 159.126,20.526 159.926,20.526 159.926,21.526 173.926,21.526 173.926,20.526 174.726,20.526 174.726,17.426 173.926,17.426 173.926,11.626 174.726,11.626 174.726,8.526 173.926,8.526 173.926,7.526" style="fill:none;stroke-width:0.050000mm;stroke:black"/>
<polygon points="178.976,7.526 178.976,8.526 178.176,8.526 178.176,11.626 178.976,11.626 178.976,17.426 178.176,17.426 178.176,20.526 178.976,20.526 178.976,21.526 192.976,21.526 192.976,20.526 193.776,20.526 193.776,17.426 192.976,17.426 192.976,11.626 193.776,11.626 193.776,8.526 192.976,8.526 192.976,7.526" style="fill:none;stroke-width:0.050000mm;stroke:black"/>
<polygon points="198.026,7.526 198.026,8.526 197.226,8.526 197.226,11.626 198.026,11.626 198.026,17.426 197.226,17.426 197.226,20.526 198.026,20.526 198.026,21.526 212.026,21.526 212.026,20.526 212.826,20.526 212.826,17.426 212.026,17.426 212.026,11.626 212.826,11.626 212.826,8.526 212.026,8.526 212.026,7.526" style="fill:none;stroke-width:0.050000mm;stroke:black"/>
<polygon points="217.076,7.526 217.076,8.526 216.276,8.526 216.276,11.626 217.076,11.626 217.076,17.426 216.276,17.426 216.276,20.526 217.076,20.526 217.076,21.526 231.076,21.526 231.076,20.526 231.876,20.526 231.876,17.426 231.076,17.426 231.076,11.626 231.876,11.626 231.876,8.526 231.076,8.526 231.076,7.526" style="fill:none;stroke-width:0.050000mm;stroke:black"/>
</svg>
