<?xml version="1.0"?>
<!-- Generated by SVGo -->
<svg width="267.001mm" height="101.002mm"
     viewBox="0.000 0.000 267.001 101.002"
     xmlns="http://www.w3.org/2000/svg" 
     xmlns:xlink="http://www.w3.org/1999/xlink">
<polygon points="261.001,5.001 261.080,5.004 261.157,5.013 261.234,5.028 261.311,5.049 261.383,5.077 261.455,5.109 261.524,5.148 261.589,5.191 261.650,5.240 261.709,5.293 261.762,5.351 261.811,5.413 261.854,5.478 261.893,5.547 261.924,5.618 261.953,5.691 261.974,5.767 261.989,5.844 261.998,5.922 262.001,6.001 262.001,95.001 261.998,95.080 261.989,95.158 261.974,95.235 261.953,95.311 261.924,95.384 261.893,95.455 261.854,95.524 261.811,95.589 261.762,95.651 261.709,95.709 261.650,95.762 261.589,95.811 261.524,95.854 261.455,95.893 261.383,95.925 261.311,95.953 261.234,95.974 261.157,95.989 261.080,95.998 261.001,96.002 6.001,96.001 5.922,95.998 5.844,95.989 5.767,95.974 5.691,95.953 5.618,95.925 5.547,95.893 5.478,95.854 5.413,95.811 5.351,95.762 5.293,95.709 5.240,95.651 5.191,95.589 5.148,95.524 5.109,95.455 5.077,95.384 5.049,95.311 5.028,95.235 5.013,95.158 5.004,95.080 5.000,95.001 5.001,6.001 5.004,5.922 5.013,5.844 5.028,5.767 5.049,5.691 5.077,5.618 5.109,5.547 5.148,5.478 5.191,5.413 5.240,5.351 5.293,5.293 5.351,5.240 5.413,5.191 5.478,5.148 5.547,5.109 5.618,5.077 5.691,5.049 5.767,5.028 5.844,5.013 5.922,5.004 6.001,5.000" style="fill:none;stroke-width:0.050000mm;stroke:black"/>
<polygon points="143.344,77.176 143.344,78.176 142.544,78.176 142.544,81.275 143.344,81.275 143.344,81.876 103.719,81.876 103.719,78.646 101.994,78.646 101.994,77.726 98.694,77.726 98.694,78.646 96.969,78.646 96.969,81.876 96.144,81.876 96.144,84.676 96.969,84.676 96.969,90.946 98.694,90.946 98.694,91.926 101.994,91.926 101.994,90.946 103.719,90.946 103.719,86.476 143.344,86.476 143.344,87.076 142.544,87.076 142.544,90.176 143.344,90.176 143.344,91.176 157.344,91.176 157.344,90.176 158.144,90.176 158.144,87.076 157.344,87.076 157.344,86.476 196.969,86.476 196.969,90.946 198.694,90.946 198.694,91.926 201.994,91.926 201.994,90.946 203.719,90.946 203.719,84.676 204.544,84.676 204.544,81.876 203.719,81.876 203.719,78.646 201.994,78.646 201.994,77.726 198.694,77.726 198.694,78.646 196.969,78.646 196.969,81.876 157.344,81.876 157.344,81.275 158.144,81.275 158.144,78.176 157.344,78.176 157.344,77.176" style="fill:none;stroke-width:0.050000mm;stroke:black"/>
<polygon points="33.807,77.176 33.807,78.176 33.007,78.176 33.007,81.275 33.807,81.275 33.807,87.076 33.007,87.076 33.007,90.176 33.807,90.176 33.807,91.176 47.807,91.176 47.807,90.176 48.607,90.176 48.607,87.076 47.807,87.076 47.807,81.275 48.607,81.275 48.607,78.176 47.807,78.176 47.807,77.176" style="fill:none;stroke-width:0.050000mm;stroke:black"/>
<polygon points="55.238,77.176 55.238,78.176 54.438,78.176 54.438,81.275 55.238,81.275 55.238,87.076 54.438,87.076 54.438,90.176 55.238,90.176 55.238,91.176 69.238,91.176 69.238,90.176 70.038,90.176 70.038,87.076 69.238,87.076 69.238,81.275 70.038,81.275 70.038,78.176 69.238,78.176 69.238,77.176" style="fill:none;stroke-width:0.050000mm;stroke:black"/>
<polygon points="74.288,77.176 74.288,78.176 73.488,78.176 73.488,81.275 74.288,81.275 74.288,87.076 73.488,87.076 73.488,90.176 74.288,90.176 74.288,91.176 88.288,91.176 88.288,90.176 89.088,90.176 89.088,87.076 88.288,87.076 88.288,81.275 89.088,81.275 89.088,78.176 88.288,78.176 88.288,77.176" style="fill:none;stroke-width:0.050000mm;stroke:black"/>
<polygon points="214.782,77.176 214.782,78.176 213.982,78.176 213.982,81.275 214.782,81.275 214.782,87.076 213.982,87.076 213.982,90.176 214.782,90.176 214.782,91.176 228.782,91.176 228.782,90.176 229.582,90.176 229.582,87.076 228.782,87.076 228.782,81.275 229.582,81.275 229.582,78.176 228.782,78.176 228.782,77.176" style="fill:none;stroke-width:0.050000mm;stroke:black"/>
<polygon points="238.594,77.176 238.594,78.176 237.794,78.176 237.794,81.275 238.594,81.275 238.594,87.076 237.794,87.076 237.794,90.176 238.594,90.176 238.594,91.176 252.594,91.176 252.594,90.176 253.394,90.176 253.394,87.076 252.594,87.076 252.594,81.275 253.394,81.275 253.394,78.176 252.594,78.176 252.594,77.176" style="fill:none;stroke-width:0.050000mm;stroke:black"/>
<polygon points="38.569,58.126 38.569,59.126 37.769,59.126 37.769,62.226 38.569,62.226 38.569,68.026 37.769,68.026 37.769,71.126 38.569,71.126 38.569,72.126 52.569,72.126 52.569,71.126 53.369,71.126 53.369,68.026 52.569,68.026 52.569,62.226 53.369,62.226 53.369,59.126 52.569,59.126 52.569,58.126" style="fill:none;stroke-width:0.050000mm;stroke:black"/>
<polygon points="64.763,58.126 64.763,59.126 63.963,59.126 63.963,62.226 64.763,62.226 64.763,68.026 63.963,68.026 63.963,71.126 64.763,71.126 64.763,72.126 78.763,72.126 78.763,71.126 79.563,71.126 79.563,68.026 78.763,68.026 78.763,62.226 79.563,62.226 79.563,59.126 78.763,59.126 78.763,58.126" style="fill:none;stroke-width:0.050000mm;stroke:black"/>
<polygon points="83.813,58.126 83.813,59.126 83.013,59.126 83.013,62.226 83.813,62.226 83.813,68.026 83.013,68.026 83.013,71.126 83.813,71.126 83.813,72.126 97.813,72.126 97.813,71.126 98.613,71.126 98.613,68.026 97.813,68.026 97.813,62.226 98.613,62.226 98.613,59.126 97.813,59.126 97.813,58.126" style="fill:none;stroke-width:0.050000mm;stroke:black"/>
<polygon points="102.863,58.126 102.863,59.126 102.063,59.126 102.063,62.226 102.863,62.226 102.863,68.026 102.063,68.026 102.063,71.126 102.863,71.126 102.863,72.126 116.863,72.126 116.863,71.126 117.663,71.126 117.663,68.026 116.863,68.026 116.863,62.226 117.663,62.226 117.663,59.126 116.863,59.126 116.863,58.126" style="fill:none;stroke-width:0.050000mm;stroke:black"/>
<polygon points="121.913,58.126 121.913,59.126 121.113,59.126 121.113,62.226 121.913,62.226 121.913,68.026 121.113,68.026 121.113,71.126 121.913,71.126 121.913,72.126 135.913,72.126 135.913,71.126 136.713,71.126 136.713,68.026 135.913,68.026 135.913,62.226 136.713,62.226 136.713,59.126 135.913,59.126 135.913,58.126" style="fill:none;stroke-width:0.050000mm;stroke:black"/>
<polygon points="140.963,58.126 140.963,59.126 140.163,59.126 140.163,62.226 140.963,62.226 140.963,68.026 140.163,68.026 140.163,71.126 140.963,71.126 140.963,72.126 154.963,72.126 154.963,71.126 155.763,71.126 155.763,68.026 154.963,68.026 154.963,62.226 155.763,62.226 155.763,59.126 154.963,59.126 154.963,58.126" style="fill:none;stroke-width:0.050000mm;stroke:black"/>
<polygon points="160.013,58.126 160.013,59.126 159.213,59.126 159.213,62.226 160.013,62.226 160.013,68.026 159.213,68.026 159.213,71.126 160.013,71.126 160.013,72.126 174.013,72.126 174.013,71.126 174.813,71.126 174.813,68.026 174.013,68.026 174.013,62.226 174.813,62.226 174.813,59.126 174.013,59.126 174.013,58.126" style="fill:none;stroke-width:0.050000mm;stroke:black"/>
<polygon points="179.063,58.126 179.063,59.126 178.263,59.126 178.263,62.226 179.063,62.226 179.063,68.026 178.263,68.026 178.263,71.126 179.063,71.126 179.063,72.126 193.063,72.126 193.063,71.126 193.863,71.126 193.863,68.026 193.063,68.026 193.063,62.226 193.863,62.226 193.863,59.126 193.063,59.126 193.063,58.126" style="fill:none;stroke-width:0.050000mm;stroke:black"/>
<polygon points="198.113,58.126 198.113,59.126 197.313,59.126 197.313,62.226 198.113,62.226 198.113,68.026 197.313,68.026 197.313,71.126 198.113,71.126 198.113,72.126 212.113,72.126 212.113,71.126 212.913,71.126 212.913,68.026 212.113,68.026 212.113,62.226 212.913,62.226 212.913,59.126 212.113,59.126 212.113,58.126" style="fill:none;stroke-width:0.050000mm;stroke:black"/>
<polygon points="219.544,58.126 219.544,59.126 218.744,59.126 218.744,62.226 219.544,62.226 219.544,68.026 218.744,68.026 218.744,71.126 219.544,71.126 219.544,72.126 233.544,72.126 233.544,71.126 234.344,71.126 234.344,68.026 233.544,68.026 233.544,62.226 234.344,62.226 234.344,59.126 233.544,59.126 233.544,58.126" style="fill:none;stroke-width:0.050000mm;stroke:black"/>
<polygon points="240.976,58.126 240.976,59.126 240.176,59.126 240.176,62.226 240.976,62.226 240.976,68.026 240.176,68.026 240.176,71.126 240.976,71.126 240.976,72.126 254.976,72.126 254.976,71.126 255.776,71.126 255.776,68.026 254.976,68.026 254.976,62.226 255.776,62.226 255.776,59.126 254.976,59.126 254.976,58.126" style="fill:none;stroke-width:0.050000mm;stroke:black"/>
<polygon points="33.807,39.076 33.807,40.076 33.007,40.076 33.007,43.176 33.807,43.176 33.807,48.976 33.007,48.976 33.007,52.076 33.807,52.076 33.807,53.076 47.807,53.076 47.807,52.076 48.607,52.076 48.607,48.976 47.807,48.976 47.807,43.176 48.607,43.176 48.607,40.076 47.807,40.076 47.807,39.076" style="fill:none;stroke-width:0.050000mm;stroke:black"/>
<polygon points="55.238,39.076 55.238,40.076 54.438,40.076 54.438,43.176 55.238,43.176 55.238,48.976 54.438,48.976 54.438,52.076 55.238,52.076 55.238,53.076 69.238,53.076 69.238,52.076 70.038,52.076 70.038,48.976 69.238,48.976 69.238,43.176 70.038,43.176 70.038,40.076 69.238,40.076 69.238,39.076" style="fill:none;stroke-width:0.050000mm;stroke:black"/>
<polygon points="74.288,39.076 74.288,40.076 73.488,40.076 73.488,43.176 74.288,43.176 74.288,48.976 73.488,48.976 73.488,52.076 74.288,52.076 74.288,53.076 88.288,53.076 88.288,52.076 89.088,52.076 89.088,48.976 88.288,48.976 88.288,43.176 89.088,43.176 89.088,40.076 88.288,40.076 88.288,39.076" style="fill:none;stroke-width:0.050000mm;stroke:black"/>
<polygon points="93.338,39.076 93.338,40.076 92.538,40.076 92.538,43.176 93.338,43.176 93.338,48.976 92.538,48.976 92.538,52.076 93.338,52.076 93.338,53.076 107.338,53.076 107.338,52.076 108.138,52.076 108.138,48.976 107.338,48.976 107.338,43.176 108.138,43.176 108.138,40.076 107.338,40.076 107.338,39.076" style="fill:none;stroke-width:0.050000mm;stroke:black"/>
<polygon points="112.388,39.076 112.388,40.076 111.588,40.076 111.588,43.176 112.388,43.176 112.388,48.976 111.588,48.976 111.588,52.076 112.388,52.076 112.388,53.076 126.388,53.076 126.388,52.076 127.188,52.076 127.188,48.976 126.388,48.976 126.388,43.176 127.188,43.176 127.188,40.076 126.388,40.076 126.388,39.076" style="fill:none;stroke-width:0.050000mm;stroke:black"/>
<polygon points="131.438,39.076 131.438,40.076 130.638,40.076 130.638,43.176 131.438,43.176 131.438,48.976 130.638,48.976 130.638,52.076 131.438,52.076 131.438,53.076 145.438,53.076 145.438,52.076 146.238,52.076 146.238,48.976 145.438,48.976 145.438,43.176 146.238,43.176 146.238,40.076 145.438,40.076 145.438,39.076" style="fill:none;stroke-width:0.050000mm;stroke:black"/>
<polygon points="150.488,39.076 150.488,40.076 149.688,40.076 149.688,43.176 150.488,43.176 150.488,48.976 149.688,48.976 149.688,52.076 150.488,52.076 150.488,53.076 164.488,53.076 164.488,52.076 165.288,52.076 165.288,48.976 164.488,48.976 164.488,43.176 165.288,43.176 165.288,40.076 164.488,40.076 164.488,39.076" style="fill:none;stroke-width:0.050000mm;stroke:black"/>
<polygon points="169.538,39.076 169.538,40.076 168.738,40.076 168.738,43.176 169.538,43.176 169.538,48.976 168.738,48.976 168.738,52.076 169.538,52.076 169.538,53.076 183.538,53.076 183.538,52.076 184.338,52.076 184.338,48.976 183.538,48.976 183.538,43.176 184.338,43.176 184.338,40.076 183.538,40.076 183.538,39.076" style="fill:none;stroke-width:0.050000mm;stroke:black"/>
<polygon points="188.588,39.076 188.588,40.076 187.788,40.076 187.788,43.176 188.588,43.176 188.588,48.976 187.788,48.976 187.788,52.076 188.588,52.076 188.588,53.076 202.588,53.076 202.588,52.076 203.388,52.076 203.388,48.976 202.588,48.976 202.588,43.176 203.388,43.176 203.388,40.076 202.588,40.076 202.588,39.076" style="fill:none;stroke-width:0.050000mm;stroke:black"/>
<polygon points="207.638,39.076 207.638,40.076 206.838,40.076 206.838,43.176 207.638,43.176 207.638,48.976 206.838,48.976 206.838,52.076 207.638,52.076 207.638,53.076 221.638,53.076 221.638,52.076 222.438,52.076 222.438,48.976 221.638,48.976 221.638,43.176 222.438,43.176 222.438,40.076 221.638,40.076 221.638,39.076" style="fill:none;stroke-width:0.050000mm;stroke:black"/>
<polygon points="233.832,39.076 233.832,40.076 233.032,40.076 233.032,43.176 233.832,43.176 233.832,48.976 233.032,48.976 233.032,52.076 233.832,52.076 233.832,53.076 247.832,53.076 247.832,52.076 248.632,52.076 248.632,48.976 247.832,48.976 247.832,43.176 248.632,43.176 248.632,40.076 247.832,40.076 247.832,39.076" style="fill:none;stroke-width:0.050000mm;stroke:black"/>
<polygon points="31.425,20.026 31.425,21.026 30.625,21.026 30.625,24.126 31.425,24.126 31.425,29.925 30.625,29.925 30.625,33.026 31.425,33.026 31.425,34.026 45.426,34.026 45.426,33.026 46.225,33.026 46.225,29.925 45.426,29.925 45.426,24.126 46.225,24.126 46.225,21.026 45.426,21.026 45.426,20.026" style="fill:none;stroke-width:0.050000mm;stroke:black"/>
<polygon points="50.475,20.026 50.475,21.026 49.676,21.026 49.676,24.126 50.475,24.126 50.475,29.925 49.676,29.925 49.676,33.026 50.475,33.026 50.475,34.026 64.475,34.026 64.475,33.026 65.275,33.026 65.275,29.925 64.475,29.925 64.475,24.126 65.275,24.126 65.275,21.026 64.475,21.026 64.475,20.026" style="fill:none;stroke-width:0.050000mm;stroke:black"/>
<polygon points="69.525,20.026 69.525,21.026 68.726,21.026 68.726,24.126 69.525,24.126 69.525,29.925 68.726,29.925 68.726,33.026 69.525,33.026 69.525,34.026 83.525,34.026 83.525,33.026 84.325,33.026 84.325,29.925 83.525,29.925 83.525,24.126 84.325,24.126 84.325,21.026 83.525,21.026 83.525,20.026" style="fill:none;stroke-width:0.050000mm;stroke:black"/>
<polygon points="88.575,20.026 88.575,21.026 87.775,21.026 87.775,24.126 88.575,24.126 88.575,29.925 87.775,29.925 87.775,33.026 88.575,33.026 88.575,34.026 102.575,34.026 102.575,33.026 103.375,33.026 103.375,29.925 102.575,29.925 102.575,24.126 103.375,24.126 103.375,21.026 102.575,21.026 102.575,20.026" style="fill:none;stroke-width:0.050000mm;stroke:black"/>
<polygon points="107.625,20.026 107.625,21.026 106.825,21.026 106.825,24.126 107.625,24.126 107.625,29.925 106.825,29.925 106.825,33.026 107.625,33.026 107.625,34.026 121.625,34.026 121.625,33.026 122.425,33.026 122.425,29.925 121.625,29.925 121.625,24.126 122.425,24.126 122.425,21.026 121.625,21.026 121.625,20.026" style="fill:none;stroke-width:0.050000mm;stroke:black"/>
<polygon points="126.675,20.026 126.675,21.026 125.875,21.026 125.875,24.126 126.675,24.126 126.675,29.925 125.875,29.925 125.875,33.026 126.675,33.026 126.675,34.026 140.675,34.026 140.675,33.026 141.476,33.026 141.476,29.925 140.675,29.925 140.675,24.126 141.476,24.126 141.476,21.026 140.675,21.026 140.675,20.026" style="fill:none;stroke-width:0.050000mm;stroke:black"/>
<polygon points="145.726,20.026 145.726,21.026 144.925,21.026 144.925,24.126 145.726,24.126 145.726,29.925 144.925,29.925 144.925,33.026 145.726,33.026 145.726,34.026 159.726,34.026 159.726,33.026 160.526,33.026 160.526,29.925 159.726,29.925 159.726,24.126 160.526,24.126 160.526,21.026 159.726,21.026 159.726,20.026" style="fill:none;stroke-width:0.050000mm;stroke:black"/>
<polygon points="164.776,20.026 164.776,21.026 163.976,21.026 163.976,24.126 164.776,24.126 164.776,29.925 163.976,29.925 163.976,33.026 164.776,33.026 164.776,34.026 178.776,34.026 178.776,33.026 179.576,33.026 179.576,29.925 178.776,29.925 178.776,24.126 179.576,24.126 179.576,21.026 178.776,21.026 178.776,20.026" style="fill:none;stroke-width:0.050000mm;stroke:black"/>
<polygon points="183.826,20.026 183.826,21.026 183.026,21.026 183.026,24.126 183.826,24.126 183.826,29.925 183.026,29.925 183.026,33.026 183.826,33.026 183.826,34.026 197.826,34.026 197.826,33.026 198.626,33.026 198.626,29.925 197.826,29.925 197.826,24.126 198.626,24.126 198.626,21.026 197.826,21.026 197.826,20.026" style="fill:none;stroke-width:0.050000mm;stroke:black"/>
<polygon points="202.876,20.026 202.876,21.026 202.076,21.026 202.076,24.126 202.876,24.126 202.876,29.925 202.076,29.925 202.076,33.026 202.876,33.026 202.876,34.026 216.876,34.026 216.876,33.026 217.676,33.026 217.676,29.925 216.876,29.925 216.876,24.126 217.676,24.126 217.676,21.026 216.876,21.026 216.876,20.026" style="fill:none;stroke-width:0.050000mm;stroke:black"/>
<polygon points="221.926,20.026 221.926,21.026 221.126,21.026 221.126,24.126 221.926,24.126 221.926,29.925 221.126,29.925 221.126,33.026 221.926,33.026 221.926,34.026 235.926,34.026 235.926,33.026 236.726,33.026 236.726,29.925 235.926,29.925 235.926,24.126 236.726,24.126 236.726,21.026 235.926,21.026 235.926,20.026" style="fill:none;stroke-width:0.050000mm;stroke:black"/>
<polygon points="240.976,20.026 240.976,21.026 240.176,21.026 240.176,24.126 240.976,24.126 240.976,29.925 240.176,29.925 240.176,33.026 240.976,33.026 240.976,34.026 254.976,34.026 254.976,33.026 255.776,33.026 255.776,29.925 254.976,29.925 254.976,24.126 255.776,24.126 255.776,21.026 254.976,21.026 254.976,20.026" style="fill:none;stroke-width:0.050000mm;stroke:black"/>
</svg>
